SplineFontDB: 3.0
FontName: VeranaSans-BoldOblique
FullName: Verana Sans Bold Oblique
FamilyName: Verana Sans
Weight: Bold
Copyright: Copyright (c) Arkandis Digital fondry, from initial release of Bitstream VeraSans Font modified  and under Public Domain.
Version: 1.002
ItalicAngle: -11
UnderlinePosition: -100
UnderlineWidth: 50
Ascent: 760
Descent: 240
sfntRevision: 0x00010041
LayerCount: 2
Layer: 0 0 "Arri+AOgA-re"  1
Layer: 1 0 "Avant"  0
NeedsXUIDChange: 1
XUID: [1021 905 1196402830 387617]
BaseHoriz: 2 'ideo' 'romn'
BaseScript: 'latn' 1  -135 0
FSType: 8
OS2Version: 2
OS2_WeightWidthSlopeOnly: 0
OS2_UseTypoMetrics: 1
CreationTime: 1214138668
ModificationTime: 1312111995
PfmFamily: 17
TTFWeight: 700
TTFWidth: 5
LineGap: 200
VLineGap: 0
Panose: 2 11 8 6 2 2 2 9 0 3
OS2TypoAscent: 0
OS2TypoAOffset: 1
OS2TypoDescent: 0
OS2TypoDOffset: 1
OS2TypoLinegap: 200
OS2WinAscent: 0
OS2WinAOffset: 1
OS2WinDescent: 0
OS2WinDOffset: 1
HheadAscent: -168
HheadAOffset: 1
HheadDescent: -4
HheadDOffset: 1
OS2SubXSize: 650
OS2SubYSize: 600
OS2SubXOff: -15
OS2SubYOff: 75
OS2SupXSize: 650
OS2SupYSize: 600
OS2SupXOff: 68
OS2SupYOff: 350
OS2StrikeYSize: 125
OS2StrikeYPos: 328
OS2Vendor: 'ADFP'
OS2CodePages: 00000003.00000000
OS2UnicodeRanges: 800000af.5000204a.00000000.00000000
Lookup: 1 0 0 "'aalt' Activer toutes les variantes dans Latin lookup 0"  {"sous-table 'aalt' Activer toutes les variantes dans Latin lookup 0"  } ['aalt' ('latn' <'dflt' > ) ]
Lookup: 3 0 0 "'aalt' Activer toutes les variantes dans Latin lookup 1"  {"sous-table 'aalt' Activer toutes les variantes dans Latin lookup 1"  } ['aalt' ('latn' <'dflt' > ) ]
Lookup: 1 0 0 "'numr' Num+AOkA-rateurs dans Latin lookup 2"  {"sous-table 'numr' Num+AOkA-rateurs dans Latin lookup 2"  } ['numr' ('latn' <'dflt' > ) ]
Lookup: 1 0 0 "'dnom' D+AOkA-nominateurs dans Latin lookup 3"  {"sous-table 'dnom' D+AOkA-nominateurs dans Latin lookup 3"  } ['dnom' ('latn' <'dflt' > ) ]

StartChar: .notdef
Encoding: 65536 -1 0
Width: 600
Flags: W
HStem: -177 56<19 407> 649 56<169 557>
LayerCount: 2
Fore
SplineSet
-48 -177 m 1
 124 705 l 1
 624 705 l 1
 452 -177 l 1
 -48 -177 l 1
19 -121 m 1
 407 -121 l 1
 557 649 l 1
 169 649 l 1
 19 -121 l 1
EndSplineSet
Validated: 1
EndChar

StartChar: exclam
Encoding: 33 33 2
Width: 456
Flags: W
HStem: 0 174<110 253> 709 20G<214.143 394>
VStem: 77 317
LayerCount: 2
Fore
SplineSet
218 729 m 1
 394 729 l 1
 340 449 l 1
 275 245 l 1
 149 245 l 1
 164 449 l 1
 218 729 l 1
110 174 m 1
 286 174 l 1
 253 0 l 1
 77 0 l 1
 110 174 l 1
EndSplineSet
Validated: 1
Position2: "sous-table 'cpsp' Chasses pour composition en capitales dans Latin lookup 1" dx=5 dy=0 dh=10 dv=0
EndChar

StartChar: quotedbl
Encoding: 34 34 3
Width: 521
Flags: W
HStem: 458 271<173 237 388 452>
LayerCount: 2
Fore
SplineSet
504 729 m 1
 452 458 l 1
 336 458 l 1
 388 729 l 1
 504 729 l 1
289 729 m 1
 237 458 l 1
 121 458 l 1
 173 729 l 1
 289 729 l 1
EndSplineSet
Validated: 1
EndChar

StartChar: numbersign
Encoding: 35 35 4
Width: 838
Flags: W
HStem: 0 21G<94 211.877 332 448.877> 187 105<61 177 330 415 568 687> 426 104<164 281 438 519 675 789>
LayerCount: 2
Fore
SplineSet
521 718 m 1
 438 530 l 1
 567 530 l 1
 650 718 l 1
 758 718 l 1
 675 530 l 1
 810 530 l 1
 789 426 l 1
 628 426 l 1
 568 292 l 1
 707 292 l 1
 687 187 l 1
 523 187 l 1
 440 0 l 1
 332 0 l 1
 415 187 l 1
 286 187 l 1
 203 0 l 1
 94 0 l 1
 177 187 l 1
 41 187 l 1
 61 292 l 1
 221 292 l 1
 281 426 l 1
 143 426 l 1
 164 530 l 1
 329 530 l 1
 412 718 l 1
 521 718 l 1
519 426 m 1
 390 426 l 1
 330 292 l 1
 459 292 l 1
 519 426 l 1
EndSplineSet
Validated: 1
EndChar

StartChar: dollar
Encoding: 36 36 5
Width: 696
Flags: HW
HStem: 0 111<140.714 246 346 415.063> 537 112<292.909 350 451 552.153> 740 20G<389.106 472>
LayerCount: 2
Fore
SplineSet
296 -147 m 1
 217 -147 l 1
 246 0 l 1
 165 3 91 18 24 45 c 1
 49 173 l 1
 117 134 189 114 267 111 c 1
 297 263 l 1
 281 266 l 2
 152.798548647 289.930937586 98.3747339619 332.854138077 98.3747339619 412.874789779 c 0
 98.3747339619 426.480985734 99.9482031894 441.159721317 103 457 c 0
 126 573 222 642 371 647 c 1
 393 760 l 1
 472 760 l 1
 451 649 l 1
 515 644 578 632 640 615 c 1
 616 491 l 1
 556 519 495 534 429 537 c 1
 402 397 l 1
 417 394 l 1
 498 381 551 360 578 329 c 0
 597.121506177 307.045678093 607.215061775 278.069616845 607.215061775 242.071816257 c 0
 607.215061775 227.239906735 605.50155281 211.215967983 602 194 c 0
 579 74 487 10 325 1 c 1
 296 -147 l 1
325 408 m 1
 350 536 l 1
 302 533 268 509 262 474 c 1
 260.896551724 468.620689655 260.344827586 463.602853746 260.344827586 458.930747468 c 0
 260.344827586 429.730083234 281.896551724 414.034482759 325 408 c 1
373 249 m 1
 346 113 l 1
 404 114 436 135 444 178 c 0
 445.357706809 184.637677734 446.055442438 190.729172422 446.055442438 196.312248513 c 0
 446.055442438 227.738403336 423.948621272 243.055994185 373 249 c 1
EndSplineSet
Validated: 524289
EndChar

StartChar: percent
Encoding: 37 37 6
Width: 1002
Flags: HW
HStem: -14 83<681.497 775.049> 301 82<719.673 813.265> 345 82<203.497 297.198> 660 82<241.719 335.457>
LayerCount: 2
Fore
SplineSet
770 301 m 0xd0
 723 301 689 260 674 185 c 0
 670.905436416 168.4219808 669.374354265 153.505160622 669.374354265 140.325137789 c 0
 669.374354265 93.8779095934 688.388892032 69 725 69 c 0
 772 69 805 110 819 185 c 0
 822.541758443 202.708792217 824.299473812 218.522038668 824.299473812 232.347592377 c 0
 824.299473812 277.075807634 805.90249021 301 770 301 c 0xd0
786 383 m 0
 889.173790261 383 947.270091156 328.470778994 947.270091156 236.150808948 c 0
 947.270091156 220.199905671 945.535777138 203.120857834 942 185 c 0
 919 62 830 -14 709 -14 c 0
 605.084763578 -14 546.159688893 42.0533162634 546.159688893 135.791199906 c 0
 546.159688893 151.20269908 547.752482956 167.632843636 551 185 c 0
 575 308 665 383 786 383 c 0
261 -14 m 1
 153 -14 l 1
 756 742 l 1
 864 742 l 1
 261 -14 l 1
308 742 m 0
 411.173790261 742 469.270091156 687.470778994 469.270091156 595.150808948 c 0
 469.270091156 579.199905671 467.535777138 562.120857834 464 544 c 0
 440 421 352 345 231 345 c 0xb0
 127.637693288 345 68.7880396313 400.458387412 68.7880396313 493.298074522 c 0
 68.7880396313 509.140193165 70.5016145544 526.070774591 74 544 c 0
 98 667 187 742 308 742 c 0
292 660 m 0
 245 660 211 619 196 544 c 0
 192.905436416 527.4219808 191.374354265 512.456301827 191.374354265 499.200160926 c 0
 191.374354265 452.484687876 210.388892032 427 247 427 c 0
 294 427 328 469 342 544 c 0
 345.457388007 561.286940037 347.161591346 576.767568597 347.161591346 590.356168351 c 0
 347.161591346 635.72218864 328.16685091 660 292 660 c 0
EndSplineSet
Validated: 524289
Ligature2: "sous-table Remplacement de ligature lookups12" zero fraction zero
Ligature2: "sous-table Remplacement de ligature lookups12" zero slash zero
EndChar

StartChar: ampersand
Encoding: 38 38 7
Width: 872
Flags: HW
HStem: -14 126<256.095 419.356> 0 21G<545.66 767> 624 118<409.416 588.16>
LayerCount: 2
Fore
SplineSet
421 484 m 2xa0
 578 264 l 1
 622 309 649 365 666 437 c 1
 818 437 l 1
 786 318 731 226 654 157 c 1
 767 0 l 1
 560 0 l 1x60
 522 53 l 1
 445 8 366 -14 281 -14 c 0
 196 -14 130 8 86 53 c 0
 52.6206896552 87.1379310345 35.9310344828 129.33293698 35.9310344828 178.711837304 c 0
 35.9310344828 194.423305589 37.6206896552 210.862068966 41 228 c 0
 59 323 117 392 235 461 c 1
 219.853104505 486.244825825 213.030143455 510.969405747 213.030143455 536.67471316 c 0
 213.030143455 546.607827882 214.048965165 556.6873873 216 567 c 0
 236 672 340 742 477 742 c 0
 536 742 599 733 664 714 c 1
 638 578 l 1
 583 610 532 624 480 624 c 0
 429 624 397 604 390 569 c 0
 389.431457505 565.730880654 389.145750508 562.380951166 389.145750508 558.938725536 c 0
 389.145750508 538.163056034 399.553390593 514.025253169 421 484 c 2xa0
300 363 m 1
 251 332 223 294 214 247 c 0
 211.967733539 237.600767619 210.96799382 228.524199846 210.96799382 219.770296678 c 0
 210.96799382 194.064532921 219.588732767 171.141100695 236 151 c 1
 259 125 289 112 328 112 c 0xa0
 372 112 412 125 450 152 c 1
 300 363 l 1
EndSplineSet
Validated: 524289
Position2: "sous-table 'cpsp' Chasses pour composition en capitales dans Latin lookup 1" dx=5 dy=0 dh=10 dv=0
EndChar

StartChar: quotesingle
Encoding: 39 39 8
Width: 306
Flags: W
HStem: 458 271<173 237>
VStem: 121 168
LayerCount: 2
Fore
SplineSet
289 729 m 1
 237 458 l 1
 121 458 l 1
 173 729 l 1
 289 729 l 1
EndSplineSet
Validated: 1
EndChar

StartChar: parenleft
Encoding: 40 40 9
Width: 457
Flags: HW
HStem: 739 20G<251 461>
LayerCount: 2
Fore
SplineSet
288 -132 m 1
 143 -132 l 1
 94.3017757501 -18.3708100837 71.0073257703 85.2961154131 71.0073257703 186.734965554 c 0
 71.0073257703 229.023751637 75.0558268804 270.925305329 83 313 c 0
 111 456 186 599 316 759 c 1
 461 759 l 1
 347 604 278 458 250 314 c 0
 240.284281417 264.03344729 235.384643834 213.705688505 235.384643834 162.807832182 c 0
 235.384643834 67.0217386838 252.737457266 -30.7834421532 288 -132 c 1
EndSplineSet
Validated: 524289
EndChar

StartChar: parenright
Encoding: 41 41 10
Width: 457
Flags: HW
HStem: 739 20G<164 343>
LayerCount: 2
Fore
SplineSet
-9 -132 m 1
 105 23 175 170 203 314 c 0
 212.56097561 363.170731707 217.341463415 412.574657942 217.341463415 462.490474601 c 0
 217.341463415 558.756692445 199.56097561 656.926829268 164 759 c 1
 309 759 l 1
 356.871451336 646.361290973 380.458275337 542.147860818 380.458275337 440.428381188 c 0
 380.458275337 397.658307614 376.28822592 355.329153807 368 313 c 0
 341 170 267 29 136 -132 c 1
 -9 -132 l 1
EndSplineSet
Validated: 524289
EndChar

StartChar: asterisk
Encoding: 42 42 11
Width: 523
Flags: W
HStem: 722 20G<297.071 384>
LayerCount: 2
Fore
SplineSet
555 594 m 1
 378 510 l 1
 522 425 l 1
 472 356 l 1
 326 446 l 1
 294 278 l 1
 211 278 l 1
 243 446 l 1
 63 356 l 1
 39 425 l 1
 219 510 l 1
 72 594 l 1
 122 663 l 1
 268 574 l 1
 301 742 l 1
 384 742 l 1
 351 574 l 1
 531 663 l 1
 555 594 l 1
EndSplineSet
Validated: 1
EndChar

StartChar: plus
Encoding: 43 43 12
Width: 838
Flags: W
HStem: 0 21G<298 417.828> 256 115<115 347 486 718>
LayerCount: 2
Fore
SplineSet
535 627 m 1
 486 371 l 1
 741 371 l 1
 718 256 l 1
 463 256 l 1
 414 0 l 1
 298 0 l 1
 347 256 l 1
 92 256 l 1
 115 371 l 1
 370 371 l 1
 419 627 l 1
 535 627 l 1
EndSplineSet
Validated: 1
EndChar

StartChar: comma
Encoding: 44 44 13
Width: 380
Flags: W
HStem: -142 331
VStem: -38 289
LayerCount: 2
Fore
SplineSet
75 189 m 1
 251 189 l 1
 222 40 l 1
 66 -142 l 1
 -38 -142 l 1
 46 40 l 1
 75 189 l 1
EndSplineSet
Validated: 1
EndChar

StartChar: hyphen
Encoding: 45 45 14
Width: 415
Flags: W
HStem: 217 142<60 340>
LayerCount: 2
Fore
SplineSet
60 359 m 1
 367 359 l 1
 340 217 l 1
 33 217 l 1
 60 359 l 1
EndSplineSet
Validated: 1
AlternateSubs2: "sous-table 'aalt' Activer toutes les variantes dans Latin lookup 1" endash emdash minus
EndChar

StartChar: period
Encoding: 46 46 15
Width: 380
Flags: W
HStem: 0 189<75 215>
VStem: 39 212
LayerCount: 2
Fore
SplineSet
75 189 m 1
 251 189 l 1
 215 0 l 1
 39 0 l 1
 75 189 l 1
EndSplineSet
Validated: 1
Substitution2: "sous-table 'aalt' Activer toutes les variantes dans Latin lookup 0" ellipsis
EndChar

StartChar: slash
Encoding: 47 47 16
Width: 365
Flags: W
HStem: 709 20G<324.854 443>
LayerCount: 2
Fore
SplineSet
335 729 m 1
 443 729 l 1
 26 -93 l 1
 -82 -93 l 1
 335 729 l 1
EndSplineSet
Validated: 1
Substitution2: "sous-table 'dnom' D+AOkA-nominateurs dans Latin lookup 3" fraction
Substitution2: "sous-table 'numr' Num+AOkA-rateurs dans Latin lookup 2" fraction
Substitution2: "sous-table 'aalt' Activer toutes les variantes dans Latin lookup 0" fraction
EndChar

StartChar: zero
Encoding: 48 48 17
Width: 696
Flags: HW
HStem: -14 128<252.692 370.075> 614 128<340.877 457.98>
LayerCount: 2
Fore
SplineSet
467 365 m 0
 478.571428571 423.5 484.357142857 471.255102041 484.357142857 507.733965015 c 0
 484.357142857 528 482.571428571 544.785714286 479 558 c 0
 469 595 445 614 404 614 c 0
 324 614 279 548 243 365 c 1
 231.886144063 306.572871643 226.217154137 259.94295298 226.217154137 223.509358918 c 0
 226.217154137 145.205475786 252.403099286 114 307 114 c 0
 387 114 432 181 467 365 c 0
655 364 m 0
 608 123 474 -14 282 -14 c 0
 125.459009316 -14 42.0397361366 77.0697754367 42.0397361366 241.324098031 c 0
 42.0397361366 278.530298974 46.3199300111 319.491556014 55 364 c 0
 102 605 237 742 429 742 c 0
 585.309430235 742 668.050533218 651.19945195 668.050533218 487.404332269 c 0
 668.050533218 450.004534078 663.736754057 408.799100591 655 364 c 0
EndSplineSet
Validated: 524289
Position2: "sous-table 'cpsp' Chasses pour composition en capitales dans Latin lookup 1" dx=5 dy=0 dh=10 dv=0
EndChar

StartChar: one
Encoding: 49 49 18
Width: 696
Flags: W
HStem: 0 130<79 245 423 564> 709 20G<259.429 539>
LayerCount: 2
Fore
SplineSet
79 130 m 1
 245 130 l 1
 336 601 l 1
 160 566 l 1
 184 694 l 1
 360 729 l 1
 539 729 l 1
 423 130 l 1
 589 130 l 1
 564 0 l 1
 54 0 l 1
 79 130 l 1
EndSplineSet
Validated: 1
Position2: "sous-table 'cpsp' Chasses pour composition en capitales dans Latin lookup 1" dx=5 dy=0 dh=10 dv=0
EndChar

StartChar: two
Encoding: 50 50 19
Width: 696
Flags: HW
HStem: 0 138<251 546> 614 128<239.506 418.08>
LayerCount: 2
Fore
SplineSet
251 138 m 1
 572 138 l 1
 546 0 l 1
 16 0 l 1
 42 138 l 1
 354 373 l 2
 410 416 440 456 449 500 c 0
 450.599434192 508.366271156 451.381458646 516.39952353 451.381458646 524.055059922 c 0
 451.381458646 578.622760742 411.649461649 614 345 614 c 0
 286 614 212 588 122 539 c 1
 153 699 l 1
 244 727 330 742 409 742 c 0
 562.650441838 742 646.920924658 679.558036883 646.920924658 571.595160425 c 0
 646.920924658 556.593838706 645.293931831 540.713654104 642 524 c 0
 635 484 617 447 590 412 c 1
 562 378 510 332 434 275 c 2
 251 138 l 1
EndSplineSet
Validated: 524289
Position2: "sous-table 'cpsp' Chasses pour composition en capitales dans Latin lookup 1" dx=5 dy=0 dh=10 dv=0
EndChar

StartChar: three
Encoding: 51 51 20
Width: 696
Flags: HW
HStem: -14 128<106.397 343.82> 315 121<213 373.495> 614 128<210.215 425.154>
LayerCount: 2
Fore
SplineSet
479 393 m 1
 557.537669572 372.112321922 597.681370742 323.999829887 597.681370742 252.16198943 c 0
 597.681370742 238.018707201 596.125364661 222.955809059 593 207 c 0
 565 63 437 -14 225 -14 c 0
 150 -14 76 -2 8 22 c 1
 36 167 l 1
 100 132 166 114 233 114 c 0
 333 114 394 150 406 214 c 0
 407.408333333 221.258333333 408.1125 228.129375 408.1125 234.611853588 c 0
 408.1125 287.967638889 360.408333333 315 265 315 c 2
 190 315 l 1
 213 436 l 1
 292 436 l 2
 387 436 438 465 450 526 c 0
 451.196481773 532.091179934 451.789575114 537.898412371 451.789575114 543.411402219 c 0
 451.789575114 588.582751833 411.972001169 614 338 614 c 0
 278 614 212 600 146 573 c 1
 173 711 l 1
 252 732 326 742 397 742 c 0
 563.920560748 742 647.380841121 693.63983754 647.380841121 596.230631802 c 0
 647.380841121 583.345816228 645.920560748 569.602803738 643 555 c 0
 627 470 571 416 479 393 c 1
EndSplineSet
Validated: 524289
Position2: "sous-table 'cpsp' Chasses pour composition en capitales dans Latin lookup 1" dx=5 dy=0 dh=10 dv=0
EndChar

StartChar: four
Encoding: 52 52 21
Width: 696
Flags: W
HStem: 0 21G<305 486.759> 133 136<151 330 535 612> 709 20G<397.713 624>
LayerCount: 2
Fore
SplineSet
416 574 m 1
 151 269 l 1
 357 269 l 1
 416 574 l 1
415 729 m 1
 624 729 l 1
 535 269 l 1
 639 269 l 1
 612 133 l 1
 508 133 l 1
 483 0 l 1
 305 0 l 1
 330 133 l 1
 7 133 l 1
 39 294 l 1
 415 729 l 1
EndSplineSet
Validated: 1
Position2: "sous-table 'cpsp' Chasses pour composition en capitales dans Latin lookup 1" dx=5 dy=0 dh=10 dv=0
EndChar

StartChar: five
Encoding: 53 53 22
Width: 696
Flags: HW
HStem: -14 128<140.682 343.328> 362 128<287.005 383.874> 591 138<307 624>
LayerCount: 2
Fore
SplineSet
184 729 m 1
 651 729 l 1
 624 591 l 1
 307 591 l 1
 285 478 l 1
 315 486 345 490 376 490 c 0
 530.770899518 490 615.266871732 420.472678306 615.266871732 298.871135491 c 0
 615.266871732 279.834636971 613.196101201 259.521938417 609 238 c 0
 593 159 555 98 492 53 c 0
 429 8 350 -14 255 -14 c 0
 172 -14 94 2 20 34 c 1
 49 182 l 1
 120 137 187 114 250 114 c 0
 341 114 406 162 421 238 c 0
 422.847549408 247.360917 423.754506787 256.297050503 423.754506787 264.771028676 c 0
 423.754506787 325.09611593 377.791533592 362 298 362 c 0
 243 362 181 348 105 319 c 1
 184 729 l 1
EndSplineSet
Validated: 524289
Position2: "sous-table 'cpsp' Chasses pour composition en capitales dans Latin lookup 1" dx=5 dy=0 dh=10 dv=0
EndChar

StartChar: six
Encoding: 54 54 23
Width: 696
Flags: HW
HStem: -14 118<259.585 388.024> 360 121<311.574 427.535> 618 123<383.281 594.258>
LayerCount: 2
Fore
SplineSet
368 360 m 0
 303 360 261 317 245 232 c 0
 241.608056691 215.040283455 239.927971564 199.752614438 239.927971564 186.144936211 c 0
 239.927971564 131.552615561 266.969195005 104 319 104 c 0
 386 104 426 147 443 232 c 0
 446.176353389 248.874377377 447.77626602 264.093491959 447.77626602 277.649519787 c 0
 447.77626602 332.378225649 421.699020185 360 368 360 c 0
669 710 m 1
 642 575 l 1
 587 604 536 618 484 618 c 0
 372 618 297 556 262 433 c 1
 311 465 364 481 423 481 c 0
 498 481 554 459 590 415 c 1
 617.769230769 383.576923077 631.653846154 344.677514793 631.653846154 298.301775148 c 0
 631.653846154 281.215976331 629.769230769 263.115384615 626 244 c 0
 611 166 573 103 512 56 c 0
 452 9 380 -14 294 -14 c 0
 138.740285018 -14 55.012480795 75.7523031212 55.012480795 238.071786754 c 0
 55.012480795 273.346266308 58.9665988052 312.04779376 67 354 c 0
 91 475 139 569 214 638 c 0
 288 707 378 741 484 741 c 0
 551 741 612 731 669 710 c 1
EndSplineSet
Validated: 524289
Position2: "sous-table 'cpsp' Chasses pour composition en capitales dans Latin lookup 1" dx=5 dy=0 dh=10 dv=0
EndChar

StartChar: seven
Encoding: 55 55 24
Width: 696
Flags: W
HStem: 0 21G<86 282.002> 591 138<145 469>
LayerCount: 2
Fore
SplineSet
145 729 m 1
 694 729 l 1
 674 623 l 1
 269 0 l 1
 86 0 l 1
 469 591 l 1
 118 591 l 1
 145 729 l 1
EndSplineSet
Validated: 1
Position2: "sous-table 'cpsp' Chasses pour composition en capitales dans Latin lookup 1" dx=5 dy=0 dh=10 dv=0
EndChar

StartChar: eight
Encoding: 56 56 25
Width: 696
Flags: HW
HStem: -14 118<237.415 380.827> 326 118<308.893 415.857> 624 118<336.321 468.461>
LayerCount: 2
Fore
SplineSet
348 326 m 0
 277 326 231 287 217 215 c 0
 214.803069429 203.70149992 213.714264761 193.215625502 213.714264761 183.565562229 c 0
 213.714264761 131.720334029 245.141576468 104 305 104 c 0
 374 104 420 143 434 215 c 0
 436.204783729 226.338887751 437.293505172 236.859329826 437.293505172 246.537891214 c 0
 437.293505172 298.316541082 406.133565905 326 348 326 c 0
223 388 m 1
 153.08023597 410.74498348 117.22363398 453.360144817 117.22363398 515.845484011 c 0
 117.22363398 527.534925367 118.478508729 539.91976403 121 553 c 0
 145 677 252 742 429 742 c 0
 584.775040863 742 666.129336025 691.080542416 666.129336025 593.401756926 c 0
 666.129336025 580.719690311 664.757948973 567.249403029 662 553 c 0
 646 470 589 415 496 388 c 1
 574.892857143 365.339285714 614.339285714 317.320153061 614.339285714 247.489761753 c 0
 614.339285714 234.117984694 612.892857143 219.946428571 610 205 c 0
 582 61 471 -14 282 -14 c 0
 116.718013253 -14 31.7362473847 43.357300628 31.7362473847 154.059149037 c 0
 31.7362473847 169.944896536 33.4862202589 186.92913276 37 205 c 0
 55 298 119 361 223 388 c 1
295 534 m 0
 293.392438676 525.669909502 292.596461067 517.852398192 292.596461067 510.575557066 c 0
 292.596461067 468.059428439 319.768516314 444 371 444 c 0
 430 444 469 477 480 534 c 0
 481.872372271 543.205830331 482.795263021 551.729981623 482.795263021 559.56105783 c 0
 482.795263021 601.919207319 455.794169669 624 406 624 c 0
 346 624 306 591 295 534 c 0
EndSplineSet
Validated: 524289
Position2: "sous-table 'cpsp' Chasses pour composition en capitales dans Latin lookup 1" dx=5 dy=0 dh=10 dv=0
EndChar

StartChar: nine
Encoding: 57 57 26
Width: 696
Flags: HW
HStem: -14 123<110.827 325.11> 245 122<280.929 393.973> 623 118<322.591 448.939>
LayerCount: 2
Fore
SplineSet
40 16 m 1
 66 151 l 1
 120 123 172 109 225 109 c 0
 337 109 412 171 447 294 c 1
 396 262 344 245 285 245 c 0
 210 245 154 267 117 310 c 0
 90.0136555601 341.362508403 76.3264854487 380.704521403 76.3264854487 427.250047435 c 0
 76.3264854487 444.521407273 78.2110492475 462.784606898 82 482 c 0
 98 561 135 623 195 670 c 0
 255 717 329 741 414 741 c 0
 570.209354733 741 653.510935196 652.039137816 653.510935196 491.075728814 c 0
 653.510935196 455.226269779 649.37889886 415.805244176 641 373 c 0
 617 252 568 158 494 89 c 0
 419 20 330 -14 224 -14 c 0
 156 -14 96 -4 40 16 c 1
340 367 m 0
 405 367 447 410 464 495 c 0
 467.129415581 511.625020272 468.690382267 526.6433368 468.690382267 540.047467373 c 0
 468.690382267 595.17565015 442.286749203 623 390 623 c 0
 325 623 282 580 266 495 c 0
 262.608056691 478.040283455 260.927971564 462.752614438 260.927971564 449.144936211 c 0
 260.927971564 394.552615561 287.969195005 367 340 367 c 0
EndSplineSet
Validated: 524289
Position2: "sous-table 'cpsp' Chasses pour composition en capitales dans Latin lookup 1" dx=5 dy=0 dh=10 dv=0
EndChar

StartChar: colon
Encoding: 58 58 27
Width: 400
Flags: W
HStem: 0 189<85 225> 358 189<155 294>
VStem: 49 282
LayerCount: 2
Fore
SplineSet
155 547 m 1
 331 547 l 1
 294 358 l 1
 118 358 l 1
 155 547 l 1
85 189 m 1
 261 189 l 1
 225 0 l 1
 49 0 l 1
 85 189 l 1
EndSplineSet
Validated: 1
EndChar

StartChar: semicolon
Encoding: 59 59 28
Width: 400
Flags: W
HStem: 358 189<155 294>
LayerCount: 2
Fore
SplineSet
85 189 m 1
 261 189 l 1
 232 40 l 1
 76 -142 l 1
 -28 -142 l 1
 56 40 l 1
 85 189 l 1
155 547 m 1
 331 547 l 1
 294 358 l 1
 118 358 l 1
 155 547 l 1
EndSplineSet
Validated: 1
EndChar

StartChar: less
Encoding: 60 60 29
Width: 838
Flags: W
LayerCount: 2
Fore
SplineSet
761 475 m 1
 258 313 l 1
 698 152 l 1
 674 30 l 1
 92 256 l 1
 115 371 l 1
 785 597 l 1
 761 475 l 1
EndSplineSet
Validated: 1
EndChar

StartChar: equal
Encoding: 61 61 30
Width: 838
Flags: W
HStem: 144 116<93 696> 367 115<136 740>
LayerCount: 2
Fore
SplineSet
136 482 m 1
 762 482 l 1
 740 367 l 1
 114 367 l 1
 136 482 l 1
93 260 m 1
 719 260 l 1
 696 144 l 1
 70 144 l 1
 93 260 l 1
EndSplineSet
Validated: 1
EndChar

StartChar: greater
Encoding: 62 62 31
Width: 838
Flags: W
LayerCount: 2
Fore
SplineSet
135 475 m 1
 159 597 l 1
 741 371 l 1
 718 256 l 1
 48 30 l 1
 72 152 l 1
 574 313 l 1
 135 475 l 1
EndSplineSet
Validated: 1
EndChar

StartChar: question
Encoding: 63 63 32
Width: 580
Flags: HW
HStem: 0 174<140 283> 549 21G<115.922 150> 614 128<203.796 367.661>
LayerCount: 2
Fore
SplineSet
330 246 m 1
 154 246 l 1
 159 270 l 2
 164 297 174 320 189 341 c 0
 204 362 231 388 272 420 c 2
 309 448 l 1
 352 483 375 512 381 541 c 0
 381.923421871 546.194248024 382.380519081 551.161995498 382.380519081 555.886325429 c 0
 382.380519081 592.090893368 355.536046904 614 306 614 c 0
 253 614 188 592 112 549 c 1
 142 702 l 1
 226 730 292 742 352 742 c 0
 491.007159889 742 563.517734456 691.554314583 563.517734456 596.008711965 c 0
 563.517734456 582.266772644 562.017787187 567.591900464 559 552 c 0
 546 488 514 442 442 385 c 2
 406 357 l 2
 354 317 340 297 335 268 c 1
 330 246 l 1
140 174 m 1
 316 174 l 1
 283 0 l 1
 107 0 l 1
 140 174 l 1
EndSplineSet
Validated: 524289
Position2: "sous-table 'cpsp' Chasses pour composition en capitales dans Latin lookup 1" dx=5 dy=0 dh=10 dv=0
EndChar

StartChar: at
Encoding: 64 64 33
Width: 1000
Flags: HW
HStem: -174 92<307.9 548.114> 43 91<410.146 509.223 671 715.334> 391 91<452.338 566.218> 612 91<440.036 688.76>
LayerCount: 2
Fore
SplineSet
394 263 m 0
 390.948832978 247.74416489 389.461391223 233.615666601 389.461391223 220.739332699 c 0
 389.461391223 166.093521481 416.251178393 134 464 134 c 0
 521 134 568 184 584 263 c 0
 586.73807172 277.42051106 588.076696581 290.84141722 588.076696581 303.147156685 c 0
 588.076696581 358.256047236 561.230251234 391 513 391 c 0
 456 391 409 342 394 263 c 0
565 116 m 1
 536 71 485 43 428 43 c 0
 372 43 330 63 303 104 c 0
 284.456613727 132.158475451 275.346894792 165.505467938 275.346894792 204.688874265 c 0
 275.346894792 222.558260523 277.24150501 241.641485471 281 262 c 0
 294 327 321 380 364 421 c 0
 407 462 457 482 513 482 c 0
 570 482 611 455 622 408 c 1
 634 472 l 1
 736 472 l 1
 671 134 l 1
 754 146 816 215 836 318 c 0
 840.126749639 338.633748195 842.238107256 358.461339581 842.238107256 377.450785626 c 0
 842.238107256 418.281493501 832.476731602 455.237229436 812 488 c 1
 765 567 677 612 569 612 c 0
 494 612 421 592 354 553 c 0
 246 489 168 384 145 265 c 0
 140.121621622 240.094594595 137.682432432 215.848429511 137.682432432 192.464622036 c 0
 137.682432432 124.774653031 158.121621622 64.3108108108 199 16 c 1
 251 -48 331 -82 427 -82 c 0
 508 -82 602 -49 671 3 c 1
 708 -76 l 1
 614 -140 509 -174 410 -174 c 0
 290 -174 188 -130 121 -49 c 0
 70.457055313 11.2055664655 44.7749489896 87.4325620986 44.7749489896 173.110843222 c 0
 44.7749489896 202.703311606 47.8386863601 233.423267596 54 265 c 0
 77 384 144 495 242 576 c 0
 339 657 463 703 580 703 c 0
 725 703 837 646 897 541 c 0
 922.264033872 496.086162006 934.723240124 445.262403573 934.723240124 390.948074263 c 0
 934.723240124 367.867167915 932.47331922 344.155923789 928 320 c 1
 893 144 762 41 569 41 c 2
 550 41 l 1
 565 116 l 1
EndSplineSet
Validated: 524289
EndChar

StartChar: A
Encoding: 65 65 34
Width: 774
Flags: W
HStem: 0 21G<-58 141.677 513.842 706> 133 135<276 476> 709 20G<341.724 580.539>
LayerCount: 2
Fore
SplineSet
496 133 m 1
 202 133 l 1
 131 0 l 1
 -58 0 l 1
 353 729 l 1
 577 729 l 1
 706 0 l 1
 517 0 l 1
 496 133 l 1
276 268 m 1
 476 268 l 1
 432 558 l 1
 276 268 l 1
EndSplineSet
Validated: 1
Position2: "sous-table 'cpsp' Chasses pour composition en capitales dans Latin lookup 1" dx=5 dy=0 dh=10 dv=0
EndChar

StartChar: B
Encoding: 66 66 35
Width: 762
Flags: HW
HStem: 0 128<241 433.003> 319 128<303 466.418> 601 128<333 497.23>
LayerCount: 2
Fore
SplineSet
407 447 m 2
 466 447 502 473 512 524 c 0
 513.397020836 531.124806262 514.091441474 537.76169572 514.091441474 543.907941854 c 0
 514.091441474 581.757074869 487.75757707 601 437 601 c 2
 333 601 l 1
 303 447 l 1
 407 447 l 2
351 128 m 2
 427 128 472 160 484 224 c 0
 485.669020101 232.762355528 486.5062207 240.92502723 486.5062207 248.485324556 c 0
 486.5062207 295.282412071 454.429539363 319 389 319 c 2
 279 319 l 1
 241 128 l 1
 351 128 l 2
577 390 m 1
 639.619643287 371.049318479 673.726262255 322.906731107 673.726262255 255.081348788 c 0
 673.726262255 240.588647106 672.169031853 225.197273915 669 209 c 0
 642 69 534 0 341 0 c 2
 29 0 l 1
 170 729 l 1
 452 729 l 2
 629.089537202 729 708.008023419 684.861077852 708.008023419 583.969484225 c 0
 708.008023419 569.207754511 706.318581442 553.23109595 703 536 c 0
 689 465 645 414 577 390 c 1
EndSplineSet
Validated: 524289
Position2: "sous-table 'cpsp' Chasses pour composition en capitales dans Latin lookup 1" dx=5 dy=0 dh=10 dv=0
EndChar

StartChar: C
Encoding: 67 67 36
Width: 734
Flags: HW
HStem: -14 136<324.057 529.052> 606 136<408.465 630.112>
LayerCount: 2
Fore
SplineSet
614 40 m 1
 538 4 460 -14 379 -14 c 0
 258 -14 167 20 109 87 c 1
 68.0192049199 135.889369569 47.7146248647 197.184468154 47.7146248647 271.256930722 c 0
 47.7146248647 300.211516755 50.8171489783 331.118474112 57 364 c 0
 80 481 133 573 217 640 c 0
 301 708 405 742 526 742 c 0
 607 742 678 724 740 688 c 1
 711 537 l 1
 651 585 589 606 514 606 c 0
 379 606 281 515 251 364 c 0
 246.348242706 339.778780989 244.063636215 317.101355979 244.063636215 296.095668651 c 0
 244.063636215 186.147633749 306.654732229 122 420 122 c 0
 495 122 565 143 644 191 c 1
 614 40 l 1
EndSplineSet
Validated: 524289
Position2: "sous-table 'cpsp' Chasses pour composition en capitales dans Latin lookup 1" dx=5 dy=0 dh=10 dv=0
EndChar

StartChar: D
Encoding: 68 68 37
Width: 830
Flags: HW
HStem: 0 142<244 432.543> 587 142<331 512.57>
LayerCount: 2
Fore
SplineSet
331 587 m 1
 244 142 l 1
 311 142 l 2
 464 142 563 220 591 365 c 0
 595.408127279 387.040636394 597.598142469 407.51011006 597.598142469 426.376811986 c 0
 597.598142469 531.629565157 529.439319716 587 398 587 c 2
 331 587 l 1
170 729 m 1
 368 729 l 2
 479 729 560 721 611 705 c 1
 663 690 703 663 735 625 c 0
 774.430675087 578.400111261 794.330252905 521.006721401 794.330252905 452.082869317 c 0
 794.330252905 424.868071574 791.227729965 395.855571192 785 365 c 0
 764 256 714 169 634 104 c 0
 587 66 535 39 477 23 c 0
 419 8 336 0 227 0 c 2
 29 0 l 1
 170 729 l 1
EndSplineSet
Validated: 524289
Position2: "sous-table 'cpsp' Chasses pour composition en capitales dans Latin lookup 1" dx=5 dy=0 dh=10 dv=0
EndChar

StartChar: E
Encoding: 69 69 38
Width: 683
Flags: W
HStem: 0 142<244 547> 309 142<304 577> 587 142<331 650>
LayerCount: 2
Fore
SplineSet
170 729 m 1
 677 729 l 1
 650 587 l 1
 331 587 l 1
 304 451 l 1
 604 451 l 1
 577 309 l 1
 277 309 l 1
 244 142 l 1
 574 142 l 1
 547 0 l 1
 29 0 l 1
 170 729 l 1
EndSplineSet
Validated: 1
Position2: "sous-table 'cpsp' Chasses pour composition en capitales dans Latin lookup 1" dx=5 dy=0 dh=10 dv=0
EndChar

StartChar: F
Encoding: 70 70 39
Width: 683
Flags: W
HStem: 0 21G<29 220.883> 309 142<304 577> 587 142<331 650>
LayerCount: 2
Fore
SplineSet
170 729 m 1
 677 729 l 1
 650 587 l 1
 331 587 l 1
 304 451 l 1
 604 451 l 1
 577 309 l 1
 277 309 l 1
 217 0 l 1
 29 0 l 1
 170 729 l 1
EndSplineSet
Validated: 1
Position2: "sous-table 'cpsp' Chasses pour composition en capitales dans Latin lookup 1" dx=5 dy=0 dh=10 dv=0
EndChar

StartChar: G
Encoding: 71 71 40
Width: 821
Flags: HW
HStem: -14 136<325.643 529.569> 279 126<469 560> 606 136<415.93 664.256>
LayerCount: 2
Fore
SplineSet
694 54 m 1
 592 9 486 -14 379 -14 c 0
 258 -14 167 20 109 87 c 1
 68.0192049199 135.889369569 47.7146248647 197.184468154 47.7146248647 271.256930722 c 0
 47.7146248647 300.211516755 50.8171489783 331.118474112 57 364 c 0
 80 481 134 574 219 641 c 0
 305 708 411 742 536 742 c 0
 633 742 718 724 790 688 c 1
 761 537 l 1
 689 584 613 606 532 606 c 0
 383 606 281 519 251 364 c 0
 246.154484706 338.964837647 243.761222452 315.703645579 243.761222452 294.296482717 c 0
 243.761222452 183.165649746 308.258473411 122 429 122 c 0
 469 122 503 126 532 137 c 1
 560 279 l 1
 445 279 l 1
 469 405 l 1
 762 405 l 1
 694 54 l 1
EndSplineSet
Validated: 524289
Position2: "sous-table 'cpsp' Chasses pour composition en capitales dans Latin lookup 1" dx=5 dy=0 dh=10 dv=0
EndChar

StartChar: H
Encoding: 72 72 41
Width: 837
Flags: W
HStem: 0 21G<29 220.883 494 685.868> 309 142<304 554> 709 20G<166.132 358 631.115 823>
LayerCount: 2
Fore
SplineSet
170 729 m 1
 358 729 l 1
 304 451 l 1
 581 451 l 1
 635 729 l 1
 823 729 l 1
 682 0 l 1
 494 0 l 1
 554 309 l 1
 277 309 l 1
 217 0 l 1
 29 0 l 1
 170 729 l 1
EndSplineSet
Validated: 1
Position2: "sous-table 'cpsp' Chasses pour composition en capitales dans Latin lookup 1" dx=5 dy=0 dh=10 dv=0
EndChar

StartChar: I
Encoding: 73 73 42
Width: 372
Flags: W
HStem: 0 21G<29 220.868> 709 20G<166.132 358>
VStem: 29 329
LayerCount: 2
Fore
SplineSet
170 729 m 1
 358 729 l 1
 217 0 l 1
 29 0 l 1
 170 729 l 1
EndSplineSet
Validated: 1
Position2: "sous-table 'cpsp' Chasses pour composition en capitales dans Latin lookup 1" dx=5 dy=0 dh=10 dv=0
EndChar

StartChar: J
Encoding: 74 74 43
Width: 372
Flags: W
HStem: -200 142<-131 -24.3826> 709 20G<166.109 358>
LayerCount: 2
Fore
SplineSet
170 729 m 1
 358 729 l 1
 230 71 l 2
 195 -110 80 -200 -120 -200 c 2
 -158 -200 l 1
 -131 -58 l 1
 -102 -58 l 2
 -23 -58 26 -14 42 71 c 2
 170 729 l 1
EndSplineSet
Validated: 1
Position2: "sous-table 'cpsp' Chasses pour composition en capitales dans Latin lookup 1" dx=5 dy=0 dh=10 dv=0
EndChar

StartChar: K
Encoding: 75 75 44
Width: 775
Flags: W
HStem: 0 21G<29 220.833 490.624 742> 709 20G<166.132 358 604.714 847>
LayerCount: 2
Fore
SplineSet
170 729 m 1
 358 729 l 1
 306 463 l 1
 629 729 l 1
 847 729 l 1
 429 384 l 1
 742 0 l 1
 507 0 l 1
 272 287 l 1
 217 0 l 1
 29 0 l 1
 170 729 l 1
EndSplineSet
Validated: 1
Position2: "sous-table 'cpsp' Chasses pour composition en capitales dans Latin lookup 1" dx=5 dy=0 dh=10 dv=0
EndChar

StartChar: L
Encoding: 76 76 45
Width: 637
Flags: W
HStem: 0 142<244 547> 709 20G<166.132 358>
LayerCount: 2
Fore
SplineSet
170 729 m 1
 358 729 l 1
 244 142 l 1
 574 142 l 1
 547 0 l 1
 29 0 l 1
 170 729 l 1
EndSplineSet
Validated: 1
Position2: "sous-table 'cpsp' Chasses pour composition en capitales dans Latin lookup 1" dx=5 dy=0 dh=10 dv=0
EndChar

StartChar: M
Encoding: 77 77 46
Width: 995
Flags: W
HStem: 0 21G<29 210.865 662 843.868> 709 20G<166.132 413.615 729.538 981>
LayerCount: 2
Fore
SplineSet
170 729 m 1
 409 729 l 1
 499 339 l 1
 742 729 l 1
 981 729 l 1
 840 0 l 1
 662 0 l 1
 765 533 l 1
 521 140 l 1
 402 140 l 1
 310 533 l 1
 207 0 l 1
 29 0 l 1
 170 729 l 1
EndSplineSet
Validated: 1
Position2: "sous-table 'cpsp' Chasses pour composition en capitales dans Latin lookup 1" dx=5 dy=0 dh=10 dv=0
EndChar

StartChar: N
Encoding: 78 78 47
Width: 837
Flags: W
HStem: 0 21G<29 210.88 465.28 685.868> 709 20G<166.132 386.72 641.12 823>
LayerCount: 2
Fore
SplineSet
170 729 m 1
 380 729 l 1
 548 229 l 1
 645 729 l 1
 823 729 l 1
 682 0 l 1
 472 0 l 1
 304 500 l 1
 207 0 l 1
 29 0 l 1
 170 729 l 1
EndSplineSet
Validated: 1
Position2: "sous-table 'cpsp' Chasses pour composition en capitales dans Latin lookup 1" dx=5 dy=0 dh=10 dv=0
EndChar

StartChar: O
Encoding: 79 79 48
Width: 850
Flags: HW
HStem: -14 136<305.293 473.531> 606 136<391.034 559.29>
LayerCount: 2
Fore
SplineSet
479 606 m 0
 364 606 281 517 251 364 c 0
 245.470498461 334.827112571 242.740408123 307.981008477 242.740408123 283.634989874 c 0
 242.740408123 180.295983975 291.927333689 122 385 122 c 0
 500 122 584 211 613 364 c 0
 618.788085471 393.519235904 621.635445676 420.656112098 621.635445676 445.231080384 c 0
 621.635445676 548.029671492 571.812339026 606 479 606 c 0
506 742 m 0
 623 742 708 708 761 641 c 0
 798.722455762 594.196212296 817.413236942 535.192633193 817.413236942 463.648369291 c 0
 817.413236942 432.776441757 813.933028101 399.569448521 807 364 c 0
 784 246 733 153 653 86 c 0
 574 19 476 -14 359 -14 c 0
 242 -14 157 19 103 86 c 0
 65.2775442382 132.803787704 46.5867630578 192.295358463 46.5867630578 264.133818875 c 0
 46.5867630578 295.132694578 50.0669718985 328.430551479 57 364 c 0
 80 482 131 574 211 641 c 0
 291 708 389 742 506 742 c 0
EndSplineSet
Validated: 524289
Position2: "sous-table 'cpsp' Chasses pour composition en capitales dans Latin lookup 1" dx=5 dy=0 dh=10 dv=0
EndChar

StartChar: P
Encoding: 80 80 49
Width: 733
Flags: HW
HStem: 0 21G<29 220.874> 253 136<292 471.797> 593 136<332 507.361>
LayerCount: 2
Fore
SplineSet
170 729 m 1
 482 729 l 2
 643.465643837 729 729.517284465 663.488845697 729.517284465 545.763583864 c 0
 729.517284465 528.604588455 727.689169344 510.336335874 724 491 c 0
 694 338 575 253 390 253 c 2
 266 253 l 1
 217 0 l 1
 29 0 l 1
 170 729 l 1
332 593 m 1
 292 389 l 1
 396 389 l 2
 468 389 517 426 530 491 c 0
 531.788614222 499.943071111 532.668596728 508.356107053 532.668596728 516.215667564 c 0
 532.668596728 565.48093888 498.093828924 593 436 593 c 2
 332 593 l 1
EndSplineSet
Validated: 524289
Position2: "sous-table 'cpsp' Chasses pour composition en capitales dans Latin lookup 1" dx=5 dy=0 dh=10 dv=0
EndChar

StartChar: Q
Encoding: 81 81 50
Width: 850
Flags: HW
HStem: -13 135<303.048 379> 606 136<391.034 559.49>
LayerCount: 2
Fore
SplineSet
379 -13 m 1
 364 -13 l 2
 244 -13 157 20 103 86 c 0
 65.2775442382 132.803787704 46.5867630578 191.807366807 46.5867630578 263.69252411 c 0
 46.5867630578 294.711549899 50.0669718985 328.129115475 57 364 c 0
 80 482 131 574 211 641 c 0
 291 708 389 742 506 742 c 0
 624 742 709 709 762 642 c 0
 798.960526316 595.973684211 817.440789474 536.816655125 817.440789474 464.868058846 c 0
 817.440789474 433.645083102 813.960526316 400.013157895 807 364 c 0
 775 200 680 78 536 18 c 1
 651 -146 l 1
 472 -146 l 1
 379 -13 l 1
479 606 m 0
 364 606 281 517 251 364 c 0
 245.103158181 333.336422541 242.181317745 305.377391794 242.181317745 280.244418495 c 0
 242.181317745 177.514169055 290.997683094 122 385 122 c 0
 500 122 584 211 613 364 c 0
 618.788085471 393.519235904 621.635445676 420.656112098 621.635445676 445.231080384 c 0
 621.635445676 548.029671492 571.812339026 606 479 606 c 0
EndSplineSet
Validated: 524289
Position2: "sous-table 'cpsp' Chasses pour composition en capitales dans Latin lookup 1" dx=5 dy=0 dh=10 dv=0
EndChar

StartChar: R
Encoding: 82 82 51
Width: 770
Flags: HW
HStem: 0 21G<29 220.841 481.033 687> 276 130<295 391.755> 593 136<332 491.5>
LayerCount: 2
Fore
SplineSet
374 406 m 2
 453 406 490 433 503 500 c 0
 505.105461952 510.851226985 506.18793082 520.626999701 506.18793082 529.391042203 c 0
 506.18793082 574.739852419 477.205269675 593 411 593 c 2
 332 593 l 1
 295 406 l 1
 374 406 l 2
270 276 m 1
 217 0 l 1
 29 0 l 1
 170 729 l 1
 457 729 l 2
 623.619000548 729 701.373440046 682.308450974 701.373440046 579.122304492 c 0
 701.373440046 563.404003946 699.569203048 546.374786061 696 528 c 0
 677 432 618 370 520 341 c 1
 569 329 600 291 625 207 c 2
 687 0 l 1
 487 0 l 1
 433 181 l 2
 411 254 384 276 323 276 c 2
 270 276 l 1
EndSplineSet
Validated: 524289
Position2: "sous-table 'cpsp' Chasses pour composition en capitales dans Latin lookup 1" dx=5 dy=0 dh=10 dv=0
EndChar

StartChar: S
Encoding: 83 83 52
Width: 720
Flags: HW
HStem: -14 136<170.109 399.564> 552 21G<606.5 646.896> 606 136<323.403 561.331>
LayerCount: 2
Fore
SplineSet
673 706 m 1
 643 552 l 1
 570 588 496 606 428 606 c 0
 339 606 292 582 282 530 c 0
 280.951088283 524.755441414 280.400711846 519.889082005 280.400711846 515.355842508 c 0
 280.400711846 485.314279016 304.57131942 469.902176565 368 456 c 2
 445 440 l 2
 575.923065159 412.970722032 632.646409401 365.251137269 632.646409401 276.954334324 c 0
 632.646409401 260.716428738 630.728041524 243.106212809 627 224 c 0
 596 64 487 -14 291 -14 c 0
 199 -14 108 3 22 38 c 1
 53 197 l 1
 136 148 218 122 299 122 c 0
 380 122 432 150 442 201 c 0
 443.082172076 207.087217926 443.670287857 212.735274702 443.670287857 218.001101069 c 0
 443.670287857 251.663105017 419.637193204 269.705430189 347 287 c 2
 277 303 l 2
 159.697769875 330.20051713 103.810374939 381.244440864 103.810374939 467.186651707 c 0
 103.810374939 482.351001956 105.550371687 498.601874598 109 516 c 0
 137 661 249 742 425 742 c 0
 505 742 586 730 673 706 c 1
EndSplineSet
Validated: 524289
Position2: "sous-table 'cpsp' Chasses pour composition en capitales dans Latin lookup 1" dx=5 dy=0 dh=10 dv=0
EndChar

StartChar: T
Encoding: 84 84 53
Width: 682
Flags: W
HStem: 0 21G<184 375.884> 587 142<83 298 486 728>
LayerCount: 2
Fore
SplineSet
83 729 m 1
 755 729 l 1
 728 587 l 1
 486 587 l 1
 372 0 l 1
 184 0 l 1
 298 587 l 1
 56 587 l 1
 83 729 l 1
EndSplineSet
Validated: 1
Position2: "sous-table 'cpsp' Chasses pour composition en capitales dans Latin lookup 1" dx=5 dy=0 dh=10 dv=0
EndChar

StartChar: U
Encoding: 85 85 54
Width: 812
Flags: HW
HStem: -14 138<292.377 449.879> 709 20G<166.11 358 606.11 798>
LayerCount: 2
Fore
SplineSet
170 729 m 1
 358 729 l 1
 273 292 l 2
 267.923572531 265.514291468 265.331598575 242.536046718 265.331598575 222.807216685 c 0
 265.331598575 153.149742362 297.643567161 124 367 124 c 0
 456 124 502 172 525 292 c 2
 610 729 l 1
 798 729 l 1
 713 292 l 2
 673 85 552 -14 340 -14 c 0
 162.335907972 -14 75.2695446261 55.5284894541 75.2695446261 199.882516368 c 0
 75.2695446261 227.780818872 78.5215267978 258.473901179 85 292 c 2
 170 729 l 1
EndSplineSet
Validated: 524289
Position2: "sous-table 'cpsp' Chasses pour composition en capitales dans Latin lookup 1" dx=5 dy=0 dh=10 dv=0
EndChar

StartChar: V
Encoding: 86 86 55
Width: 774
Flags: W
HStem: 0 21G<208.461 447.276> 709 20G<83 275.309 646.959 847>
LayerCount: 2
Fore
SplineSet
83 729 m 1
 272 729 l 1
 361 191 l 1
 658 729 l 1
 847 729 l 1
 436 0 l 1
 212 0 l 1
 83 729 l 1
EndSplineSet
Validated: 1
Position2: "sous-table 'cpsp' Chasses pour composition en capitales dans Latin lookup 1" dx=5 dy=0 dh=10 dv=0
EndChar

StartChar: W
Encoding: 87 87 56
Width: 1103
Flags: W
HStem: 0 21G<139.122 365.592 619.097 845.587> 709 20G<108 288.868 530.396 720.83 962.358 1150>
VStem: 108 180<569.531 729>
LayerCount: 2
Fore
SplineSet
108 729 m 1
 288 729 l 1
 311 199 l 1
 539 729 l 1
 720 729 l 1
 742 199 l 1
 971 729 l 1
 1150 729 l 1
 837 0 l 1
 620 0 l 1
 595 554 l 1
 357 0 l 1
 140 0 l 1
 108 729 l 1
EndSplineSet
Validated: 1
Position2: "sous-table 'cpsp' Chasses pour composition en capitales dans Latin lookup 1" dx=5 dy=0 dh=10 dv=0
EndChar

StartChar: X
Encoding: 88 88 57
Width: 771
Flags: W
HStem: 0 21G<-44 170.43 482.201 688> 709 20G<107 312.787 604.638 819>
LayerCount: 2
Fore
SplineSet
507 372 m 1
 688 0 l 1
 492 0 l 1
 370 249 l 1
 153 0 l 1
 -44 0 l 1
 281 372 l 1
 107 729 l 1
 303 729 l 1
 418 494 l 1
 622 729 l 1
 819 729 l 1
 507 372 l 1
EndSplineSet
Validated: 1
Position2: "sous-table 'cpsp' Chasses pour composition en capitales dans Latin lookup 1" dx=5 dy=0 dh=10 dv=0
EndChar

StartChar: Y
Encoding: 89 89 58
Width: 724
Flags: W
HStem: 0 21G<205 396.844> 709 20G<68 282.923 589.385 812>
LayerCount: 2
Fore
SplineSet
68 729 m 1
 274 729 l 1
 390 469 l 1
 606 729 l 1
 812 729 l 1
 452 307 l 1
 393 0 l 1
 205 0 l 1
 264 307 l 1
 68 729 l 1
EndSplineSet
Validated: 1
Position2: "sous-table 'cpsp' Chasses pour composition en capitales dans Latin lookup 1" dx=5 dy=0 dh=10 dv=0
EndChar

StartChar: Z
Encoding: 90 90 59
Width: 725
Flags: W
HStem: 0 142<242 617> 587 142<134 487>
LayerCount: 2
Fore
SplineSet
134 729 m 1
 747 729 l 1
 725 615 l 1
 242 142 l 1
 644 142 l 1
 617 0 l 1
 -18 0 l 1
 4 114 l 1
 487 587 l 1
 107 587 l 1
 134 729 l 1
EndSplineSet
Validated: 1
Position2: "sous-table 'cpsp' Chasses pour composition en capitales dans Latin lookup 1" dx=5 dy=0 dh=10 dv=0
EndChar

StartChar: bracketleft
Encoding: 91 91 60
Width: 457
Flags: W
HStem: -132 110<184 300> 650 110<315 452>
LayerCount: 2
Fore
SplineSet
170 760 m 1
 473 760 l 1
 452 650 l 1
 315 650 l 1
 184 -22 l 1
 321 -22 l 1
 300 -132 l 1
 -3 -132 l 1
 170 760 l 1
EndSplineSet
Validated: 1
EndChar

StartChar: backslash
Encoding: 92 92 61
Width: 365
Flags: W
HStem: 709 20G<78 188.36>
VStem: 78 205
LayerCount: 2
Fore
SplineSet
175 -93 m 1
 78 729 l 1
 186 729 l 1
 283 -93 l 1
 175 -93 l 1
EndSplineSet
Validated: 1
EndChar

StartChar: bracketright
Encoding: 93 93 62
Width: 457
Flags: W
HStem: -132 110<0 137> 650 110<152 268>
LayerCount: 2
Fore
SplineSet
282 -132 m 1
 -21 -132 l 1
 0 -22 l 1
 137 -22 l 1
 268 650 l 1
 131 650 l 1
 152 760 l 1
 455 760 l 1
 282 -132 l 1
EndSplineSet
Validated: 1
EndChar

StartChar: asciicircum
Encoding: 94 94 63
Width: 838
Flags: W
HStem: 457 272
LayerCount: 2
Fore
SplineSet
557 729 m 1
 762 457 l 1
 644 457 l 1
 473 604 l 1
 244 457 l 1
 126 457 l 1
 437 729 l 1
 557 729 l 1
EndSplineSet
Validated: 1
EndChar

StartChar: underscore
Encoding: 95 95 64
Width: 500
Flags: W
HStem: -236 93<-91 391>
LayerCount: 2
Fore
SplineSet
409 -143 m 1
 391 -236 l 1
 -109 -236 l 1
 -91 -143 l 1
 409 -143 l 1
EndSplineSet
Validated: 1
EndChar

StartChar: grave
Encoding: 96 96 65
Width: 500
Flags: W
HStem: 616 184
VStem: 138 240
LayerCount: 2
Fore
SplineSet
276 800 m 1
 378 616 l 1
 282 616 l 1
 138 800 l 1
 276 800 l 1
EndSplineSet
Validated: 1
EndChar

StartChar: a
Encoding: 97 97 66
Width: 675
Flags: HW
HStem: -14 116<139.5 276.774> 0 21G<357 536.846> 246 104<225.259 404> 444 116<164.082 407.738>
LayerCount: 2
Fore
SplineSet
313 246 m 2xb0
 240 246 198 221 189 173 c 0
 188.045423284 167.74982806 187.574930443 162.741698059 187.574930443 157.992598789 c 0
 187.574930443 122.941026713 213.204748656 102 259 102 c 0
 326 102 387 155 400 226 c 1
 404 246 l 1
 313 246 l 2xb0
593 312 m 2
 533 0 l 1
 357 0 l 1x70
 372 81 l 1
 312 14 252 -14 168 -14 c 0
 111 -14 68 2 39 35 c 0
 18.0897583453 59.6442133787 7.21814897259 89.8654446918 7.21814897259 125.663693939 c 0
 7.21814897259 137.801331588 8.46794344809 150.580100275 11 164 c 0
 36 292 133 350 322 350 c 2
 425 350 l 1
 427 364 l 1
 428.227702902 370.138514508 428.845030049 375.903329574 428.845030049 381.301396591 c 0
 428.845030049 424.269051533 389.731939368 444 308 444 c 0
 233 444 166 428 105 399 c 1
 131 532 l 1
 210 551 286 560 362 560 c 0
 526.860638524 560 601.378962447 508.876054528 601.378962447 389.632025447 c 0
 601.378962447 366.385561108 598.546894874 340.550194204 593 312 c 2
EndSplineSet
Validated: 524289
Substitution2: "sous-table Substitution simple lookups10" ordfeminine
Substitution2: "sous-table 'aalt' Activer toutes les variantes dans Latin lookup 0" ordfeminine
EndChar

StartChar: b
Encoding: 98 98 67
Width: 716
Flags: HW
HStem: -14 127<278.959 404.621> 0 21G<21 199.797> 433 127<382.574 518.5> 740 20G<164.132 343>
LayerCount: 2
Fore
SplineSet
333 113 m 0xb0
 408 113 459 169 480 273 c 0
 484.107455909 294.358770728 486.148190548 313.692998171 486.148190548 330.933384642 c 0
 486.148190548 397.639785925 455.59704034 433 396 433 c 0
 321 433 269 377 249 273 c 0
 244.622801494 251.322445492 242.461369892 231.73031866 242.461369892 214.296066573 c 0
 242.461369892 148.087940254 273.632851808 113 333 113 c 0xb0
286 467 m 1
 347 531 409 560 485 560 c 0
 552 560 603 533 636 479 c 0
 657.62546118 443.18282992 668.746827498 400.058463414 668.746827498 349.93553621 c 0
 668.746827498 325.88970201 666.18726941 300.233164402 661 273 c 0
 644 188 609 119 555 66 c 0
 502 13 441 -14 374 -14 c 0xb0
 298 -14 246 15 211 79 c 1
 196 0 l 1
 21 0 l 1x70
 168 760 l 1
 343 760 l 1
 286 467 l 1
EndSplineSet
Validated: 524289
EndChar

StartChar: c
Encoding: 99 99 68
Width: 593
Flags: HW
HStem: -14 125<256.45 439.272> 435 125<313.446 495.968>
LayerCount: 2
Fore
SplineSet
566 530 m 1
 538 387 l 1
 496 420 452 435 401 435 c 0
 304 435 235 376 215 273 c 0
 211.915644416 257.115568745 210.400974978 242.27759492 210.400974978 228.541095232 c 0
 210.400974978 153.205506339 255.95912458 111 338 111 c 0
 393 111 446 127 493 159 c 1
 466 16 l 1
 407 -4 348 -14 292 -14 c 0
 121.551182299 -14 25.9633490492 66.1012533628 25.9633490492 204.28148324 c 0
 25.9633490492 225.806117573 28.2827848707 248.740036478 33 273 c 0
 68 453 206 560 403 560 c 0
 460 560 513 550 566 530 c 1
EndSplineSet
Validated: 524289
EndChar

StartChar: d
Encoding: 100 100 69
Width: 716
Flags: HW
HStem: -14 127<176.5 312.182> 0 21G<393 572.868> 433 127<290.403 414.581> 740 20G<536.109 716>
LayerCount: 2
Fore
SplineSet
483 467 m 1xb0
 540 760 l 1
 716 760 l 1
 569 0 l 1
 393 0 l 1x70
 408 79 l 1
 347 15 286 -14 210 -14 c 0
 143 -14 92 13 59 66 c 0
 37.6666666667 101.333333333 26.5555555556 143.777777778 26.5555555556 193.333333333 c 0
 26.5555555556 218.111111111 29.3333333333 244.666666667 35 273 c 0
 51 357 86 426 140 479 c 1
 193 533 254 560 321 560 c 0
 397 560 448 531 483 467 c 1xb0
299 113 m 0xb0
 374 113 425 169 446 273 c 0
 450.107455909 294.358770728 452.148190548 313.692998171 452.148190548 330.933384642 c 0
 452.148190548 397.639785925 421.59704034 433 362 433 c 0
 287 433 236 377 216 273 c 0
 211.552320276 250.973395654 209.347481247 231.099918375 209.347481247 213.455571493 c 0
 209.347481247 147.791023051 239.884570442 113 299 113 c 0xb0
EndSplineSet
Validated: 524289
EndChar

StartChar: e
Encoding: 101 101 70
Width: 678
Flags: HW
HStem: -14 116<243.343 460.29> 225 108<224 453.636> 444 116<290.422 430.106>
LayerCount: 2
Fore
SplineSet
620 275 m 2
 610 225 l 1
 201 225 l 1
 200.509312072 219.322039696 200.264312555 213.835716351 200.264312555 208.542063307 c 0
 200.264312555 138.318123134 243.378943058 102 328 102 c 0
 401 102 484 124 573 168 c 1
 547 33 l 1
 458 2 373 -14 290 -14 c 0
 120.308140491 -14 25.5558064926 64.6494030114 25.5558064926 202.135400547 c 0
 25.5558064926 224.26072198 28.0096799103 247.909779549 33 273 c 0
 50 362 90 432 154 483 c 0
 218 534 297 560 391 560 c 0
 477 560 541 534 582 482 c 1
 612.043268481 445.518888273 627.247908022 399.827593067 627.247908022 344.926114381 c 0
 627.247908022 323.076220084 624.839629424 299.76751529 620 275 c 2
451 333 m 1
 452.88446429 342.712239032 453.802328223 351.941177885 453.802328223 360.622850003 c 0
 453.802328223 411.831799399 421.867596134 444 368 444 c 0
 300 444 249 405 224 333 c 1
 451 333 l 1
EndSplineSet
Validated: 524289
EndChar

StartChar: f
Encoding: 102 102 71
Width: 435
Flags: W
HStem: 0 21G<43 221.886> 422 125<62 125 324 449> 645 115<350.639 506>
LayerCount: 2
Fore
SplineSet
528 760 m 1
 506 645 l 1
 409 645 l 2
 360 645 340 629 331 585 c 2
 324 547 l 1
 473 547 l 1
 449 422 l 1
 300 422 l 1
 218 0 l 1
 43 0 l 1
 125 422 l 1
 38 422 l 1
 62 547 l 1
 149 547 l 1
 156 585 l 1
 179 704 255 760 394 760 c 2
 528 760 l 1
EndSplineSet
Validated: 1
EndChar

StartChar: g
Encoding: 103 103 72
Width: 716
Flags: HW
HStem: -216 116<98.1988 313.123> 0 127<179.5 315.017> 433 126<292.643 415.283> 527 20G<495.049 675>
LayerCount: 2
Fore
SplineSet
411 93 m 1xd0
 350 29 289 0 213 0 c 0
 146 0 96 26 62 79 c 0
 39.6284631693 114.930044001 28.2869133395 157.294247086 28.2869133395 206.092609254 c 0
 28.2869133395 229.276157124 30.8468057361 253.911954039 36 280 c 0
 52 361 87 428 140 480 c 0
 194 533 254 559 321 559 c 0xe0
 397 559 448 530 483 466 c 1
 499 547 l 1
 675 547 l 1
 579 55 l 2
 545 -121 413 -216 202 -216 c 0
 134 -216 73 -205 13 -184 c 1
 39 -48 l 1
 93 -83 148 -100 207 -100 c 0
 322 -100 382 -52 403 55 c 1
 411 93 l 1xd0
362 433 m 0
 290 433 236 377 217 280 c 0
 212.959179423 259.795897113 210.959387713 241.510361362 210.959387713 225.192877334 c 0
 210.959387713 160.747141539 242.153077165 127 302 127 c 0
 375 127 428 183 447 280 c 0
 450.666606324 298.71899018 452.471162518 315.911099254 452.471162518 331.468526094 c 0
 452.471162518 396.528183238 420.912512545 433 362 433 c 0
EndSplineSet
Validated: 524289
EndChar

StartChar: h
Encoding: 104 104 73
Width: 712
Flags: HW
HStem: 0 21G<21 199.866 395 574.844> 428 132<386.154 549.5> 740 20G<164.132 343>
LayerCount: 2
Fore
SplineSet
635 333 m 2
 571 0 l 1
 395 0 l 1
 405 54 l 1
 444 254 l 2
 453 302 459 335 460 352 c 0
 460.25 356.5 460.375 360.6875 460.375 364.578125 c 0
 460.375 376.25 459.25 385.25 457 392 c 0
 448 415 425 428 396 428 c 0
 323 428 267 369 248 269 c 2
 196 0 l 1
 21 0 l 1
 168 760 l 1
 343 760 l 1
 286 467 l 1
 351 531 414 560 486 560 c 0
 589.875990191 560 642.908355749 507.149390184 642.908355749 406.920022868 c 0
 642.908355749 384.607793942 640.280285704 359.947664974 635 333 c 2
EndSplineSet
Validated: 524289
EndChar

StartChar: i
Encoding: 105 105 74
Width: 343
Flags: W
HStem: 0 21G<21 199.876> 527 20G<123.124 302> 617 143<168 315>
VStem: 21 322
LayerCount: 2
Fore
SplineSet
127 547 m 1
 302 547 l 1
 196 0 l 1
 21 0 l 1
 127 547 l 1
168 760 m 1
 343 760 l 1
 315 617 l 1
 140 617 l 1
 168 760 l 1
EndSplineSet
Validated: 1
EndChar

StartChar: j
Encoding: 106 106 75
Width: 343
Flags: W
HStem: -216 115<-116 -15.7926> 527 20G<123.089 302> 617 143<168 315>
LayerCount: 2
Fore
SplineSet
127 547 m 1
 302 547 l 1
 197 10 l 2
 169 -137 81 -216 -52 -216 c 2
 -138 -216 l 1
 -116 -101 l 1
 -86 -101 l 2
 -19 -101 5 -78 22 10 c 2
 127 547 l 1
168 760 m 1
 343 760 l 1
 315 617 l 1
 140 617 l 1
 168 760 l 1
EndSplineSet
Validated: 1
EndChar

StartChar: k
Encoding: 107 107 76
Width: 665
Flags: W
HStem: 0 21G<21 199.86 394.175 621> 527 20G<479.119 706> 740 20G<164.132 343>
LayerCount: 2
Fore
SplineSet
168 760 m 1
 343 760 l 1
 263 346 l 1
 503 547 l 1
 706 547 l 1
 390 296 l 1
 621 0 l 1
 409 0 l 1
 240 228 l 1
 196 0 l 1
 21 0 l 1
 168 760 l 1
EndSplineSet
Validated: 1
EndChar

StartChar: l
Encoding: 108 108 77
Width: 343
Flags: W
HStem: 0 21G<21 199.868> 740 20G<164.132 343>
VStem: 21 322
LayerCount: 2
Fore
SplineSet
168 760 m 1
 343 760 l 1
 196 0 l 1
 21 0 l 1
 168 760 l 1
EndSplineSet
Validated: 1
EndChar

StartChar: m
Encoding: 109 109 78
Width: 1042
Flags: HW
HStem: 0 21G<20 199.866 372 551.866 724 903.844> 428 132<378.483 507.5 719.811 877.5> 527 20G<122.124 302>
LayerCount: 2
Fore
SplineSet
616 456 m 1xc0
 673 524 742 560 815 560 c 0
 917.652731508 560 971.748279234 506.721978906 971.748279234 405.704300662 c 0
 971.748279234 383.712979583 969.18456629 359.459165895 964 333 c 2
 900 0 l 1
 724 0 l 1
 779 285 l 1
 782 294 783 301 786 318 c 0
 789.75 337.25 791.6875 353.75 791.6875 367.671875 c 0
 791.6875 409.4375 774.25 428 736 428 c 0
 669 428 621 372 600 269 c 1
 548 0 l 1
 372 0 l 1
 427 285 l 2
 434.430021764 322.769277302 438.026347458 352.104423248 438.026347458 373.005437838 c 0
 438.026347458 385.861010112 436.665820638 395.525864166 434 402 c 0
 427 419 411 428 384 428 c 0xc0
 316 428 268 372 248 269 c 2
 196 0 l 1
 20 0 l 1
 126 547 l 1
 302 547 l 1xa0
 286 467 l 1
 341 528 403 560 470 560 c 0
 545 560 598 521 616 456 c 1xc0
EndSplineSet
Validated: 524289
EndChar

StartChar: n
Encoding: 110 110 79
Width: 712
Flags: HW
HStem: 0 21G<21 199.866 395 574.844> 428 132<386.154 549.5> 527 20G<123.124 302>
LayerCount: 2
Fore
SplineSet
635 333 m 2xc0
 571 0 l 1
 395 0 l 1
 405 54 l 1
 444 255 l 2
 453 302 459 335 460 352 c 0
 460.25 356.5 460.375 360.6875 460.375 364.578125 c 0
 460.375 376.25 459.25 385.25 457 392 c 0
 448 415 425 428 396 428 c 0xc0
 323 428 267 369 248 269 c 2
 196 0 l 1
 21 0 l 1
 127 547 l 1
 302 547 l 1xa0
 286 467 l 1
 351 531 414 560 486 560 c 0
 589.875990191 560 642.908355749 507.149390184 642.908355749 406.920022868 c 0
 642.908355749 384.607793942 640.280285704 359.947664974 635 333 c 2xc0
EndSplineSet
Validated: 524289
EndChar

StartChar: o
Encoding: 111 111 80
Width: 687
Flags: HW
HStem: -14 125<240.484 372.227> 435 125<294.428 426.171>
LayerCount: 2
Fore
SplineSet
365 435 m 0
 288 435 235 378 215 273 c 0
 210.709031847 251.545159235 208.589141245 232.094390055 208.589141245 214.724472884 c 0
 208.589141245 147.086007891 240.733549894 111 302 111 c 0
 378 111 431 168 452 273 c 0
 455.967874595 293.831341621 457.928385517 312.773399787 457.928385517 329.755895373 c 0
 457.928385517 398.373361085 425.922076541 435 365 435 c 0
389 560 m 0
 550.643521036 560 641.317477854 480.898506549 641.317477854 344.306788949 c 0
 641.317477854 322.03508447 638.906791296 298.234926668 634 273 c 0
 599 93 466 -14 278 -14 c 0
 116.356478964 -14 25.6825221459 65.1014934514 25.6825221459 201.693211051 c 0
 25.6825221459 223.96491553 28.0932087035 247.765073332 33 273 c 0
 68 453 201 560 389 560 c 0
EndSplineSet
Validated: 524289
Substitution2: "sous-table Substitution simple lookups10" ordmasculine
Substitution2: "sous-table 'aalt' Activer toutes les variantes dans Latin lookup 0" ordmasculine
EndChar

StartChar: p
Encoding: 112 112 81
Width: 716
Flags: HW
HStem: -208 21G<-20 158.902> -14 127<278.959 404.621> 433 127<382.574 518.5> 527 20G<123.106 302>
LayerCount: 2
Fore
SplineSet
211 79 m 1xe0
 155 -208 l 1
 -20 -208 l 1
 127 547 l 1
 302 547 l 1xd0
 286 467 l 1
 347 531 409 560 485 560 c 0
 552 560 603 533 636 479 c 0
 657.62546118 443.18282992 668.746827498 400.058463414 668.746827498 349.93553621 c 0
 668.746827498 325.88970201 666.18726941 300.233164402 661 273 c 0
 644 188 609 119 555 66 c 0
 502 13 441 -14 374 -14 c 0
 298 -14 246 15 211 79 c 1xe0
396 433 m 0xe0
 321 433 269 377 249 273 c 0
 244.622801494 251.322445492 242.461369892 231.73031866 242.461369892 214.296066573 c 0
 242.461369892 148.087940254 273.632851808 113 333 113 c 0
 408 113 459 169 480 273 c 0
 484.107455909 294.358770728 486.148190548 313.692998171 486.148190548 330.933384642 c 0
 486.148190548 397.639785925 455.59704034 433 396 433 c 0xe0
EndSplineSet
Validated: 524289
EndChar

StartChar: q
Encoding: 113 113 82
Width: 716
Flags: HW
HStem: -208 21G<352 531.894> -14 127<176.5 312.182> 433 126<290.403 414.581> 527 20G<495.049 675>
LayerCount: 2
Fore
SplineSet
362 433 m 0xe0
 287 433 236 377 216 273 c 0
 211.552320276 250.973395654 209.347481247 231.099918375 209.347481247 213.455571493 c 0
 209.347481247 147.791023051 239.884570442 113 299 113 c 0
 374 113 425 169 446 273 c 0
 450.107455909 294.358770728 452.148190548 313.692998171 452.148190548 330.933384642 c 0
 452.148190548 397.639785925 421.59704034 433 362 433 c 0xe0
408 79 m 1
 347 15 286 -14 210 -14 c 0
 143 -14 92 13 59 66 c 0
 37.6666666667 101.333333333 26.5555555556 143.777777778 26.5555555556 193.333333333 c 0
 26.5555555556 218.111111111 29.3333333333 244.666666667 35 273 c 0
 51 357 86 426 140 479 c 0
 193 532 254 559 321 559 c 0xe0
 397 559 448 530 483 466 c 1
 499 547 l 1
 675 547 l 1xd0
 528 -208 l 1
 352 -208 l 1
 408 79 l 1
EndSplineSet
Validated: 524289
EndChar

StartChar: r
Encoding: 114 114 83
Width: 493
Flags: W
HStem: 0 21G<21 199.81> 419 141<383.748 507.549> 527 20G<123.124 302>
LayerCount: 2
Fore
SplineSet
504 398 m 1xc0
 476 413 448 419 417 419 c 0xc0
 328 419 265 360 244 252 c 2
 196 0 l 1
 21 0 l 1
 127 547 l 1
 302 547 l 1xa0
 284 457 l 1
 342 529 405 560 486 560 c 0
 498 560 508 560 535 556 c 1
 504 398 l 1xc0
EndSplineSet
Validated: 1
EndChar

StartChar: s
Encoding: 115 115 84
Width: 595
Flags: HW
HStem: -14 116<93.0565 326.461> 444 116<236.052 458.476>
LayerCount: 2
Fore
SplineSet
551 530 m 1
 525 397 l 1
 456 428 390 444 327 444 c 0
 260 444 226 428 219 393 c 0
 218.30719852 389.766926429 217.947712242 386.733841978 217.947712242 383.885351898 c 0
 217.947712242 362.064523296 239.043481709 351.076264694 293 344 c 2
 324 340 l 2
 410 329 467 310 493 284 c 0
 511.415460281 265.584539719 520.800853709 239.644023728 520.800853709 206.178452027 c 0
 520.800853709 192.395415712 519.208843727 177.335931703 516 161 c 0
 493 45 396 -14 225 -14 c 0
 153 -14 77 -3 0 20 c 1
 26 153 l 1
 88 118 159 102 235 102 c 0
 303 102 342 121 349 158 c 0
 349.777899876 162.14879934 350.202808292 165.978225454 350.202808292 169.518788566 c 0
 350.202808292 193.286853878 331.054151423 204.037199835 271 211 c 2
 240 215 l 2
 111.696729371 231.144120145 59.2007291105 268.225486393 59.2007291105 344.647733039 c 0
 59.2007291105 358.166757469 60.8435012134 372.916887135 64 389 c 0
 87 505 175 560 339 560 c 0
 403 560 471 550 551 530 c 1
EndSplineSet
Validated: 524289
EndChar

StartChar: t
Encoding: 116 116 85
Width: 478
Flags: HW
HStem: 0 125<248.675 377> 422 125<56 119 318 474>
LayerCount: 2
Fore
SplineSet
348 702 m 1
 318 547 l 1
 498 547 l 1
 474 422 l 1
 294 422 l 1
 248 190 l 1
 246.282202113 180.265811973 245.329434117 171.879533755 245.329434117 164.681240293 c 0
 245.329434117 134.165759834 262.451985914 125 311 125 c 2
 401 125 l 1
 377 0 l 1
 227 0 l 2
 115.324058076 0 65.4442154878 33.8881835064 65.4442154878 121.705527775 c 0
 65.4442154878 141.6193202 68.0091272404 164.306247645 73 190 c 2
 119 422 l 1
 32 422 l 1
 56 547 l 1
 143 547 l 1
 173 702 l 1
 348 702 l 1
EndSplineSet
Validated: 524289
EndChar

StartChar: u
Encoding: 117 117 86
Width: 712
Flags: HW
HStem: -14 132<142.5 304.914> 0 21G<390 568.876> 527 20G<117.108 297 492.074 671>
LayerCount: 2
Fore
SplineSet
56 213 m 2xa0
 121 547 l 1
 297 547 l 1
 286 492 l 2
 280 463 273 425 263 380 c 1
 246 291 l 2
 234.923186768 233.661202094 230.214667206 200.097367222 230.214667206 178.966705647 c 0
 230.214667206 167.667349738 231.561040743 159.923186768 234 154 c 1
 245 131 264 118 295 118 c 0xa0
 368 118 424 177 443 277 c 2
 496 547 l 1
 671 547 l 1
 565 0 l 1
 390 0 l 1x60
 405 79 l 1
 340 15 277 -14 206 -14 c 0
 101.887332553 -14 48.1781968948 39.0917201506 48.1781968948 139.765820669 c 0
 48.1781968948 161.897244967 50.7737587083 186.328147891 56 213 c 2xa0
EndSplineSet
Validated: 524289
EndChar

StartChar: v
Encoding: 118 118 87
Width: 652
Flags: W
HStem: 0 21G<163.015 370.737> 527 20G<58 236.28 493.889 680>
LayerCount: 2
Fore
SplineSet
58 547 m 1
 233 547 l 1
 295 169 l 1
 505 547 l 1
 680 547 l 1
 359 0 l 1
 167 0 l 1
 58 547 l 1
EndSplineSet
Validated: 1
EndChar

StartChar: w
Encoding: 119 119 88
Width: 924
Flags: W
HStem: 0 21G<114.611 315.777 489.989 691.141> 527 20G<78 249.008 423.247 579.019 753.153 932>
VStem: 78 170<446.237 547>
LayerCount: 2
Fore
SplineSet
78 547 m 1
 248 547 l 1
 267 170 l 1
 432 547 l 1
 578 547 l 1
 597 174 l 1
 762 547 l 1
 932 547 l 1
 682 0 l 1
 491 0 l 1
 472 376 l 1
 307 0 l 1
 116 0 l 1
 78 547 l 1
EndSplineSet
Validated: 1
EndChar

StartChar: x
Encoding: 120 120 89
Width: 645
Flags: W
HStem: 0 21G<-48 154.919 371.595 567> 527 20G<68 262.877 460.099 663>
LayerCount: 2
Fore
SplineSet
213 280 m 1
 68 547 l 1
 253 547 l 1
 333 385 l 1
 478 547 l 1
 663 547 l 1
 414 281 l 1
 567 0 l 1
 382 0 l 1
 292 173 l 1
 137 0 l 1
 -48 0 l 1
 213 280 l 1
EndSplineSet
Validated: 1
EndChar

StartChar: y
Encoding: 121 121 90
Width: 652
Flags: W
HStem: -216 115<17 149.677> 527 20G<55 234.043 491.38 677>
LayerCount: 2
Fore
SplineSet
55 547 m 1
 230 547 l 1
 305 176 l 1
 502 547 l 1
 677 547 l 1
 330 -52 l 1
 296 -113 260 -155 225 -179 c 0
 189 -204 147 -216 96 -216 c 2
 -5 -216 l 1
 17 -101 l 1
 72 -101 l 2
 131 -101 156 -85 181 -36 c 1
 188 -21 l 1
 55 547 l 1
EndSplineSet
Validated: 1
EndChar

StartChar: z
Encoding: 122 122 91
Width: 582
Flags: W
HStem: 0 125<207 471> 422 125<100 352>
LayerCount: 2
Fore
SplineSet
100 547 m 1
 577 547 l 1
 553 425 l 1
 207 125 l 1
 495 125 l 1
 471 0 l 1
 -18 0 l 1
 5 122 l 1
 352 422 l 1
 76 422 l 1
 100 547 l 1
EndSplineSet
Validated: 1
EndChar

StartChar: braceleft
Encoding: 123 123 92
Width: 712
Flags: HW
HStem: -163 110<392.538 492> 241 109<130 221.797> 650 110<527.12 650>
LayerCount: 2
Fore
SplineSet
513 -53 m 1
 492 -163 l 1
 386 -163 l 2
 266.970368505 -163 211.365953673 -123.804641388 211.365953673 -36.3899220529 c 0
 211.365953673 -20.2550019288 213.260362808 -2.47727704351 217 17 c 2
 235 111 l 2
 238.957991211 131.20658671 241.049985579 148.635875793 241.049985579 163.56810418 c 0
 241.049985579 220.316767487 210.834989924 241 138 241 c 2
 108 241 l 1
 130 350 l 1
 160 350 l 2
 252 350 288 383 307 480 c 2
 326 580 l 1
 351 705 424 760 565 760 c 2
 671 760 l 1
 650 650 l 1
 616 650 l 2
 570 650 538 643 522 628 c 0
 506 614 493 584 484 538 c 2
 468 457 l 2
 448 354 415 315 340 299 c 1
 391.26414085 286.183964787 414.111195443 259.727728171 414.111195443 204.206587078 c 0
 414.111195443 186.0809737 411.676195939 164.857673149 407 140 c 2
 391 59 l 2
 386.854528128 37.351424666 384.830653421 19.3095645143 384.830653421 4.77669708531 c 0
 384.830653421 -12.2419236841 387.606079858 -24.4485118016 393 -32 c 1
 405 -46 433 -53 479 -53 c 2
 513 -53 l 1
EndSplineSet
Validated: 524289
EndChar

StartChar: bar
Encoding: 124 124 93
Width: 365
Flags: W
HStem: 744 20G<208.12 323>
VStem: 18 305
LayerCount: 2
Fore
SplineSet
323 764 m 1
 129 -236 l 1
 18 -236 l 1
 212 764 l 1
 323 764 l 1
EndSplineSet
Validated: 1
EndChar

StartChar: braceright
Encoding: 125 125 94
Width: 712
Flags: HW
HStem: -163 110<51 173.904> 241 109<478.203 570> 650 110<209 306.997>
LayerCount: 2
Fore
SplineSet
51 -53 m 1
 85 -53 l 2
 131 -53 163 -46 178 -32 c 1
 195 -18 208 12 217 59 c 2
 233 140 l 2
 252 241 286 282 362 299 c 1
 310.095014019 311.035938778 286.483743326 336.086986588 286.483743326 391.605891462 c 0
 286.483743326 409.891157111 289.044923473 431.481355884 294 457 c 2
 310 538 l 2
 314.05 558.7 316.075 576.16 316.075 590.38 c 0
 316.075 607.76 313.05 620.3 307 628 c 0
 296 643 268 650 222 650 c 2
 188 650 l 1
 209 760 l 1
 315 760 l 2
 433.63132284 760 489.969079623 721.066521215 489.969079623 634.265849736 c 0
 489.969079623 617.899040775 487.966077511 599.830387554 484 580 c 1
 465 480 l 2
 461.042008789 459.79341329 458.950014421 442.364124207 458.950014421 427.43189582 c 0
 458.950014421 370.683232513 489.165010076 350 562 350 c 2
 592 350 l 1
 570 241 l 1
 540 241 l 2
 448 241 412 208 393 111 c 2
 375 17 l 2
 351 -108 277 -163 136 -163 c 2
 30 -163 l 1
 51 -53 l 1
EndSplineSet
Validated: 524289
EndChar

StartChar: asciitilde
Encoding: 126 126 95
Width: 838
Flags: W
HStem: 223 114<464.268 631.86> 290 114<201.738 368.643>
LayerCount: 2
Fore
SplineSet
749 415 m 1x80
 726 296 l 1
 647 244 589 223 526 223 c 0x80
 491 223 453 232 409 251 c 0
 405 253 402 255 399 256 c 0
 397 257 394 258 389 260 c 0
 343 280 305 290 274 290 c 0
 217 290 158 265 84 212 c 1
 107 331 l 1
 186 383 244 404 307 404 c 0x40
 342 404 380 394 423 375 c 1
 428 374 431 372 434 371 c 0
 435 370 439 369 444 367 c 0
 490 347 528 337 559 337 c 0
 615 337 671 360 749 415 c 1x80
EndSplineSet
Validated: 1
EndChar

StartChar: Euro
Encoding: 8364 8364 96
Width: 696
Flags: W
HStem: -14 128<326.808 496.262> 233 95<24 70.936 262 408> 401 95<57 86 313 515> 614 128<413.372 601.509>
VStem: 72 188<328 400.486>
LayerCount: 2
Fore
SplineSet
573 40 m 1
 505 4 433 -14 361 -14 c 0
 190 -14 87 73 69 233 c 1
 -37 233 l 1
 24 328 l 1
 72 328 l 1
 73 337 75 345 78 364 c 0
 82 383 84 392 86 401 c 1
 -5 401 l 1
 57 496 l 1
 120 496 l 1
 202 656 337 742 508 742 c 0
 580 742 645 724 699 688 c 1
 670 537 l 1
 627 588 572 614 507 614 c 0
 424 614 357 573 313 496 c 1
 576 496 l 1
 515 401 l 1
 274 401 l 1
 271 390 270 381 265 358 c 0
 264 350 261 339 260 328 c 1
 469 328 l 1
 408 233 l 1
 262 233 l 1
 278 153 329 114 410 114 c 0
 475 114 538 139 603 191 c 1
 573 40 l 1
EndSplineSet
Validated: 1
EndChar

StartChar: quotesinglbase
Encoding: 8218 8218 97
Width: 380
Flags: W
HStem: -122 311
VStem: -15 275
LayerCount: 2
Fore
SplineSet
94 189 m 1
 260 189 l 1
 233 50 l 1
 88 -122 l 1
 -15 -122 l 1
 67 50 l 1
 94 189 l 1
EndSplineSet
Validated: 1
EndChar

StartChar: florin
Encoding: 402 402 98
Width: 696
Flags: W
HStem: -208 116<-63.8258 69.4799> 321 116<153 249 467 584> 644 116<565.111 697.586>
LayerCount: 2
Fore
SplineSet
732 740 m 1
 708 616 l 1
 681 635 657 644 630 644 c 0
 571 644 534 611 499 519 c 2
 467 437 l 1
 606 437 l 1
 584 321 l 1
 422 321 l 1
 293 -8 l 2
 240 -141 153 -208 29 -208 c 0
 -14 -208 -56 -201 -97 -188 c 1
 -73 -64 l 1
 -48 -83 -21 -92 6 -92 c 0
 63 -92 99 -59 136 33 c 2
 249 321 l 1
 131 321 l 1
 153 437 l 1
 294 437 l 1
 343 560 l 2
 397 695 482 760 606 760 c 0
 649 760 691 753 732 740 c 1
EndSplineSet
Validated: 1
EndChar

StartChar: quotedblbase
Encoding: 8222 8222 99
Width: 657
Flags: W
HStem: -122 311
LayerCount: 2
Fore
SplineSet
94 189 m 1
 260 189 l 1
 233 50 l 1
 88 -122 l 1
 -15 -122 l 1
 67 50 l 1
 94 189 l 1
341 189 m 1
 507 189 l 1
 480 49 l 1
 336 -122 l 1
 232 -122 l 1
 314 49 l 1
 341 189 l 1
EndSplineSet
Validated: 1
EndChar

StartChar: ellipsis
Encoding: 8230 8230 100
Width: 1000
Flags: W
HStem: 0 189<52 192 385 525 718 858>
LayerCount: 2
Fore
SplineSet
718 189 m 1
 894 189 l 1
 858 0 l 1
 682 0 l 1
 718 189 l 1
52 189 m 1
 228 189 l 1
 192 0 l 1
 16 0 l 1
 52 189 l 1
385 189 m 1
 561 189 l 1
 525 0 l 1
 349 0 l 1
 385 189 l 1
EndSplineSet
Validated: 1
EndChar

StartChar: dagger
Encoding: 8224 8224 101
Width: 500
Flags: W
HStem: 427 116<68 187 370 490> 709 20G<241.129 406>
LayerCount: 2
Fore
SplineSet
245 729 m 1
 406 729 l 1
 370 543 l 1
 512 543 l 1
 490 427 l 1
 348 427 l 1
 246 -96 l 1
 85 -96 l 1
 187 427 l 1
 46 427 l 1
 68 543 l 1
 209 543 l 1
 245 729 l 1
EndSplineSet
Validated: 1
EndChar

StartChar: daggerdbl
Encoding: 8225 8225 102
Width: 500
Flags: W
HStem: 90 116<2 121 305 424> 427 116<68 187 370 490> 709 20G<241.129 406>
LayerCount: 2
Fore
SplineSet
245 729 m 1
 406 729 l 1
 370 543 l 1
 512 543 l 1
 490 427 l 1
 348 427 l 1
 305 206 l 1
 447 206 l 1
 424 90 l 1
 282 90 l 1
 246 -96 l 1
 85 -96 l 1
 121 90 l 1
 -21 90 l 1
 2 206 l 1
 144 206 l 1
 187 427 l 1
 46 427 l 1
 68 543 l 1
 209 543 l 1
 245 729 l 1
EndSplineSet
Validated: 1
EndChar

StartChar: circumflex
Encoding: 710 710 103
Width: 500
Flags: W
HStem: 616 184
LayerCount: 2
Fore
SplineSet
283 800 m 1
 401 800 l 1
 490 616 l 1
 403 616 l 1
 328 726 l 1
 209 616 l 1
 122 616 l 1
 283 800 l 1
EndSplineSet
Validated: 1
EndChar

StartChar: perthousand
Encoding: 8240 8240 104
Width: 1440
Flags: HW
HStem: -14 83<681.497 775.049 1128.5 1222.05> 301 82<719.673 813.265 1166.67 1260.27> 345 82<203.497 297.198> 660 82<241.719 335.457>
LayerCount: 2
Fore
SplineSet
1217 301 m 0xd0
 1170 301 1136 260 1121 185 c 0
 1117.90543642 168.4219808 1116.37435426 153.505160622 1116.37435426 140.325137789 c 0
 1116.37435426 93.8779095934 1135.38889203 69 1172 69 c 0
 1219 69 1252 110 1266 185 c 0
 1269.54175844 202.708792217 1271.29947381 218.522038668 1271.29947381 232.347592377 c 0
 1271.29947381 277.075807634 1252.90249021 301 1217 301 c 0xd0
1233 383 m 0
 1336.17379026 383 1394.27009116 328.470778994 1394.27009116 236.150808948 c 0
 1394.27009116 220.199905671 1392.53577714 203.120857834 1389 185 c 0
 1366 62 1277 -14 1156 -14 c 0
 1052.08476358 -14 993.159688893 42.0533162634 993.159688893 135.791199906 c 0
 993.159688893 151.20269908 994.752482956 167.632843636 998 185 c 0
 1022 308 1112 383 1233 383 c 0
292 660 m 0
 245 660 211 619 196 544 c 0
 192.905436416 527.4219808 191.374354265 512.456301827 191.374354265 499.200160926 c 0
 191.374354265 452.484687876 210.388892032 427 247 427 c 0xb0
 294 427 328 469 342 544 c 0
 345.457388007 561.286940037 347.161591346 576.767568597 347.161591346 590.356168351 c 0
 347.161591346 635.72218864 328.16685091 660 292 660 c 0
308 742 m 0
 411.173790261 742 469.270091156 687.470778994 469.270091156 595.150808948 c 0
 469.270091156 579.199905671 467.535777138 562.120857834 464 544 c 0
 440 421 352 345 231 345 c 0
 127.637693288 345 68.7880396313 400.458387412 68.7880396313 493.298074522 c 0
 68.7880396313 509.140193165 70.5016145544 526.070774591 74 544 c 0
 98 667 187 742 308 742 c 0
261 -14 m 1
 153 -14 l 1
 756 742 l 1
 864 742 l 1
 261 -14 l 1
786 383 m 0xd0
 889.173790261 383 947.270091156 328.470778994 947.270091156 236.150808948 c 0
 947.270091156 220.199905671 945.535777138 203.120857834 942 185 c 0
 919 62 830 -14 709 -14 c 0
 605.084763578 -14 546.159688893 42.0533162634 546.159688893 135.791199906 c 0
 546.159688893 151.20269908 547.752482956 167.632843636 551 185 c 0
 575 308 665 383 786 383 c 0xd0
770 301 m 0
 723 301 689 260 674 185 c 0
 670.905436416 168.4219808 669.374354265 153.505160622 669.374354265 140.325137789 c 0
 669.374354265 93.8779095934 688.388892032 69 725 69 c 0
 772 69 805 110 819 185 c 0
 822.541758443 202.708792217 824.299473812 218.522038668 824.299473812 232.347592377 c 0
 824.299473812 277.075807634 805.90249021 301 770 301 c 0
EndSplineSet
Ligature2: "sous-table Remplacement de ligature lookups11" zero fraction zero zero
Ligature2: "sous-table Remplacement de ligature lookups11" zero slash zero zero
EndChar

StartChar: Scaron
Encoding: 352 352 105
Width: 720
Flags: HW
HStem: -14 136<170.109 399.564> 552 21G<606.5 646.896> 606 136<323.403 561.331>
LayerCount: 2
Fore
SplineSet
673 706 m 1
 643 552 l 1
 570 588 496 606 428 606 c 0
 339 606 292 582 282 530 c 0
 280.951088283 524.755441414 280.400711846 519.889082005 280.400711846 515.355842508 c 0
 280.400711846 485.314279016 304.57131942 469.902176565 368 456 c 2
 445 440 l 2
 575.923065159 412.970722032 632.646409401 365.251137269 632.646409401 276.954334324 c 0
 632.646409401 260.716428738 630.728041524 243.106212809 627 224 c 0
 596 64 487 -14 291 -14 c 0
 199 -14 108 3 22 38 c 1
 53 197 l 1
 136 148 218 122 299 122 c 0
 380 122 432 150 442 201 c 0
 443.082172076 207.087217926 443.670287857 212.735274702 443.670287857 218.001101069 c 0
 443.670287857 251.663105017 419.637193204 269.705430189 347 287 c 2
 277 303 l 2
 159.697769875 330.20051713 103.810374939 381.244440864 103.810374939 467.186651707 c 0
 103.810374939 482.351001956 105.550371687 498.601874598 109 516 c 0
 137 661 249 742 425 742 c 0
 505 742 586 730 673 706 c 1
365 798 m 1
 281 927 l 1
 368 927 l 1
 449 848 l 1
 562 927 l 1
 649 927 l 1
 515 798 l 1
 365 798 l 1
EndSplineSet
Position2: "sous-table 'cpsp' Chasses pour composition en capitales dans Latin lookup 1" dx=5 dy=0 dh=10 dv=0
EndChar

StartChar: guilsinglleft
Encoding: 8249 8249 106
Width: 412
Flags: W
VStem: 62 293
LayerCount: 2
Fore
SplineSet
355 519 m 1
 332 401 l 1
 168 293 l 1
 290 185 l 1
 268 67 l 1
 62 247 l 1
 79 338 l 1
 355 519 l 1
EndSplineSet
Validated: 1
EndChar

StartChar: OE
Encoding: 338 338 107
Width: 1167
Flags: HW
HStem: 0 142<344.653 540 728 1031> 309 142<788 1061> 587 142<424.193 627 815 1134>
LayerCount: 2
Fore
SplineSet
627 587 m 1
 576 587 l 2
 388 587 280 514 251 365 c 0
 247.108898574 345.007789227 245.162140065 326.365816591 245.162140065 309.071666499 c 0
 245.162140065 197.4742001 326.225071311 142 489 142 c 2
 540 142 l 1
 627 587 l 1
610 729 m 2
 1161 729 l 1
 1134 587 l 1
 815 587 l 1
 788 451 l 1
 1088 451 l 1
 1061 309 l 1
 761 309 l 1
 728 142 l 1
 1058 142 l 1
 1031 0 l 1
 469 0 l 2
 461 0 441 -1 433 -1 c 0
 181.706752007 -1 48.4206649355 98.7350843915 48.4206649355 280.269122476 c 0
 48.4206649355 306.786050289 51.2645699989 335.048309994 57 365 c 0
 103 600 287 730 575 730 c 0
 582 730 602 729 610 729 c 2
EndSplineSet
Ligature2: "sous-table 'dpng' Dipthongs (Obsolete) dans Latin lookup 9" O e
Ligature2: "sous-table 'dpng' Dipthongs (Obsolete) dans Latin lookup 9" O E
Position2: "sous-table 'cpsp' Chasses pour composition en capitales dans Latin lookup 1" dx=5 dy=0 dh=10 dv=0
EndChar

StartChar: quoteleft
Encoding: 8216 8216 108
Width: 380
Flags: W
HStem: 418 311
VStem: 121 275
LayerCount: 2
Fore
SplineSet
287 418 m 1
 121 418 l 1
 148 557 l 1
 292 729 l 1
 396 729 l 1
 314 557 l 1
 287 418 l 1
EndSplineSet
Validated: 1
EndChar

StartChar: quoteright
Encoding: 8217 8217 109
Width: 380
Flags: W
HStem: 418 311
VStem: 81 275
LayerCount: 2
Fore
SplineSet
190 729 m 1
 356 729 l 1
 329 590 l 1
 185 418 l 1
 81 418 l 1
 163 590 l 1
 190 729 l 1
EndSplineSet
Validated: 1
EndChar

StartChar: quotedblleft
Encoding: 8220 8220 110
Width: 657
Flags: W
HStem: 418 311
LayerCount: 2
Fore
SplineSet
534 418 m 1
 368 418 l 1
 395 556 l 1
 539 729 l 1
 643 729 l 1
 561 556 l 1
 534 418 l 1
287 418 m 1
 121 418 l 1
 148 557 l 1
 292 729 l 1
 396 729 l 1
 314 557 l 1
 287 418 l 1
EndSplineSet
Validated: 1
EndChar

StartChar: quotedblright
Encoding: 8221 8221 111
Width: 657
Flags: W
HStem: 418 311
LayerCount: 2
Fore
SplineSet
219 729 m 1
 385 729 l 1
 358 590 l 1
 214 418 l 1
 110 418 l 1
 192 590 l 1
 219 729 l 1
466 729 m 1
 632 729 l 1
 605 589 l 1
 461 418 l 1
 357 418 l 1
 439 589 l 1
 466 729 l 1
EndSplineSet
Validated: 1
EndChar

StartChar: bullet
Encoding: 8226 8226 112
Width: 639
Flags: HW
HStem: 196 351<274.241 383.441>
LayerCount: 2
Fore
SplineSet
153 372 m 0
 162 420 189 464 228 496 c 0
 269 529 315 547 363 547 c 0
 410 547 450 529 477 496 c 0
 496.722446315 470.967664293 507.23838639 440.181262185 507.23838639 405.823183402 c 0
 507.23838639 394.887182835 506.172999353 383.58932988 504 372 c 0
 494 324 468 280 429 247 c 0
 389 214 342 196 294 196 c 0
 246 196 206 214 180 247 c 0
 159.881543445 271.589224678 149.201754929 302.285822794 149.201754929 336.193846569 c 0
 149.201754929 347.792128877 150.451280206 359.766144987 153 372 c 0
EndSplineSet
EndChar

StartChar: endash
Encoding: 8211 8211 113
Width: 500
Flags: W
HStem: 211 126<2 478>
LayerCount: 2
Fore
SplineSet
2 337 m 1
 502 337 l 1
 478 211 l 1
 -22 211 l 1
 2 337 l 1
EndSplineSet
Validated: 1
EndChar

StartChar: emdash
Encoding: 8212 8212 114
Width: 1000
Flags: W
HStem: 211 126<2 978>
LayerCount: 2
Fore
SplineSet
2 337 m 1
 1002 337 l 1
 978 211 l 1
 -22 211 l 1
 2 337 l 1
EndSplineSet
Validated: 1
EndChar

StartChar: tilde
Encoding: 732 732 115
Width: 500
Flags: W
HStem: 638 76<348.455 425.165> 702 76<223.453 295.249>
VStem: 141 68<639 688.315>
LayerCount: 2
Fore
SplineSet
317 666 m 2xa0
 293 684 l 2
 293 685 291 686 289 687 c 0
 276 697 265 702 257 702 c 0
 234 702 217 682 209 643 c 1
 209 639 l 1
 141 639 l 1
 158 728 203 778 264 778 c 0x60
 287 778 308 770 331 750 c 1
 357 729 l 1
 370 720 381 714 390 714 c 0
 414 714 432 736 439 773 c 1
 440 777 l 1
 508 777 l 1
 490 688 446 638 385 638 c 0
 362 638 344 645 317 666 c 2xa0
EndSplineSet
Validated: 1
EndChar

StartChar: trademark
Encoding: 8482 8482 116
Width: 1000
Flags: W
HStem: 659 70<222 293 377 462>
LayerCount: 2
Fore
SplineSet
641 729 m 1
 678 618 l 1
 757 729 l 1
 868 729 l 1
 813 447 l 1
 730 447 l 1
 772 660 l 1
 680 535 l 1
 643 535 l 1
 601 660 l 1
 559 447 l 1
 475 447 l 1
 530 729 l 1
 641 729 l 1
475 729 m 1
 462 659 l 1
 377 659 l 1
 335 447 l 1
 251 447 l 1
 293 659 l 1
 209 659 l 1
 222 729 l 1
 475 729 l 1
EndSplineSet
Validated: 1
EndChar

StartChar: scaron
Encoding: 353 353 117
Width: 595
Flags: HW
HStem: -14 116<93.0565 326.461> 444 116<236.052 458.476>
LayerCount: 2
Fore
SplineSet
551 530 m 1
 525 397 l 1
 456 428 390 444 327 444 c 0
 260 444 226 428 219 393 c 0
 218.30719852 389.766926429 217.947712242 386.733841978 217.947712242 383.885351898 c 0
 217.947712242 362.064523296 239.043481709 351.076264694 293 344 c 2
 324 340 l 2
 410 329 467 310 493 284 c 0
 511.415460281 265.584539719 520.800853709 239.644023728 520.800853709 206.178452027 c 0
 520.800853709 192.395415712 519.208843727 177.335931703 516 161 c 0
 493 45 396 -14 225 -14 c 0
 153 -14 77 -3 0 20 c 1
 26 153 l 1
 88 118 159 102 235 102 c 0
 303 102 342 121 349 158 c 0
 349.777899876 162.14879934 350.202808292 165.978225454 350.202808292 169.518788566 c 0
 350.202808292 193.286853878 331.054151423 204.037199835 271 211 c 2
 240 215 l 2
 111.696729371 231.144120145 59.2007291105 268.225486393 59.2007291105 344.647733039 c 0
 59.2007291105 358.166757469 60.8435012134 372.916887135 64 389 c 0
 87 505 175 560 339 560 c 0
 403 560 471 550 551 530 c 1
295 616 m 1
 206 800 l 1
 293 800 l 1
 368 689 l 1
 487 800 l 1
 574 800 l 1
 413 616 l 1
 295 616 l 1
EndSplineSet
EndChar

StartChar: guilsinglright
Encoding: 8250 8250 118
Width: 412
Flags: W
VStem: 44 293
LayerCount: 2
Fore
SplineSet
131 519 m 1
 337 338 l 1
 320 247 l 1
 44 67 l 1
 66 185 l 1
 230 293 l 1
 108 401 l 1
 131 519 l 1
EndSplineSet
Validated: 1
EndChar

StartChar: oe
Encoding: 339 339 119
Width: 1094
Flags: HW
HStem: -14 125<240.484 373.79> -14 116<657.896 876.073> 225 108<640 869.636> 435 125<294.428 428.731> 444 116<706.088 846.536>
LayerCount: 2
Fore
SplineSet
867 333 m 1x28
 868.88446429 342.712239032 869.802328223 351.941177885 869.802328223 360.622850003 c 0
 869.802328223 411.831799399 837.867596134 444 784 444 c 0
 716 444 665 405 640 333 c 1
 867 333 l 1x28
1036 275 m 2
 1026 225 l 1
 617 225 l 1
 616.509312072 219.322039696 616.264312555 213.835716351 616.264312555 208.542063307 c 0
 616.264312555 138.318123134 659.378943058 102 744 102 c 0
 817 102 900 124 989 168 c 1
 963 33 l 1
 874 2 787 -14 706 -14 c 0x68
 598 -14 538 11 502 68 c 1
 438 13 363 -14 278 -14 c 0
 116.356478964 -14 25.6825221459 65.1014934514 25.6825221459 201.693211051 c 0
 25.6825221459 223.96491553 28.0932087035 247.765073332 33 273 c 0
 68 453 201 560 389 560 c 0xb0
 477 560 537 534 579 478 c 1
 643 535 710 560 798 560 c 0
 889 560 955 534 997 483 c 0
 1027.81666667 446.45 1043.225 400.655 1043.225 345.246912037 c 0
 1043.225 323.341388889 1040.81666667 299.933333333 1036 275 c 2
365 435 m 0xb0
 288 435 235 378 215 273 c 0
 210.709031847 251.545159235 208.589141245 232.094390055 208.589141245 214.724472884 c 0
 208.589141245 147.086007891 240.733549894 111 302 111 c 0
 378 111 431 168 452 273 c 0
 455.967874595 293.831341621 457.928385517 312.773399787 457.928385517 329.755895373 c 0
 457.928385517 398.373361085 425.922076541 435 365 435 c 0xb0
EndSplineSet
Ligature2: "sous-table 'dpng' Dipthongs (Obsolete) dans Latin lookup 9" o e
EndChar

StartChar: Ydieresis
Encoding: 376 376 120
Width: 724
Flags: W
HStem: 0 21G<205 396.844> 709 20G<68 282.923 589.385 812> 807 120<313 404 506 597>
LayerCount: 2
Fore
SplineSet
68 729 m 1
 274 729 l 1
 390 469 l 1
 606 729 l 1
 812 729 l 1
 452 307 l 1
 393 0 l 1
 205 0 l 1
 264 307 l 1
 68 729 l 1
313 927 m 1
 428 927 l 1
 404 807 l 1
 289 807 l 1
 313 927 l 1
506 927 m 1
 621 927 l 1
 597 807 l 1
 482 807 l 1
 506 927 l 1
EndSplineSet
Validated: 1
Position2: "sous-table 'cpsp' Chasses pour composition en capitales dans Latin lookup 1" dx=5 dy=0 dh=10 dv=0
EndChar

StartChar: exclamdown
Encoding: 161 161 121
Width: 456
Flags: W
HStem: 0 21G<77 256.857> 555 174<218 360>
VStem: 77 317
LayerCount: 2
Fore
SplineSet
77 0 m 1
 131 280 l 1
 196 484 l 1
 322 484 l 1
 307 280 l 1
 253 0 l 1
 77 0 l 1
184 555 m 1
 218 729 l 1
 394 729 l 1
 360 555 l 1
 184 555 l 1
EndSplineSet
Validated: 1
Position2: "sous-table 'cpsp' Chasses pour composition en capitales dans Latin lookup 1" dx=5 dy=0 dh=10 dv=0
EndChar

StartChar: cent
Encoding: 162 162 122
Width: 696
Flags: HW
HStem: -14 125<380 480.018> 435 124<467 536.625>
LayerCount: 2
Fore
SplineSet
361 419 m 1
 304 390 270 344 257 273 c 0
 253.648358378 256.002388918 251.958816477 240.322994856 251.958816477 225.934375634 c 0
 251.958816477 180.220904047 269.012536757 147.536119729 304 127 c 1
 361 419 l 1
607 530 m 1
 579 387 l 1
 537 419 493 435 450 435 c 2
 443 435 l 1
 380 111 l 1
 437 112 491 128 534 159 c 1
 507 16 l 1
 448 -4 398 -14 361 -14 c 2
 356 -14 l 1
 329 -153 l 1
 250 -153 l 1
 277 -12 l 1
 138.184929655 8.90588408806 67.9002384647 82.2584869165 67.9002384647 203.964413734 c 0
 67.9002384647 227.798764362 70.5957669962 253.487541072 76 281 c 0
 107 440 216 536 388 559 c 1
 415 699 l 1
 494 699 l 1
 467 559 l 1
 514 558 559 547 607 530 c 1
EndSplineSet
EndChar

StartChar: sterling
Encoding: 163 163 123
Width: 696
Flags: W
HStem: 0 130<23 134 312 550> 289 117<92 165 365 525> 614 128<439.624 623.102>
LayerCount: 2
Fore
SplineSet
683 716 m 1
 655 576 l 1
 615 601 568 614 519 614 c 0
 442 614 398 574 382 489 c 1
 365 406 l 1
 547 406 l 1
 525 289 l 1
 343 289 l 1
 312 130 l 1
 575 130 l 1
 550 0 l 1
 -2 0 l 1
 23 130 l 1
 134 130 l 1
 165 289 l 1
 70 289 l 1
 92 406 l 1
 187 406 l 1
 204 489 l 1
 238 665 332 742 511 742 c 0
 571 742 627 733 683 716 c 1
EndSplineSet
Validated: 1
EndChar

StartChar: currency
Encoding: 164 164 124
Width: 636
Flags: HW
HStem: 104 102<234.581 364.347> 420 102<268.402 397.317>
LayerCount: 2
Fore
SplineSet
174 131 m 1
 53 30 l 1
 -7 105 l 1
 114 206 l 1
 106.96431414 226.467449774 102.792315294 247.753095838 102.792315294 271.165250024 c 0
 102.792315294 284.357017783 104.116862443 298.223920023 107 313 c 0
 115 354 132 388 157 419 c 1
 74 519 l 1
 164 594 l 1
 245 493 l 1
 280 513 317 522 357 522 c 0
 392 522 425 514 459 495 c 1
 579 596 l 1
 639 521 l 1
 518 420 l 1
 525.430021764 397.709934707 529.026347458 375.419869415 529.026347458 353.367174499 c 0
 529.026347458 339.803239022 527.665820638 326.329103188 525 313 c 0
 517 272 502 239 476 208 c 1
 557 107 l 1
 468 32 l 1
 386 133 l 1
 351 113 317 104 276 104 c 0
 239 104 205 112 174 131 c 1
296 206 m 0
 355 206 412 253 423 313 c 0
 424.491937115 320.459685575 425.211000496 327.718423979 425.211000496 334.710874068 c 0
 425.211000496 383.960339423 389.540314425 420 337 420 c 0
 277 420 221 373 209 313 c 0
 207.701247949 305.915897906 207.071622599 299.013017627 207.071622599 292.347319407 c 0
 207.071622599 242.556759947 242.202170462 206 296 206 c 0
EndSplineSet
EndChar

StartChar: yen
Encoding: 165 165 125
Width: 696
Flags: W
HStem: 0 21G<192 381.842> 203 95<27 231 435 639> 372 94<60 203 547 672> 709 20G<90 293.622 550.556 762>
LayerCount: 2
Fore
SplineSet
639 203 m 1
 417 203 l 1
 378 0 l 1
 192 0 l 1
 231 203 l 1
 9 203 l 1
 27 298 l 1
 249 298 l 1
 256 330 l 1
 240 372 l 1
 42 372 l 1
 60 466 l 1
 203 466 l 1
 90 729 l 1
 285 729 l 1
 382 504 l 1
 567 729 l 1
 762 729 l 1
 547 466 l 1
 690 466 l 1
 672 372 l 1
 474 372 l 1
 442 330 l 1
 435 298 l 1
 657 298 l 1
 639 203 l 1
EndSplineSet
Validated: 1
EndChar

StartChar: brokenbar
Encoding: 166 166 126
Width: 365
Flags: W
VStem: 30 280
LayerCount: 2
Fore
SplineSet
310 699 m 1
 238 329 l 1
 127 329 l 1
 199 699 l 1
 310 699 l 1
213 199 m 1
 141 -171 l 1
 30 -171 l 1
 102 199 l 1
 213 199 l 1
EndSplineSet
Validated: 1
EndChar

StartChar: section
Encoding: 167 167 127
Width: 500
Flags: HW
HStem: -95 103<56.98 233.281> 641 101<269.909 443.618>
LayerCount: 2
Fore
SplineSet
507 714 m 1
 486 603 l 1
 427 628 377 641 340 641 c 0
 291 641 263 625 257 594 c 0
 256.733333333 592.6 256.6 591.186666667 256.6 589.760296296 c 0
 256.6 569.791111111 282.733333333 547.266666667 335 523 c 1
 344 520 349 517 353 515 c 0
 415 486 457 458 477 429 c 0
 491.568322948 408.604347873 499.238974807 385.025155243 499.238974807 357.875931725 c 0
 499.238974807 347.75357139 498.172670821 337.134937957 496 326 c 0
 481 250 435 199 353 168 c 1
 389.64389212 145.51397529 408.254651196 116.785712219 408.254651196 80.0823326875 c 0
 408.254651196 72.7142829586 407.50465843 65.0248449601 406 57 c 0
 387 -38 293 -95 154 -95 c 0
 98 -95 43 -86 -21 -67 c 1
 2 49 l 1
 72 22 130 8 167 8 c 0
 210 8 240 25 246 52 c 1
 246.284629279 53.6366183549 246.427484362 55.2732367098 246.427484362 56.9102153601 c 0
 246.427484362 78.2783000739 222.086347412 99.7077756747 171 122 c 0
 160 127 152 130 146 133 c 0
 43.3323342389 180.515613906 3.29949632945 225.871406162 3.29949632945 289.836772931 c 0
 3.29949632945 301.25842623 4.57588968742 313.273420859 7 326 c 0
 20 394 66 444 145 477 c 1
 112.433252419 503.212260248 96.9016103088 530.055450328 96.9016103088 564.545732588 c 0
 96.9016103088 573.477089813 97.9431091661 582.921234914 100 593 c 0
 118 686 208 742 339 742 c 0
 394 742 451 733 507 714 c 1
230 418 m 1
 182 399 155 375 149 343 c 0
 148.207843891 338.643141402 147.807882345 334.403941173 147.807882345 330.282399312 c 0
 147.807882345 313.592175336 154.366663462 298.831375565 168 286 c 0
 185 270 221 251 276 230 c 1
 322 245 350 272 357 305 c 0
 357.741452676 309.077989718 358.122130556 313.052900922 358.122130556 316.93826771 c 0
 358.122130556 354.974570788 321.639159966 384.429218626 230 418 c 1
EndSplineSet
EndChar

StartChar: dieresis
Encoding: 168 168 128
Width: 500
Flags: W
HStem: 654 120<183 275 376 468>
VStem: 160 331
LayerCount: 2
Fore
SplineSet
183 774 m 1
 298 774 l 1
 275 654 l 1
 160 654 l 1
 183 774 l 1
376 774 m 1
 491 774 l 1
 468 654 l 1
 353 654 l 1
 376 774 l 1
EndSplineSet
Validated: 1
EndChar

StartChar: copyright
Encoding: 169 169 129
Width: 1000
Flags: HW
HStem: 0 75<345.475 564.334> 153 91<449.255 613.162> 480 91<488.213 648.549> 650 75<449.63 668.166>
LayerCount: 2
Fore
SplineSet
689 550 m 1
 669 445 l 1
 637 469 603 480 566 480 c 0
 493 480 440 435 426 362 c 0
 423.674654522 350.37327261 422.526883924 339.515573713 422.526883924 329.467884197 c 0
 422.526883924 274.701401297 456.62672739 244 520 244 c 0
 561 244 603 256 637 279 c 1
 617 175 l 1
 571 160 526 153 486 153 c 0
 417 153 366 172 332 210 c 0
 307.65807794 238.030092069 295.286442135 273.133535105 295.286442135 314.908979557 c 0
 295.286442135 329.767915231 296.851608022 345.470942114 300 362 c 0
 312 425 343 476 391 514 c 0
 440 552 498 571 567 571 c 0
 612 571 652 565 689 550 c 1
563 650 m 0
 484 650 410 621 343 565 c 0
 275 508 234 441 219 362 c 0
 215.171239339 341.83519385 213.231913512 322.452222804 213.231913512 303.817826202 c 0
 213.231913512 249.447934012 229.741532695 201.450709487 264 159 c 0
 310 103 372 75 451 75 c 0
 531 75 604 103 670 159 c 0
 738 216 780 283 795 362 c 0
 798.734503868 381.668387036 800.60947185 400.592959718 800.60947185 418.804582242 c 0
 800.60947185 473.741722589 783.547521473 522.191114697 749 565 c 0
 703 622 642 650 563 650 c 0
577 725 m 0
 676 725 755 689 813 618 c 0
 855.46503799 565.104952679 876.28406225 504.439541456 876.28406225 435.590271594 c 0
 876.28406225 412.024496801 873.844987337 387.499933351 869 362 c 0
 850 263 798 178 713 107 c 0
 628 36 536 0 437 0 c 0
 338 0 258 36 201 107 c 0
 158.53496201 159.895047321 137.71593775 220.560458544 137.71593775 288.996233671 c 0
 137.71593775 312.420477206 140.155012663 336.755065982 145 362 c 0
 164 462 216 547 301 618 c 0
 385 689 478 725 577 725 c 0
EndSplineSet
EndChar

StartChar: ordfeminine
Encoding: 170 170 130
Width: 564
Flags: HW
HStem: 182 98<77 455> 340 79<182.608 321.967> 528 67<245.363 397> 661 81<203.788 401.916>
LayerCount: 2
Fore
SplineSet
77 280 m 1
 474 280 l 1
 455 182 l 1
 58 182 l 1
 77 280 l 1
353 528 m 2
 266 528 234 512 226 472 c 0
 225.244047244 467.842259842 224.869070868 463.89088189 224.869070868 460.159866151 c 0
 224.869070868 434.277795277 242.913692914 419 277 419 c 0
 334 419 384 461 395 517 c 2
 397 528 l 1
 353 528 l 2
536 569 m 2
 494 350 l 1
 374 350 l 1
 386 412 l 1
 340 363 292 340 231 340 c 0
 147.038306712 340 100.570149725 375.931305621 100.570149725 436.748229862 c 0
 100.570149725 444.743731582 101.373302169 453.16935463 103 462 c 0
 121 554 195 595 342 595 c 2
 409 595 l 1
 411 605 l 2
 411.747258838 608.843045452 412.118455218 612.503757591 412.118455218 615.977270339 c 0
 412.118455218 645.042133861 386.12868056 661 337 661 c 0
 280 661 224 650 168 627 c 1
 185 715 l 1
 249 734 306 742 355 742 c 0
 479.73372112 742 540.827437395 700.559996845 540.827437395 614.497129823 c 0
 540.827437395 600.513949905 539.214651133 585.352790544 536 569 c 2
EndSplineSet
EndChar

StartChar: guillemotleft
Encoding: 171 171 131
Width: 646
Flags: W
LayerCount: 2
Fore
SplineSet
355 519 m 1
 332 401 l 1
 168 293 l 1
 290 185 l 1
 268 67 l 1
 62 247 l 1
 79 338 l 1
 355 519 l 1
589 519 m 1
 566 401 l 1
 402 293 l 1
 524 185 l 1
 502 67 l 1
 296 247 l 1
 313 338 l 1
 589 519 l 1
EndSplineSet
Validated: 1
EndChar

StartChar: logicalnot
Encoding: 172 172 132
Width: 838
Flags: W
HStem: 328 116<129 617>
LayerCount: 2
Fore
SplineSet
129 444 m 1
 755 444 l 1
 696 140 l 1
 581 140 l 1
 617 328 l 1
 106 328 l 1
 129 444 l 1
EndSplineSet
Validated: 1
EndChar

StartChar: minus
Encoding: 8722 8722 133
Width: 838
Flags: W
HStem: 256 115<115 718>
LayerCount: 2
Fore
SplineSet
115 371 m 1
 741 371 l 1
 718 256 l 1
 92 256 l 1
 115 371 l 1
EndSplineSet
Validated: 1
EndChar

StartChar: registered
Encoding: 174 174 134
Width: 1000
Flags: HW
HStem: 0 75<345.475 564.334> 339 66<470 491.72> 506 67<490 568.58> 650 75<449.63 668.166>
LayerCount: 2
Fore
SplineSet
563 650 m 0
 484 650 410 621 343 565 c 0
 275 508 234 441 219 362 c 0
 215.171239339 341.83519385 213.231913512 322.452222804 213.231913512 303.817826202 c 0
 213.231913512 249.447934012 229.741532695 201.450709487 264 159 c 0
 310 103 372 75 451 75 c 0
 531 75 604 103 670 159 c 0
 738 216 780 283 795 362 c 0
 798.734503868 381.668387036 800.60947185 400.592959718 800.60947185 418.804582242 c 0
 800.60947185 473.741722589 783.547521473 522.191114697 749 565 c 0
 703 622 642 650 563 650 c 0
507 506 m 2
 490 506 l 1
 470 405 l 1
 487 405 l 2
 538 405 568 423 574 456 c 0
 574.8430769 459.974505385 575.265488879 463.716919779 575.265488879 467.225496124 c 0
 575.265488879 492.848348265 552.73714303 506 507 506 c 2
538 573 m 2
 639.360876656 573 688.671860669 543.479165367 688.671860669 482.383314628 c 0
 688.671860669 474.162254673 687.779016088 465.369484732 686 456 c 0
 675 400 633 362 568 351 c 1
 592 336 610 310 622 273 c 2
 655 165 l 1
 543 165 l 1
 511 269 l 2
 496 320 482 339 463 339 c 2
 457 339 l 1
 424 165 l 1
 320 165 l 1
 399 573 l 1
 538 573 l 2
577 725 m 0
 676 725 755 689 813 618 c 0
 855.46503799 565.104952679 876.28406225 504.439541456 876.28406225 435.590271594 c 0
 876.28406225 412.024496801 873.844987337 387.499933351 869 362 c 0
 850 263 798 178 713 107 c 0
 628 36 536 0 437 0 c 0
 338 0 258 36 201 107 c 0
 158.53496201 159.895047321 137.71593775 220.560458544 137.71593775 288.996233671 c 0
 137.71593775 312.420477206 140.155012663 336.755065982 145 362 c 0
 164 462 216 547 301 618 c 0
 385 689 478 725 577 725 c 0
EndSplineSet
EndChar

StartChar: macron
Encoding: 175 175 135
Width: 500
Flags: W
HStem: 668 92<180 470>
VStem: 162 326
LayerCount: 2
Fore
SplineSet
180 760 m 1
 488 760 l 1
 470 668 l 1
 162 668 l 1
 180 760 l 1
EndSplineSet
Validated: 1
EndChar

StartChar: degree
Encoding: 176 176 136
Width: 500
Flags: HW
HStem: 424 79<231.282 345.185> 670 79<256.25 369.142>
LayerCount: 2
Fore
SplineSet
317 670 m 0
 270 670 226 633 216 586 c 0
 214.900638418 580.258889518 214.368272438 574.681909342 214.368272438 569.314624762 c 0
 214.368272438 530.742261074 241.863261769 503 284 503 c 0
 331 503 375 539 384 586 c 0
 385.298473458 592.102825253 385.922533588 598.037047173 385.922533588 603.743555484 c 0
 385.922533588 641.98487126 357.897174747 670 317 670 c 0
332 749 m 0
 375 749 413 732 438 701 c 0
 456.382352941 678.205882353 465.573529412 650.545847751 465.573529412 620.007607368 c 0
 465.573529412 609.01384083 464.382352941 597.647058824 462 586 c 0
 454 542 429 501 394 472 c 0
 357 441 312 424 268 424 c 0
 222 424 186 439 161 470 c 0
 142.617647059 492.794117647 133.426470588 519.91349481 133.426470588 550.960589253 c 0
 133.426470588 562.137543253 134.617647059 573.823529412 137 586 c 0
 146 632 170 671 207 702 c 0
 244 733 286 749 332 749 c 0
EndSplineSet
EndChar

StartChar: plusminus
Encoding: 177 177 137
Width: 838
Flags: W
HStem: 0 116<65 669> 339 115<131 363 502 734>
LayerCount: 2
Fore
SplineSet
535 627 m 1
 502 454 l 1
 757 454 l 1
 734 339 l 1
 479 339 l 1
 446 166 l 1
 330 166 l 1
 363 339 l 1
 108 339 l 1
 131 454 l 1
 386 454 l 1
 419 627 l 1
 535 627 l 1
65 116 m 1
 691 116 l 1
 669 0 l 1
 43 0 l 1
 65 116 l 1
EndSplineSet
Validated: 1
EndChar

StartChar: twosuperior
Encoding: 178 178 138
Width: 438
Flags: HW
HStem: 326 82<217 382> 670 72<165.225 311.031>
LayerCount: 2
Fore
SplineSet
217 408 m 1
 398 408 l 1
 382 326 l 1
 53 326 l 1
 67 401 l 1
 246 531 l 2
 293 566 312 590 317 615 c 0
 317.703408608 618.868747344 318.049473454 622.586310789 318.049473454 626.134966325 c 0
 318.049473454 652.855961994 298.427844048 670 264 670 c 0
 224 670 175 656 114 625 c 1
 132 716 l 1
 192 733 247 742 296 742 c 0
 388.092259108 742 440.213813212 706.026365497 440.213813212 646.944701422 c 0
 440.213813212 639.946855029 439.482605558 632.624828585 438 625 c 0
 429 578 403 545 328 489 c 1
 217 408 l 1
EndSplineSet
EndChar

StartChar: threesuperior
Encoding: 179 179 139
Width: 438
Flags: HW
HStem: 319 71<88.9456 262.347> 511 67<170 279.827> 670 72<135.346 307.828>
LayerCount: 2
Fore
SplineSet
332 547 m 1
 381.379346911 536.604348019 408.99468116 506.696132961 408.99468116 465.077116943 c 0
 408.99468116 458.654106052 408.336956682 451.952174748 407 445 c 0
 391 361 319 319 188 319 c 0
 135 319 88 326 47 341 c 1
 63 426 l 1
 102 402 141 390 180 390 c 0
 241 390 281 411 289 450 c 0
 289.853782926 454.375637498 290.28614436 458.512089824 290.28614436 462.410572527 c 0
 290.28614436 495.04111923 259.995785065 511 193 511 c 2
 157 511 l 1
 170 578 l 1
 211 578 l 2
 275 578 306 593 312 626 c 0
 312.640415878 629.09534341 312.961839814 632.03119085 312.961839814 634.806326321 c 0
 312.961839814 658.03119085 290.449729057 670 244 670 c 0
 209 670 167 661 119 644 c 1
 134 725 l 1
 180 736 230 742 286 742 c 0
 383.354563122 742 435.238128453 712.483738276 435.238128453 657.013752349 c 0
 435.238128453 650.378498705 434.495744186 643.37188206 433 636 c 0
 425 592 387 559 332 547 c 1
EndSplineSet
EndChar

StartChar: acute
Encoding: 180 180 140
Width: 500
Flags: W
HStem: 616 184
VStem: 234 312
LayerCount: 2
Fore
SplineSet
408 800 m 1
 546 800 l 1
 330 616 l 1
 234 616 l 1
 408 800 l 1
EndSplineSet
Validated: 1
EndChar

StartChar: mu
Encoding: 181 181 141
Width: 736
Flags: HW
HStem: -209 21G<-19 160.9> -14 131<255.127 380.821 515.5 635.955> 527 20G<124.111 304 498.101 678>
LayerCount: 2
Fore
SplineSet
-19 -209 m 1
 128 547 l 1
 304 547 l 1
 242 229 l 2
 239.200561427 214.816177898 237.794341756 202.025574698 237.794341756 190.602188861 c 0
 237.794341756 140.816591862 264.504158958 117 319 117 c 0
 386 117 425 153 440 229 c 2
 502 547 l 1
 678 547 l 1
 607 181 l 2
 604.511745892 168.005784105 603.246486057 157.457556754 603.246486057 148.996060665 c 0
 603.246486057 126.852376772 611.911816966 119 630 119 c 0
 642 119 652 122 666 130 c 1
 642 8 l 1
 604 -7 574 -14 545 -14 c 0
 486 -14 456 8 444 63 c 1
 403 11 354 -14 297 -14 c 0
 249 -14 218 1 204 32 c 1
 157 -209 l 1
 -19 -209 l 1
EndSplineSet
EndChar

StartChar: paragraph
Encoding: 182 182 142
Width: 636
Flags: HW
HStem: 657 72<428 520>
LayerCount: 2
Fore
SplineSet
373 729 m 2
 627 729 l 1
 467 -96 l 1
 374 -96 l 1
 520 657 l 1
 428 657 l 1
 282 -96 l 1
 189 -96 l 1
 269 317 l 1
 156.613643779 330.83216692 96.5437677073 388.012274534 96.5437677073 478.202461615 c 0
 96.5437677073 492.337432095 98.0192295143 507.283210167 101 523 c 0
 113 585 144 635 193 672 c 0
 244 710 303 729 373 729 c 2
EndSplineSet
EndChar

StartChar: periodcentered
Encoding: 183 183 143
Width: 380
Flags: W
HStem: 253 189<124 264>
VStem: 88 212
LayerCount: 2
Fore
SplineSet
124 442 m 1
 300 442 l 1
 264 253 l 1
 88 253 l 1
 124 442 l 1
EndSplineSet
Validated: 1
EndChar

StartChar: cedilla
Encoding: 184 184 144
Width: 500
Flags: HW
HStem: -196 72<40.5601 179.903> -20 20G<163 245.5>
VStem: 29 236
LayerCount: 2
Fore
SplineSet
231 0 m 1
 254.908642918 -32.9774385073 266.582782017 -61.8767090752 266.582782017 -88.3789058593 c 0
 266.582782017 -94.0225614927 266.053384224 -99.5575148432 265 -105 c 0
 253 -166 208 -196 125 -196 c 0
 94 -196 62 -191 29 -183 c 1
 43 -109 l 1
 73 -120 100 -124 121 -124 c 0
 158 -124 184 -109 190 -82 c 0
 190.375 -79.875 190.5625 -77.609375 190.5625 -75.1953125 c 0
 190.5625 -58.296875 181.375 -34.125 163 0 c 1
 231 0 l 1
EndSplineSet
EndChar

StartChar: onesuperior
Encoding: 185 185 145
Width: 438
Flags: W
HStem: 326 77<84 185 297 382> 714 20G<154.333 361>
VStem: 69 328
LayerCount: 2
Fore
SplineSet
84 403 m 1
 185 403 l 1
 234 657 l 1
 119 632 l 1
 135 710 l 1
 251 734 l 1
 361 734 l 1
 297 403 l 1
 397 403 l 1
 382 326 l 1
 69 326 l 1
 84 403 l 1
EndSplineSet
Validated: 1
EndChar

StartChar: ordmasculine
Encoding: 186 186 146
Width: 564
Flags: HW
HStem: 182 98<72 455> 341 83<251.495 360.188> 659 83<287.843 396.35>
LayerCount: 2
Fore
SplineSet
363 742 m 0
 484.11508933 742 553.60330579 683.540158663 553.60330579 586.466413312 c 0
 553.60330579 572.131657224 552.08804213 556.954884339 549 541 c 0
 525 417 425 341 285 341 c 0
 163.88491067 341 94.3966942098 398.700622619 94.3966942098 495.578993021 c 0
 94.3966942098 509.884898339 95.9119578699 525.045115661 99 541 c 0
 123 665 224 742 363 742 c 0
72 280 m 1
 474 280 l 1
 455 182 l 1
 53 182 l 1
 72 280 l 1
347 659 m 0
 292 659 253 617 239 541 c 0
 235.925393863 525.421995575 234.405314425 511.314489378 234.405314425 498.729152299 c 0
 234.405314425 449.914736759 257.273555834 424 301 424 c 0
 356 424 394 465 409 541 c 0
 411.808046043 556.243678522 413.208034483 570.119529656 413.208034483 582.563000089 c 0
 413.208034483 632.158607136 390.968390544 659 347 659 c 0
EndSplineSet
EndChar

StartChar: guillemotright
Encoding: 187 187 147
Width: 646
Flags: W
LayerCount: 2
Fore
SplineSet
365 519 m 1
 571 338 l 1
 554 247 l 1
 278 67 l 1
 300 185 l 1
 464 293 l 1
 342 401 l 1
 365 519 l 1
131 519 m 1
 336 338 l 1
 319 247 l 1
 44 67 l 1
 66 185 l 1
 230 293 l 1
 108 401 l 1
 131 519 l 1
EndSplineSet
Validated: 1
EndChar

StartChar: onequarter
Encoding: 188 188 148
Width: 1035
Flags: W
HStem: 0 21G<183 307.952 715 830.797> 79 76<628 730 857 909> 326 77<73 173 285 370> 722 12G<143.333 349 770.048 895>
LayerCount: 2
Fore
SplineSet
775 313 m 1
 628 155 l 1
 745 155 l 1
 775 313 l 1
785 408 m 1
 906 408 l 1
 857 155 l 1
 924 155 l 1
 909 79 l 1
 842 79 l 1
 827 0 l 1
 715 0 l 1
 730 79 l 1
 539 79 l 1
 555 161 l 1
 785 408 l 1
292 -14 m 1
 183 -14 l 1
 786 742 l 1
 895 742 l 1
 292 -14 l 1
73 403 m 1
 173 403 l 1
 222 657 l 1
 108 632 l 1
 124 710 l 1
 240 734 l 1
 349 734 l 1
 285 403 l 1
 385 403 l 1
 370 326 l 1
 58 326 l 1
 73 403 l 1
EndSplineSet
Validated: 1
Ligature2: "sous-table Remplacement de ligature lookups11" one fraction four
Ligature2: "sous-table Remplacement de ligature lookups11" one slash four
EndChar

StartChar: onehalf
Encoding: 189 189 149
Width: 1035
Flags: HW
HStem: -14 21G<183 307.952> 0 82<757 924> 326 77<73 173 285 370> 344 72<708.282 851.673> 722 12G<143.333 349 770.048 895>
LayerCount: 2
Fore
SplineSet
757 82 m 1x58
 939 82 l 1
 924 0 l 1
 594 0 l 1
 608 75 l 1
 788 206 l 1
 834 241 854 264 859 289 c 0
 859.656987992 292.503935959 859.978261256 295.899963613 859.978261256 299.169702916 c 0
 859.978261256 325.761142272 838.729578049 344 804 344 c 0
 764 344 718 330 656 299 c 1
 673 390 l 1
 734 407 788 416 836 416 c 0
 928.240022472 416 981.182951388 380.71281395 981.182951388 321.629671626 c 0
 981.182951388 314.737508477 980.462521217 307.521537689 979 300 c 0
 970 253 943 218 868 163 c 2
 757 82 l 1x58
292 -14 m 1x88
 183 -14 l 1
 786 742 l 1
 895 742 l 1
 292 -14 l 1x88
73 403 m 1x28
 173 403 l 1
 222 657 l 1
 108 632 l 1
 124 710 l 1
 240 734 l 1
 349 734 l 1
 285 403 l 1
 385 403 l 1
 370 326 l 1
 58 326 l 1
 73 403 l 1x28
EndSplineSet
Ligature2: "sous-table Remplacement de ligature lookups11" one fraction two
Ligature2: "sous-table Remplacement de ligature lookups11" one slash two
EndChar

StartChar: threequarters
Encoding: 190 190 150
Width: 1035
Flags: HW
HStem: 0 21G<183 307.952 715 830.797> 79 76<628 730 857 909> 319 71<95.9456 269.347> 511 67<177 286.827> 670 72<142.607 314.745>
LayerCount: 2
Fore
SplineSet
785 408 m 1
 906 408 l 1
 857 155 l 1
 924 155 l 1
 909 79 l 1
 842 79 l 1
 827 0 l 1
 715 0 l 1
 730 79 l 1
 539 79 l 1
 555 161 l 1
 785 408 l 1
775 313 m 1
 628 155 l 1
 745 155 l 1
 775 313 l 1
339 547 m 1
 388.379346911 536.604348019 415.99468116 506.696132961 415.99468116 465.077116943 c 0
 415.99468116 458.654106052 415.336956682 451.952174748 414 445 c 0
 398 361 326 319 195 319 c 0
 142 319 95 326 54 341 c 1
 70 426 l 1
 109 402 148 390 187 390 c 0
 248 390 288 411 296 450 c 0
 296.853782926 454.375637498 297.28614436 458.512089824 297.28614436 462.410572527 c 0
 297.28614436 495.04111923 266.995785065 511 200 511 c 2
 164 511 l 1
 177 578 l 1
 218 578 l 2
 282 578 313 593 319 626 c 0
 319.640415878 629.09534341 319.961839814 632.03119085 319.961839814 634.806326321 c 0
 319.961839814 658.03119085 297.449729057 670 251 670 c 0
 216 670 176 661 126 644 c 1
 141 725 l 1
 187 736 237 742 293 742 c 0
 389.608823464 742 442.207910781 712.393450229 442.207910781 656.759247009 c 0
 442.207910781 650.199400738 441.476633995 643.27769612 440 636 c 0
 432 592 394 559 339 547 c 1
292 -14 m 1
 183 -14 l 1
 786 742 l 1
 895 742 l 1
 292 -14 l 1
EndSplineSet
Ligature2: "sous-table Remplacement de ligature lookups11" three fraction four
Ligature2: "sous-table Remplacement de ligature lookups11" three slash four
EndChar

StartChar: questiondown
Encoding: 191 191 151
Width: 580
Flags: HW
HStem: -14 128<231.145 397.512> 555 174<316 458>
LayerCount: 2
Fore
SplineSet
268 482 m 1
 444 482 l 1
 440 458 l 1
 434 431 425 408 410 387 c 0
 395 367 367 341 325 308 c 2
 289 280 l 2
 247 247 224 218 218 187 c 0
 216.88871689 181.443584449 216.341546812 176.146355967 216.341546812 171.129022608 c 0
 216.341546812 135.512245885 243.914650463 114 293 114 c 0
 346 114 413 136 486 179 c 1
 457 26 l 1
 374 -2 307 -14 247 -14 c 0
 107.992840111 -14 35.4822655441 36.4456854172 35.4822655441 131.991288035 c 0
 35.4822655441 145.733227356 36.9822128135 160.408099536 40 176 c 0
 52 240 84 286 156 343 c 1
 193 371 l 1
 244 411 258 431 264 460 c 2
 268 482 l 1
458 555 m 1
 282 555 l 1
 316 729 l 1
 492 729 l 1
 458 555 l 1
EndSplineSet
Position2: "sous-table 'cpsp' Chasses pour composition en capitales dans Latin lookup 1" dx=5 dy=0 dh=10 dv=0
EndChar

StartChar: Agrave
Encoding: 192 192 152
Width: 774
Flags: W
HStem: 0 21G<-58 141.677 513.842 706> 133 135<276 476> 709 20G<341.724 580.539>
LayerCount: 2
Fore
SplineSet
496 133 m 1
 202 133 l 1
 131 0 l 1
 -58 0 l 1
 353 729 l 1
 577 729 l 1
 706 0 l 1
 517 0 l 1
 496 133 l 1
276 268 m 1
 476 268 l 1
 432 558 l 1
 276 268 l 1
467 927 m 1
 539 798 l 1
 443 798 l 1
 329 927 l 1
 467 927 l 1
EndSplineSet
Validated: 1
Position2: "sous-table 'cpsp' Chasses pour composition en capitales dans Latin lookup 1" dx=5 dy=0 dh=10 dv=0
EndChar

StartChar: Aacute
Encoding: 193 193 153
Width: 774
Flags: W
HStem: 0 21G<-58 141.677 513.842 706> 133 135<276 476> 709 20G<341.724 580.539>
LayerCount: 2
Fore
SplineSet
496 133 m 1
 202 133 l 1
 131 0 l 1
 -58 0 l 1
 353 729 l 1
 577 729 l 1
 706 0 l 1
 517 0 l 1
 496 133 l 1
276 268 m 1
 476 268 l 1
 432 558 l 1
 276 268 l 1
517 927 m 1
 655 927 l 1
 491 798 l 1
 395 798 l 1
 517 927 l 1
EndSplineSet
Validated: 1
Position2: "sous-table 'cpsp' Chasses pour composition en capitales dans Latin lookup 1" dx=5 dy=0 dh=10 dv=0
EndChar

StartChar: Acircumflex
Encoding: 194 194 154
Width: 774
Flags: W
HStem: 0 21G<-58 141.677 513.842 706> 133 135<276 476> 709 20G<341.724 580.539>
LayerCount: 2
Fore
SplineSet
496 133 m 1
 202 133 l 1
 131 0 l 1
 -58 0 l 1
 353 729 l 1
 577 729 l 1
 706 0 l 1
 517 0 l 1
 496 133 l 1
276 268 m 1
 476 268 l 1
 432 558 l 1
 276 268 l 1
417 927 m 1
 567 927 l 1
 651 798 l 1
 564 798 l 1
 482 877 l 1
 370 798 l 1
 283 798 l 1
 417 927 l 1
EndSplineSet
Validated: 1
Position2: "sous-table 'cpsp' Chasses pour composition en capitales dans Latin lookup 1" dx=5 dy=0 dh=10 dv=0
EndChar

StartChar: Atilde
Encoding: 195 195 155
Width: 774
Flags: W
HStem: 0 21G<-58 141.677 513.842 706> 133 135<276 476> 709 20G<341.724 580.539> 798 73<501.331 581.449> 855 73<377.631 456.932>
VStem: 297 68<798 843.571> 594 64<882.429 928>
LayerCount: 2
Fore
SplineSet
496 133 m 1xe6
 202 133 l 1
 131 0 l 1
 -58 0 l 1
 353 729 l 1
 577 729 l 1
 706 0 l 1
 517 0 l 1
 496 133 l 1xe6
276 268 m 1
 476 268 l 1
 432 558 l 1
 276 268 l 1
472 822 m 2
 449 839 l 2
 448 840 446 841 444 842 c 0
 431 851 420 855 411 855 c 0xee
 390 855 372 834 365 801 c 1
 365 798 l 1
 297 798 l 1xf6
 297 802 300 809 301 813 c 0
 314 882 361 928 418 928 c 0xee
 442 928 464 920 486 904 c 2
 512 885 l 2
 523 876 535 871 546 871 c 0xf6
 570 871 587 891 594 928 c 1
 662 928 l 1xee
 661 924 659 916 658 913 c 0
 645 844 598 798 541 798 c 0xf6
 517 798 496 805 472 822 c 2
EndSplineSet
Validated: 1
Position2: "sous-table 'cpsp' Chasses pour composition en capitales dans Latin lookup 1" dx=5 dy=0 dh=10 dv=0
EndChar

StartChar: Adieresis
Encoding: 196 196 156
Width: 774
Flags: W
HStem: 0 21G<-58 141.677 513.842 706> 133 135<276 476> 709 20G<341.724 580.539> 807 120<338 429 531 622>
LayerCount: 2
Fore
SplineSet
496 133 m 1
 202 133 l 1
 131 0 l 1
 -58 0 l 1
 353 729 l 1
 577 729 l 1
 706 0 l 1
 517 0 l 1
 496 133 l 1
276 268 m 1
 476 268 l 1
 432 558 l 1
 276 268 l 1
338 927 m 1
 453 927 l 1
 429 807 l 1
 314 807 l 1
 338 927 l 1
531 927 m 1
 646 927 l 1
 622 807 l 1
 507 807 l 1
 531 927 l 1
EndSplineSet
Validated: 1
Position2: "sous-table 'cpsp' Chasses pour composition en capitales dans Latin lookup 1" dx=5 dy=0 dh=10 dv=0
EndChar

StartChar: Aring
Encoding: 197 197 157
Width: 774
Flags: HW
HStem: 0 21G<-58 141.677 513.842 706> 133 135<276 476> 853 75<437.588 532.529>
LayerCount: 2
Fore
SplineSet
579 715 m 1
 706 0 l 1
 517 0 l 1
 496 133 l 1
 202 133 l 1
 131 0 l 1
 -58 0 l 1
 345 715 l 1
 338.466880685 728.719550561 334.921476729 744.14636704 334.921476729 761.001605141 c 0
 334.921476729 769.946046012 335.919871589 779.292734081 338 789 c 0
 345 827 366 860 398 887 c 0
 430 914 466 928 504 928 c 0
 542 928 572 914 594 887 c 0
 610.548249327 866.690784917 618.609580603 842.986802613 618.609580603 816.313639865 c 0
 618.609580603 807.526279335 617.734647941 798.416660253 616 789 c 0
 610 758 598 734 579 715 c 1
413 789 m 0
 412.152554911 784.762774557 411.744801565 780.613487462 411.744801565 776.592948887 c 0
 411.744801565 747.403347473 433.237225443 725 464 725 c 0
 500 725 534 754 541 789 c 0
 541.821415853 793.107079263 542.215965499 797.131539261 542.215965499 801.03621595 c 0
 542.215965499 830.406690614 519.892920737 853 489 853 c 0
 454 853 420 824 413 789 c 0
276 268 m 1
 476 268 l 1
 432 558 l 1
 276 268 l 1
EndSplineSet
Position2: "sous-table 'cpsp' Chasses pour composition en capitales dans Latin lookup 1" dx=5 dy=0 dh=10 dv=0
EndChar

StartChar: AE
Encoding: 198 198 158
Width: 1085
Flags: W
HStem: 0 142<646 949> 171 135<306 464> 309 142<706 979> 587 142<733 1052> 604 125<489 548>
LayerCount: 2
Fore
SplineSet
489 604 m 1xe8
 306 306 l 1
 490 306 l 1
 548 604 l 1
 489 604 l 1xe8
383 729 m 1
 1079 729 l 1xe8
 1052 587 l 1
 733 587 l 1xf0
 706 451 l 1
 1006 451 l 1
 979 309 l 1
 679 309 l 1
 646 142 l 1
 976 142 l 1
 949 0 l 1
 431 0 l 1
 464 171 l 1
 223 171 l 1
 118 0 l 1
 -63 0 l 1
 383 729 l 1
EndSplineSet
Validated: 1
Ligature2: "sous-table 'dpng' Dipthongs (Obsolete) dans Latin lookup 9" A e
Ligature2: "sous-table 'dpng' Dipthongs (Obsolete) dans Latin lookup 9" A E
Position2: "sous-table 'cpsp' Chasses pour composition en capitales dans Latin lookup 1" dx=5 dy=0 dh=10 dv=0
EndChar

StartChar: Ccedilla
Encoding: 199 199 159
Width: 734
Flags: HW
HStem: -196 72<221.56 360.903> -14 14<344 412> 606 136<408.465 630.112>
LayerCount: 2
Fore
SplineSet
614 40 m 1
 538 4 460 -14 379 -14 c 0
 258 -14 167 20 109 87 c 1
 68.0192049199 135.889369569 47.7146248647 197.184468154 47.7146248647 271.256930722 c 0
 47.7146248647 300.211516755 50.8171489783 331.118474112 57 364 c 0
 80 481 133 573 217 640 c 0
 301 708 405 742 526 742 c 0
 607 742 678 724 740 688 c 1
 711 537 l 1
 651 585 589 606 514 606 c 0
 379 606 281 515 251 364 c 0
 246.348242706 339.778780989 244.063636215 317.101355979 244.063636215 296.095668651 c 0
 244.063636215 186.147633749 306.654732229 122 420 122 c 0
 495 122 565 143 644 191 c 1
 614 40 l 1
412 0 m 1
 435.908642918 -32.9774385073 447.582782017 -61.8767090752 447.582782017 -88.3789058593 c 0
 447.582782017 -94.0225614927 447.053384224 -99.5575148432 446 -105 c 0
 434 -166 389 -196 306 -196 c 0
 275 -196 243 -191 210 -183 c 1
 224 -109 l 1
 254 -120 281 -124 302 -124 c 0
 339 -124 365 -109 371 -82 c 0
 371.375 -79.875 371.5625 -77.609375 371.5625 -75.1953125 c 0
 371.5625 -58.296875 362.375 -34.125 344 0 c 1
 412 0 l 1
EndSplineSet
Position2: "sous-table 'cpsp' Chasses pour composition en capitales dans Latin lookup 1" dx=5 dy=0 dh=10 dv=0
EndChar

StartChar: Egrave
Encoding: 200 200 160
Width: 683
Flags: W
HStem: 0 142<244 547> 309 142<304 577> 587 142<331 650>
LayerCount: 2
Fore
SplineSet
170 729 m 1
 677 729 l 1
 650 587 l 1
 331 587 l 1
 304 451 l 1
 604 451 l 1
 577 309 l 1
 277 309 l 1
 244 142 l 1
 574 142 l 1
 547 0 l 1
 29 0 l 1
 170 729 l 1
430 927 m 1
 502 798 l 1
 406 798 l 1
 292 927 l 1
 430 927 l 1
EndSplineSet
Validated: 1
Position2: "sous-table 'cpsp' Chasses pour composition en capitales dans Latin lookup 1" dx=5 dy=0 dh=10 dv=0
EndChar

StartChar: Eacute
Encoding: 201 201 161
Width: 683
Flags: W
HStem: 0 142<244 547> 309 142<304 577> 587 142<331 650>
LayerCount: 2
Fore
SplineSet
170 729 m 1
 677 729 l 1
 650 587 l 1
 331 587 l 1
 304 451 l 1
 604 451 l 1
 577 309 l 1
 277 309 l 1
 244 142 l 1
 574 142 l 1
 547 0 l 1
 29 0 l 1
 170 729 l 1
480 927 m 1
 618 927 l 1
 454 798 l 1
 358 798 l 1
 480 927 l 1
EndSplineSet
Validated: 1
Position2: "sous-table 'cpsp' Chasses pour composition en capitales dans Latin lookup 1" dx=5 dy=0 dh=10 dv=0
EndChar

StartChar: Ecircumflex
Encoding: 202 202 162
Width: 683
Flags: W
HStem: 0 142<244 547> 309 142<304 577> 587 142<331 650>
LayerCount: 2
Fore
SplineSet
170 729 m 1
 677 729 l 1
 650 587 l 1
 331 587 l 1
 304 451 l 1
 604 451 l 1
 577 309 l 1
 277 309 l 1
 244 142 l 1
 574 142 l 1
 547 0 l 1
 29 0 l 1
 170 729 l 1
380 927 m 1
 530 927 l 1
 614 798 l 1
 527 798 l 1
 445 877 l 1
 333 798 l 1
 246 798 l 1
 380 927 l 1
EndSplineSet
Validated: 1
Position2: "sous-table 'cpsp' Chasses pour composition en capitales dans Latin lookup 1" dx=5 dy=0 dh=10 dv=0
EndChar

StartChar: Edieresis
Encoding: 203 203 163
Width: 683
Flags: W
HStem: 0 142<244 547> 309 142<304 577> 587 142<331 650> 807 120<301 392 494 585>
LayerCount: 2
Fore
SplineSet
170 729 m 1
 677 729 l 1
 650 587 l 1
 331 587 l 1
 304 451 l 1
 604 451 l 1
 577 309 l 1
 277 309 l 1
 244 142 l 1
 574 142 l 1
 547 0 l 1
 29 0 l 1
 170 729 l 1
301 927 m 1
 416 927 l 1
 392 807 l 1
 277 807 l 1
 301 927 l 1
494 927 m 1
 609 927 l 1
 585 807 l 1
 470 807 l 1
 494 927 l 1
EndSplineSet
Validated: 1
Position2: "sous-table 'cpsp' Chasses pour composition en capitales dans Latin lookup 1" dx=5 dy=0 dh=10 dv=0
EndChar

StartChar: Igrave
Encoding: 204 204 164
Width: 372
Flags: W
HStem: 0 21G<29 220.868> 709 20G<166.132 358>
VStem: 29 329
LayerCount: 2
Fore
SplineSet
170 729 m 1
 358 729 l 1
 217 0 l 1
 29 0 l 1
 170 729 l 1
266 927 m 1
 338 798 l 1
 242 798 l 1
 128 927 l 1
 266 927 l 1
EndSplineSet
Validated: 1
Position2: "sous-table 'cpsp' Chasses pour composition en capitales dans Latin lookup 1" dx=5 dy=0 dh=10 dv=0
EndChar

StartChar: Iacute
Encoding: 205 205 165
Width: 372
Flags: W
HStem: 0 21G<29 220.868> 709 20G<166.132 358>
LayerCount: 2
Fore
SplineSet
170 729 m 1
 358 729 l 1
 217 0 l 1
 29 0 l 1
 170 729 l 1
316 927 m 1
 454 927 l 1
 290 798 l 1
 194 798 l 1
 316 927 l 1
EndSplineSet
Validated: 1
Position2: "sous-table 'cpsp' Chasses pour composition en capitales dans Latin lookup 1" dx=5 dy=0 dh=10 dv=0
EndChar

StartChar: Icircumflex
Encoding: 206 206 166
Width: 372
Flags: W
HStem: 0 21G<29 220.868> 709 20G<166.132 358>
LayerCount: 2
Fore
SplineSet
170 729 m 1
 358 729 l 1
 217 0 l 1
 29 0 l 1
 170 729 l 1
216 927 m 1
 366 927 l 1
 450 798 l 1
 363 798 l 1
 281 877 l 1
 169 798 l 1
 82 798 l 1
 216 927 l 1
EndSplineSet
Validated: 1
Position2: "sous-table 'cpsp' Chasses pour composition en capitales dans Latin lookup 1" dx=5 dy=0 dh=10 dv=0
EndChar

StartChar: Idieresis
Encoding: 207 207 167
Width: 372
Flags: W
HStem: 0 21G<29 220.868> 709 20G<166.132 358> 807 120<137 228 330 421>
LayerCount: 2
Fore
SplineSet
170 729 m 1
 358 729 l 1
 217 0 l 1
 29 0 l 1
 170 729 l 1
137 927 m 1
 252 927 l 1
 228 807 l 1
 113 807 l 1
 137 927 l 1
330 927 m 1
 445 927 l 1
 421 807 l 1
 306 807 l 1
 330 927 l 1
EndSplineSet
Validated: 1
Position2: "sous-table 'cpsp' Chasses pour composition en capitales dans Latin lookup 1" dx=5 dy=0 dh=10 dv=0
EndChar

StartChar: Eth
Encoding: 208 208 168
Width: 838
Flags: HW
HStem: 0 142<253 441.543> 303 127<36 96 309 399> 587 142<340 521.57>
LayerCount: 2
Fore
SplineSet
340 587 m 1
 309 430 l 1
 424 430 l 1
 399 303 l 1
 284 303 l 1
 253 142 l 1
 320 142 l 2
 473 142 572 220 600 365 c 0
 604.408127279 387.040636394 606.598142469 407.51011006 606.598142469 426.376811986 c 0
 606.598142469 531.629565157 538.439319716 587 407 587 c 2
 340 587 l 1
179 729 m 1
 377 729 l 2
 488 729 569 721 620 705 c 0
 671 690 712 663 744 625 c 0
 783.430675087 578.400111261 803.330252905 521.006721401 803.330252905 452.082869317 c 0
 803.330252905 424.868071574 800.227729965 395.855571192 794 365 c 0
 773 256 723 169 643 104 c 0
 596 66 544 39 486 23 c 0
 428 8 345 0 236 0 c 2
 38 0 l 1
 96 303 l 1
 11 303 l 1
 36 430 l 1
 121 430 l 1
 179 729 l 1
EndSplineSet
Position2: "sous-table 'cpsp' Chasses pour composition en capitales dans Latin lookup 1" dx=5 dy=0 dh=10 dv=0
EndChar

StartChar: Ntilde
Encoding: 209 209 169
Width: 837
Flags: W
HStem: 0 21G<29 210.88 465.28 685.868> 709 20G<166.132 386.72 641.12 823> 798 73<527.331 607.449> 855 73<403.631 482.932>
VStem: 323 68<798 843.571> 620 64<882.429 928>
LayerCount: 2
Fore
SplineSet
170 729 m 1xcc
 380 729 l 1
 548 229 l 1
 645 729 l 1
 823 729 l 1
 682 0 l 1
 472 0 l 1
 304 500 l 1
 207 0 l 1
 29 0 l 1
 170 729 l 1xcc
498 822 m 2
 475 839 l 2
 474 840 472 841 470 842 c 0
 457 851 446 855 437 855 c 0xdc
 416 855 398 834 391 801 c 1
 391 798 l 1
 323 798 l 1xec
 323 802 326 809 327 813 c 0
 340 882 387 928 444 928 c 0xdc
 468 928 490 920 512 904 c 2
 538 885 l 2
 549 876 561 871 572 871 c 0xec
 596 871 613 891 620 928 c 1
 688 928 l 1xdc
 687 924 685 916 684 913 c 0
 671 844 624 798 567 798 c 0xec
 543 798 522 805 498 822 c 2
EndSplineSet
Validated: 1
Position2: "sous-table 'cpsp' Chasses pour composition en capitales dans Latin lookup 1" dx=5 dy=0 dh=10 dv=0
EndChar

StartChar: Ograve
Encoding: 210 210 170
Width: 850
Flags: HW
HStem: -14 136<305.293 473.531> 606 136<391.034 559.29>
LayerCount: 2
Fore
SplineSet
479 606 m 0
 364 606 281 517 251 364 c 0
 245.470498461 334.827112571 242.740408123 307.981008477 242.740408123 283.634989874 c 0
 242.740408123 180.295983975 291.927333689 122 385 122 c 0
 500 122 584 211 613 364 c 0
 618.788085471 393.519235904 621.635445676 420.656112098 621.635445676 445.231080384 c 0
 621.635445676 548.029671492 571.812339026 606 479 606 c 0
506 742 m 0
 623 742 708 708 761 641 c 0
 798.722455762 594.196212296 817.413236942 535.192633193 817.413236942 463.648369291 c 0
 817.413236942 432.776441757 813.933028101 399.569448521 807 364 c 0
 784 246 733 153 653 86 c 0
 574 19 476 -14 359 -14 c 0
 242 -14 157 19 103 86 c 0
 65.2775442382 132.803787704 46.5867630578 192.295358463 46.5867630578 264.133818875 c 0
 46.5867630578 295.132694578 50.0669718985 328.430551479 57 364 c 0
 80 482 131 574 211 641 c 0
 291 708 389 742 506 742 c 0
505 927 m 1
 577 798 l 1
 481 798 l 1
 367 927 l 1
 505 927 l 1
EndSplineSet
Position2: "sous-table 'cpsp' Chasses pour composition en capitales dans Latin lookup 1" dx=5 dy=0 dh=10 dv=0
EndChar

StartChar: Oacute
Encoding: 211 211 171
Width: 850
Flags: HW
HStem: -14 136<305.293 473.531> 606 136<391.034 559.29>
LayerCount: 2
Fore
SplineSet
479 606 m 0
 364 606 281 517 251 364 c 0
 245.470498461 334.827112571 242.740408123 307.981008477 242.740408123 283.634989874 c 0
 242.740408123 180.295983975 291.927333689 122 385 122 c 0
 500 122 584 211 613 364 c 0
 618.788085471 393.519235904 621.635445676 420.656112098 621.635445676 445.231080384 c 0
 621.635445676 548.029671492 571.812339026 606 479 606 c 0
506 742 m 0
 623 742 708 708 761 641 c 0
 798.722455762 594.196212296 817.413236942 535.192633193 817.413236942 463.648369291 c 0
 817.413236942 432.776441757 813.933028101 399.569448521 807 364 c 0
 784 246 733 153 653 86 c 0
 574 19 476 -14 359 -14 c 0
 242 -14 157 19 103 86 c 0
 65.2775442382 132.803787704 46.5867630578 192.295358463 46.5867630578 264.133818875 c 0
 46.5867630578 295.132694578 50.0669718985 328.430551479 57 364 c 0
 80 482 131 574 211 641 c 0
 291 708 389 742 506 742 c 0
555 927 m 1
 693 927 l 1
 529 798 l 1
 433 798 l 1
 555 927 l 1
EndSplineSet
Position2: "sous-table 'cpsp' Chasses pour composition en capitales dans Latin lookup 1" dx=5 dy=0 dh=10 dv=0
EndChar

StartChar: Ocircumflex
Encoding: 212 212 172
Width: 850
Flags: HW
HStem: -14 136<305.293 473.531> 606 136<391.034 559.29>
LayerCount: 2
Fore
SplineSet
479 606 m 0
 364 606 281 517 251 364 c 0
 245.470498461 334.827112571 242.740408123 307.981008477 242.740408123 283.634989874 c 0
 242.740408123 180.295983975 291.927333689 122 385 122 c 0
 500 122 584 211 613 364 c 0
 618.788085471 393.519235904 621.635445676 420.656112098 621.635445676 445.231080384 c 0
 621.635445676 548.029671492 571.812339026 606 479 606 c 0
506 742 m 0
 623 742 708 708 761 641 c 0
 798.722455762 594.196212296 817.413236942 535.192633193 817.413236942 463.648369291 c 0
 817.413236942 432.776441757 813.933028101 399.569448521 807 364 c 0
 784 246 733 153 653 86 c 0
 574 19 476 -14 359 -14 c 0
 242 -14 157 19 103 86 c 0
 65.2775442382 132.803787704 46.5867630578 192.295358463 46.5867630578 264.133818875 c 0
 46.5867630578 295.132694578 50.0669718985 328.430551479 57 364 c 0
 80 482 131 574 211 641 c 0
 291 708 389 742 506 742 c 0
455 927 m 1
 605 927 l 1
 689 798 l 1
 602 798 l 1
 520 877 l 1
 408 798 l 1
 321 798 l 1
 455 927 l 1
EndSplineSet
Position2: "sous-table 'cpsp' Chasses pour composition en capitales dans Latin lookup 1" dx=5 dy=0 dh=10 dv=0
EndChar

StartChar: Otilde
Encoding: 213 213 173
Width: 850
Flags: HW
HStem: -14 136<305.293 473.531> 606 136<391.034 559.29> 798 73<539.331 619.449> 855 73<415.631 494.932>
VStem: 335 68<798 843.571> 632 64<882.429 928>
LayerCount: 2
Fore
SplineSet
479 606 m 0xcc
 364 606 281 517 251 364 c 0
 245.470498461 334.827112571 242.740408123 307.981008477 242.740408123 283.634989874 c 0
 242.740408123 180.295983975 291.927333689 122 385 122 c 0
 500 122 584 211 613 364 c 0
 618.788085471 393.519235904 621.635445676 420.656112098 621.635445676 445.231080384 c 0
 621.635445676 548.029671492 571.812339026 606 479 606 c 0xcc
506 742 m 0
 623 742 708 708 761 641 c 0
 798.722455762 594.196212296 817.413236942 535.192633193 817.413236942 463.648369291 c 0
 817.413236942 432.776441757 813.933028101 399.569448521 807 364 c 0
 784 246 733 153 653 86 c 0
 574 19 476 -14 359 -14 c 0
 242 -14 157 19 103 86 c 0
 65.2775442382 132.803787704 46.5867630578 192.295358463 46.5867630578 264.133818875 c 0
 46.5867630578 295.132694578 50.0669718985 328.430551479 57 364 c 0
 80 482 131 574 211 641 c 0
 291 708 389 742 506 742 c 0
510 822 m 2
 487 839 l 2
 486 840 484 841 482 842 c 0
 469 851 458 855 449 855 c 0xdc
 428 855 410 834 403 801 c 1
 403 798 l 1
 335 798 l 1xec
 335 802 338 809 339 813 c 0
 352 882 399 928 456 928 c 0xdc
 480 928 502 920 524 904 c 2
 550 885 l 2
 561 876 573 871 584 871 c 0xec
 608 871 625 891 632 928 c 1
 700 928 l 1xdc
 699 924 697 916 696 913 c 0
 683 844 636 798 579 798 c 0xec
 555 798 534 805 510 822 c 2
EndSplineSet
Position2: "sous-table 'cpsp' Chasses pour composition en capitales dans Latin lookup 1" dx=5 dy=0 dh=10 dv=0
EndChar

StartChar: Odieresis
Encoding: 214 214 174
Width: 850
Flags: HW
HStem: -14 136<305.293 473.531> 606 136<391.034 559.29> 807 120<376 467 569 660>
LayerCount: 2
Fore
SplineSet
479 606 m 0
 364 606 281 517 251 364 c 0
 245.470498461 334.827112571 242.740408123 307.981008477 242.740408123 283.634989874 c 0
 242.740408123 180.295983975 291.927333689 122 385 122 c 0
 500 122 584 211 613 364 c 0
 618.788085471 393.519235904 621.635445676 420.656112098 621.635445676 445.231080384 c 0
 621.635445676 548.029671492 571.812339026 606 479 606 c 0
506 742 m 0
 623 742 708 708 761 641 c 0
 798.722455762 594.196212296 817.413236942 535.192633193 817.413236942 463.648369291 c 0
 817.413236942 432.776441757 813.933028101 399.569448521 807 364 c 0
 784 246 733 153 653 86 c 0
 574 19 476 -14 359 -14 c 0
 242 -14 157 19 103 86 c 0
 65.2775442382 132.803787704 46.5867630578 192.295358463 46.5867630578 264.133818875 c 0
 46.5867630578 295.132694578 50.0669718985 328.430551479 57 364 c 0
 80 482 131 574 211 641 c 0
 291 708 389 742 506 742 c 0
376 927 m 1
 491 927 l 1
 467 807 l 1
 352 807 l 1
 376 927 l 1
569 927 m 1
 684 927 l 1
 660 807 l 1
 545 807 l 1
 569 927 l 1
EndSplineSet
Position2: "sous-table 'cpsp' Chasses pour composition en capitales dans Latin lookup 1" dx=5 dy=0 dh=10 dv=0
EndChar

StartChar: multiply
Encoding: 215 215 175
Width: 838
Flags: W
LayerCount: 2
Fore
SplineSet
752 525 m 1
 498 313 l 1
 669 102 l 1
 571 20 l 1
 400 231 l 1
 147 20 l 1
 81 102 l 1
 334 313 l 1
 164 525 l 1
 261 607 l 1
 432 395 l 1
 685 607 l 1
 752 525 l 1
EndSplineSet
Validated: 1
EndChar

StartChar: Oslash
Encoding: 216 216 176
Width: 850
Flags: HW
HStem: -14 136<303.821 473.531> 606 136<391.034 559.931> 745 20G<829.082 868.714>
LayerCount: 2
Fore
SplineSet
267 181 m 1
 292 141 330 122 385 122 c 0
 500 122 584 211 613 364 c 0
 619.068111528 393.666323024 622.408669165 420.605092158 622.408669165 444.816307402 c 0
 622.408669165 456.514276788 621.628826929 467.575507654 620 478 c 1
 267 181 l 1
596 550 m 1
 571 587 532 606 479 606 c 0
 364 606 281 517 251 364 c 0
 245.332020977 334.951607507 242.675853161 306.907152083 242.675853161 282.711780852 c 0
 242.675853161 272.756889871 243.125492134 263.453576042 244 255 c 1
 596 550 l 1
82 119 m 1
 58.5851918448 161.276736947 47.0153611174 210.322032424 47.0153611174 266.686179832 c 0
 47.0153611174 296.981265045 50.3578154153 329.390722427 57 364 c 0
 80 482 131 574 211 641 c 0
 291 708 389 742 506 742 c 0
 606 742 680 719 737 668 c 1
 853 765 l 1
 897 709 l 1
 780 612 l 1
 805.328184795 569.786358674 817.581402269 519.98080084 817.581402269 462.857243112 c 0
 817.581402269 432.022711091 814.011187284 399.055936422 807 364 c 0
 784 246 733 153 653 86 c 0
 574 19 476 -14 359 -14 c 0
 259 -14 182 11 125 63 c 1
 7 -36 l 1
 -38 19 l 1
 82 119 l 1
EndSplineSet
Position2: "sous-table 'cpsp' Chasses pour composition en capitales dans Latin lookup 1" dx=5 dy=0 dh=10 dv=0
EndChar

StartChar: Ugrave
Encoding: 217 217 177
Width: 812
Flags: HW
HStem: -14 138<292.377 449.879> 709 20G<166.11 358 606.11 798>
LayerCount: 2
Fore
SplineSet
170 729 m 1
 358 729 l 1
 273 292 l 2
 267.923572531 265.514291468 265.331598575 242.536046718 265.331598575 222.807216685 c 0
 265.331598575 153.149742362 297.643567161 124 367 124 c 0
 456 124 502 172 525 292 c 2
 610 729 l 1
 798 729 l 1
 713 292 l 2
 673 85 552 -14 340 -14 c 0
 162.335907972 -14 75.2695446261 55.5284894541 75.2695446261 199.882516368 c 0
 75.2695446261 227.780818872 78.5215267978 258.473901179 85 292 c 2
 170 729 l 1
486 927 m 1
 558 798 l 1
 462 798 l 1
 348 927 l 1
 486 927 l 1
EndSplineSet
Position2: "sous-table 'cpsp' Chasses pour composition en capitales dans Latin lookup 1" dx=5 dy=0 dh=10 dv=0
EndChar

StartChar: Uacute
Encoding: 218 218 178
Width: 812
Flags: HW
HStem: -14 138<292.377 449.879> 709 20G<166.11 358 606.11 798>
LayerCount: 2
Fore
SplineSet
170 729 m 1
 358 729 l 1
 273 292 l 2
 267.923572531 265.514291468 265.331598575 242.536046718 265.331598575 222.807216685 c 0
 265.331598575 153.149742362 297.643567161 124 367 124 c 0
 456 124 502 172 525 292 c 2
 610 729 l 1
 798 729 l 1
 713 292 l 2
 673 85 552 -14 340 -14 c 0
 162.335907972 -14 75.2695446261 55.5284894541 75.2695446261 199.882516368 c 0
 75.2695446261 227.780818872 78.5215267978 258.473901179 85 292 c 2
 170 729 l 1
536 927 m 1
 674 927 l 1
 510 798 l 1
 414 798 l 1
 536 927 l 1
EndSplineSet
Position2: "sous-table 'cpsp' Chasses pour composition en capitales dans Latin lookup 1" dx=5 dy=0 dh=10 dv=0
EndChar

StartChar: Ucircumflex
Encoding: 219 219 179
Width: 812
Flags: HW
HStem: -14 138<292.377 449.879> 709 20G<166.11 358 606.11 798>
LayerCount: 2
Fore
SplineSet
170 729 m 1
 358 729 l 1
 273 292 l 2
 267.923572531 265.514291468 265.331598575 242.536046718 265.331598575 222.807216685 c 0
 265.331598575 153.149742362 297.643567161 124 367 124 c 0
 456 124 502 172 525 292 c 2
 610 729 l 1
 798 729 l 1
 713 292 l 2
 673 85 552 -14 340 -14 c 0
 162.335907972 -14 75.2695446261 55.5284894541 75.2695446261 199.882516368 c 0
 75.2695446261 227.780818872 78.5215267978 258.473901179 85 292 c 2
 170 729 l 1
436 927 m 1
 586 927 l 1
 670 798 l 1
 583 798 l 1
 501 877 l 1
 389 798 l 1
 302 798 l 1
 436 927 l 1
EndSplineSet
Position2: "sous-table 'cpsp' Chasses pour composition en capitales dans Latin lookup 1" dx=5 dy=0 dh=10 dv=0
EndChar

StartChar: Udieresis
Encoding: 220 220 180
Width: 812
Flags: HW
HStem: -14 138<292.377 449.879> 709 20G<166.11 358 606.11 798> 807 120<357 448 550 641>
LayerCount: 2
Fore
SplineSet
170 729 m 1
 358 729 l 1
 273 292 l 2
 267.923572531 265.514291468 265.331598575 242.536046718 265.331598575 222.807216685 c 0
 265.331598575 153.149742362 297.643567161 124 367 124 c 0
 456 124 502 172 525 292 c 2
 610 729 l 1
 798 729 l 1
 713 292 l 2
 673 85 552 -14 340 -14 c 0
 162.335907972 -14 75.2695446261 55.5284894541 75.2695446261 199.882516368 c 0
 75.2695446261 227.780818872 78.5215267978 258.473901179 85 292 c 2
 170 729 l 1
357 927 m 1
 472 927 l 1
 448 807 l 1
 333 807 l 1
 357 927 l 1
550 927 m 1
 665 927 l 1
 641 807 l 1
 526 807 l 1
 550 927 l 1
EndSplineSet
Position2: "sous-table 'cpsp' Chasses pour composition en capitales dans Latin lookup 1" dx=5 dy=0 dh=10 dv=0
EndChar

StartChar: Yacute
Encoding: 221 221 181
Width: 724
Flags: W
HStem: 0 21G<205 396.844> 709 20G<68 282.923 589.385 812>
LayerCount: 2
Fore
SplineSet
68 729 m 1
 274 729 l 1
 390 469 l 1
 606 729 l 1
 812 729 l 1
 452 307 l 1
 393 0 l 1
 205 0 l 1
 264 307 l 1
 68 729 l 1
492 927 m 1
 630 927 l 1
 466 798 l 1
 370 798 l 1
 492 927 l 1
EndSplineSet
Validated: 1
Position2: "sous-table 'cpsp' Chasses pour composition en capitales dans Latin lookup 1" dx=5 dy=0 dh=10 dv=0
EndChar

StartChar: Thorn
Encoding: 222 222 182
Width: 738
Flags: HW
HStem: 0 21G<29 220.81> 126 136<267 446.859> 467 135<334 483.333> 709 20G<166.132 358>
LayerCount: 2
Fore
SplineSet
241 126 m 1
 217 0 l 1
 29 0 l 1
 170 729 l 1
 358 729 l 1
 334 602 l 1
 458 602 l 2
 618.846513384 602 704.856255813 537.746206757 704.856255813 420.411591745 c 0
 704.856255813 402.792061215 702.916781613 383.975586229 699 364 c 0
 670 212 550 126 365 126 c 2
 241 126 l 1
307 467 m 1
 267 262 l 1
 371 262 l 2
 443 262 493 299 505 364 c 0
 506.788614222 372.943071111 507.668596728 381.37503688 507.668596728 389.267248099 c 0
 507.668596728 438.737180472 473.093828924 467 411 467 c 2
 307 467 l 1
EndSplineSet
Position2: "sous-table 'cpsp' Chasses pour composition en capitales dans Latin lookup 1" dx=5 dy=0 dh=10 dv=0
EndChar

StartChar: germandbls
Encoding: 223 223 183
Width: 719
Flags: HW
HStem: -14 116<289.056 445.657> 0 21G<21 199.873> 644 116<348.548 480.954>
LayerCount: 2
Fore
SplineSet
126 544 m 2x60
 154 688 256 760 433 760 c 0
 580.449918828 760 655.777700227 704.235460751 655.777700227 598.476541402 c 0
 655.777700227 581.585171402 653.856153642 563.418487984 650 544 c 2
 643 509 l 1
 543 502 493 478 484 430 c 0
 483.15881689 425.962321073 482.657276512 422.207677756 482.657276512 418.597980879 c 0
 482.657276512 400.751606927 494.916540964 386.448191475 539 359 c 1
 570 341 l 1
 625.116783628 307.767821636 650.012643267 265.994947363 650.012643267 210.888819265 c 0
 650.012643267 198.008093558 648.6524269 184.398888887 646 170 c 0
 622 47 536 -14 385 -14 c 0
 342 -14 299 -6 254 10 c 1
 278 129 l 1
 310 112 346 102 382 102 c 0xa0
 429 102 465 128 473 165 c 1
 473.485281374 168.639610307 473.735064736 172.161471607 473.735064736 175.565583902 c 0
 473.735064736 186.190908859 471.30151519 195.669047558 466 204 c 0
 459 215 442 230 414 248 c 2
 383 267 l 1
 342.138827279 293.151150542 321.981133966 326.648697002 321.981133966 370.22156986 c 0
 321.981133966 379.966883872 322.989457999 390.216183811 325 401 c 0
 340 477 394 527 495 559 c 1
 496.397020836 566.823316679 497.091441474 574.119683211 497.091441474 580.883646555 c 0
 497.091441474 622.536737354 470.75757707 644 420 644 c 0
 355 644 314 608 300 537 c 2
 196 0 l 1
 21 0 l 1
 126 544 l 2x60
EndSplineSet
EndChar

StartChar: agrave
Encoding: 224 224 184
Width: 675
Flags: HW
HStem: -14 116<139.5 276.774> 0 21G<357 536.846> 246 104<225.259 404> 444 116<164.082 407.738>
LayerCount: 2
Fore
SplineSet
313 246 m 2xb0
 240 246 198 221 189 173 c 0
 188.045423284 167.74982806 187.574930443 162.741698059 187.574930443 157.992598789 c 0
 187.574930443 122.941026713 213.204748656 102 259 102 c 0
 326 102 387 155 400 226 c 1
 404 246 l 1
 313 246 l 2xb0
593 312 m 2
 533 0 l 1
 357 0 l 1x70
 372 81 l 1
 312 14 252 -14 168 -14 c 0
 111 -14 68 2 39 35 c 0
 18.0897583453 59.6442133787 7.21814897259 89.8654446918 7.21814897259 125.663693939 c 0
 7.21814897259 137.801331588 8.46794344809 150.580100275 11 164 c 0
 36 292 133 350 322 350 c 2
 425 350 l 1
 427 364 l 1
 428.227702902 370.138514508 428.845030049 375.903329574 428.845030049 381.301396591 c 0
 428.845030049 424.269051533 389.731939368 444 308 444 c 0
 233 444 166 428 105 399 c 1
 131 532 l 1
 210 551 286 560 362 560 c 0
 526.860638524 560 601.378962447 508.876054528 601.378962447 389.632025447 c 0
 601.378962447 366.385561108 598.546894874 340.550194204 593 312 c 2
367 800 m 1
 469 616 l 1
 373 616 l 1
 229 800 l 1
 367 800 l 1
EndSplineSet
EndChar

StartChar: aacute
Encoding: 225 225 185
Width: 675
Flags: HW
HStem: -14 116<139.5 276.774> 0 21G<357 536.846> 246 104<225.259 404> 444 116<164.082 407.738>
LayerCount: 2
Fore
SplineSet
313 246 m 2xb0
 240 246 198 221 189 173 c 0
 188.045423284 167.74982806 187.574930443 162.741698059 187.574930443 157.992598789 c 0
 187.574930443 122.941026713 213.204748656 102 259 102 c 0
 326 102 387 155 400 226 c 1
 404 246 l 1
 313 246 l 2xb0
593 312 m 2
 533 0 l 1
 357 0 l 1x70
 372 81 l 1
 312 14 252 -14 168 -14 c 0
 111 -14 68 2 39 35 c 0
 18.0897583453 59.6442133787 7.21814897259 89.8654446918 7.21814897259 125.663693939 c 0
 7.21814897259 137.801331588 8.46794344809 150.580100275 11 164 c 0
 36 292 133 350 322 350 c 2
 425 350 l 1
 427 364 l 1
 428.227702902 370.138514508 428.845030049 375.903329574 428.845030049 381.301396591 c 0
 428.845030049 424.269051533 389.731939368 444 308 444 c 0
 233 444 166 428 105 399 c 1
 131 532 l 1
 210 551 286 560 362 560 c 0
 526.860638524 560 601.378962447 508.876054528 601.378962447 389.632025447 c 0
 601.378962447 366.385561108 598.546894874 340.550194204 593 312 c 2
499 800 m 1
 637 800 l 1
 421 616 l 1
 325 616 l 1
 499 800 l 1
EndSplineSet
EndChar

StartChar: acircumflex
Encoding: 226 226 186
Width: 675
Flags: HW
HStem: -14 116<139.5 276.774> 0 21G<357 536.846> 246 104<225.259 404> 444 116<164.082 407.738>
LayerCount: 2
Fore
SplineSet
313 246 m 2xb0
 240 246 198 221 189 173 c 0
 188.045423284 167.74982806 187.574930443 162.741698059 187.574930443 157.992598789 c 0
 187.574930443 122.941026713 213.204748656 102 259 102 c 0
 326 102 387 155 400 226 c 1
 404 246 l 1
 313 246 l 2xb0
593 312 m 2
 533 0 l 1
 357 0 l 1x70
 372 81 l 1
 312 14 252 -14 168 -14 c 0
 111 -14 68 2 39 35 c 0
 18.0897583453 59.6442133787 7.21814897259 89.8654446918 7.21814897259 125.663693939 c 0
 7.21814897259 137.801331588 8.46794344809 150.580100275 11 164 c 0
 36 292 133 350 322 350 c 2
 425 350 l 1
 427 364 l 1
 428.227702902 370.138514508 428.845030049 375.903329574 428.845030049 381.301396591 c 0
 428.845030049 424.269051533 389.731939368 444 308 444 c 0
 233 444 166 428 105 399 c 1
 131 532 l 1
 210 551 286 560 362 560 c 0
 526.860638524 560 601.378962447 508.876054528 601.378962447 389.632025447 c 0
 601.378962447 366.385561108 598.546894874 340.550194204 593 312 c 2
374 800 m 1
 492 800 l 1
 581 616 l 1
 494 616 l 1
 419 726 l 1
 300 616 l 1
 213 616 l 1
 374 800 l 1
EndSplineSet
EndChar

StartChar: atilde
Encoding: 227 227 187
Width: 675
Flags: HW
HStem: -14 116<139.5 276.774> 0 21G<357 536.846> 246 104<225.259 404> 444 116<164.082 407.738> 638 76<439.455 516.165> 702 76<314.453 386.249>
VStem: 232 68<639 688.315>
LayerCount: 2
Fore
SplineSet
313 246 m 2xb2
 240 246 198 221 189 173 c 0
 188.045423284 167.74982806 187.574930443 162.741698059 187.574930443 157.992598789 c 0
 187.574930443 122.941026713 213.204748656 102 259 102 c 0
 326 102 387 155 400 226 c 1
 404 246 l 1
 313 246 l 2xb2
593 312 m 2
 533 0 l 1
 357 0 l 1x72
 372 81 l 1
 312 14 252 -14 168 -14 c 0
 111 -14 68 2 39 35 c 0
 18.0897583453 59.6442133787 7.21814897259 89.8654446918 7.21814897259 125.663693939 c 0
 7.21814897259 137.801331588 8.46794344809 150.580100275 11 164 c 0
 36 292 133 350 322 350 c 2
 425 350 l 1
 427 364 l 1
 428.227702902 370.138514508 428.845030049 375.903329574 428.845030049 381.301396591 c 0
 428.845030049 424.269051533 389.731939368 444 308 444 c 0
 233 444 166 428 105 399 c 1
 131 532 l 1
 210 551 286 560 362 560 c 0
 526.860638524 560 601.378962447 508.876054528 601.378962447 389.632025447 c 0
 601.378962447 366.385561108 598.546894874 340.550194204 593 312 c 2
408 666 m 2
 384 684 l 2
 384 685 382 686 380 687 c 0
 367 697 356 702 348 702 c 0
 325 702 308 682 300 643 c 1
 300 639 l 1
 232 639 l 1
 249 728 294 778 355 778 c 0x36
 378 778 399 770 422 750 c 1
 448 729 l 1
 461 720 472 714 481 714 c 0
 505 714 523 736 530 773 c 1
 531 777 l 1
 599 777 l 1
 581 688 537 638 476 638 c 0x3a
 453 638 435 645 408 666 c 2
EndSplineSet
EndChar

StartChar: adieresis
Encoding: 228 228 188
Width: 675
Flags: HW
HStem: -14 116<139.5 276.774> 0 21G<357 536.846> 246 104<225.259 404> 444 116<164.082 407.738> 654 120<274 366 467 559>
LayerCount: 2
Fore
SplineSet
313 246 m 2xb8
 240 246 198 221 189 173 c 0
 188.045423284 167.74982806 187.574930443 162.741698059 187.574930443 157.992598789 c 0
 187.574930443 122.941026713 213.204748656 102 259 102 c 0
 326 102 387 155 400 226 c 1
 404 246 l 1
 313 246 l 2xb8
593 312 m 2
 533 0 l 1
 357 0 l 1x78
 372 81 l 1
 312 14 252 -14 168 -14 c 0
 111 -14 68 2 39 35 c 0
 18.0897583453 59.6442133787 7.21814897259 89.8654446918 7.21814897259 125.663693939 c 0
 7.21814897259 137.801331588 8.46794344809 150.580100275 11 164 c 0
 36 292 133 350 322 350 c 2
 425 350 l 1
 427 364 l 1
 428.227702902 370.138514508 428.845030049 375.903329574 428.845030049 381.301396591 c 0
 428.845030049 424.269051533 389.731939368 444 308 444 c 0
 233 444 166 428 105 399 c 1
 131 532 l 1
 210 551 286 560 362 560 c 0
 526.860638524 560 601.378962447 508.876054528 601.378962447 389.632025447 c 0
 601.378962447 366.385561108 598.546894874 340.550194204 593 312 c 2
274 774 m 1
 389 774 l 1
 366 654 l 1
 251 654 l 1
 274 774 l 1
467 774 m 1
 582 774 l 1
 559 654 l 1
 444 654 l 1
 467 774 l 1
EndSplineSet
EndChar

StartChar: aring
Encoding: 229 229 189
Width: 675
Flags: HW
HStem: -14 116<139.5 276.774> 0 21G<357 536.846> 246 104<225.259 404> 444 116<164.082 407.738> 610 75<366.763 462.727> 813 75<383.99 478.97>
LayerCount: 2
Fore
SplineSet
313 246 m 2xbc
 240 246 198 221 189 173 c 0
 188.045423284 167.74982806 187.574930443 162.741698059 187.574930443 157.992598789 c 0
 187.574930443 122.941026713 213.204748656 102 259 102 c 0
 326 102 387 155 400 226 c 1
 404 246 l 1
 313 246 l 2xbc
593 312 m 2
 533 0 l 1
 357 0 l 1x7c
 372 81 l 1
 312 14 252 -14 168 -14 c 0
 111 -14 68 2 39 35 c 0
 18.0897583453 59.6442133787 7.21814897259 89.8654446918 7.21814897259 125.663693939 c 0
 7.21814897259 137.801331588 8.46794344809 150.580100275 11 164 c 0
 36 292 133 350 322 350 c 2
 425 350 l 1
 427 364 l 1
 428.227702902 370.138514508 428.845030049 375.903329574 428.845030049 381.301396591 c 0
 428.845030049 424.269051533 389.731939368 444 308 444 c 0
 233 444 166 428 105 399 c 1
 131 532 l 1
 210 551 286 560 362 560 c 0
 526.860638524 560 601.378962447 508.876054528 601.378962447 389.632025447 c 0
 601.378962447 366.385561108 598.546894874 340.550194204 593 312 c 2
359 749 m 0
 358.178584147 744.775575615 357.784034501 740.661310251 357.784034501 736.689520466 c 0
 357.784034501 706.814229752 380.107079263 685 411 685 c 0
 447 685 480 714 487 749 c 0
 487.847445089 753.237225443 488.255198435 757.386512538 488.255198435 761.407051113 c 0
 488.255198435 790.596652527 466.762774557 813 436 813 c 0
 400 813 366 784 359 749 c 0
284 749 m 0
 292 788 311 820 343 847 c 0
 375 874 411 888 450 888 c 0
 489 888 518 874 540 847 c 0
 556.411267233 826.858899305 565.03200618 803.935467079 565.03200618 777.399492662 c 0
 565.03200618 768.362867542 564.032266461 758.907298996 562 749 c 0
 555 710 534 677 502 650 c 0
 470 623 435 610 396 610 c 0
 357 610 327 623 305 650 c 0
 288.749690849 669.943561231 281.22905269 693.160749084 281.22905269 719.65156356 c 0
 281.22905269 729.024554076 282.170552912 738.807366223 284 749 c 0
EndSplineSet
EndChar

StartChar: ae
Encoding: 230 230 190
Width: 1048
Flags: HW
HStem: -14 116<118.5 301.75 611.84 830.29> 225 108<595 823.636> 246 104<225.259 404> 444 116<164.403 409.384 660.711 800.106>
LayerCount: 2
Fore
SplineSet
821 333 m 1xd0
 822.88446429 342.712239032 823.802328223 351.941177885 823.802328223 360.622850003 c 0
 823.802328223 411.831799399 791.867596134 444 738 444 c 0
 671 444 620 405 595 333 c 1
 821 333 l 1xd0
313 246 m 2xb0
 240 246 198 221 189 173 c 0
 188.045423284 167.74982806 187.574930443 162.741698059 187.574930443 157.992598789 c 0
 187.574930443 122.941026713 213.204748656 102 259 102 c 0
 326 102 387 155 400 226 c 1
 404 246 l 1
 313 246 l 2xb0
131 532 m 1
 212 551 287 560 350 560 c 0
 447 560 512 535 550 484 c 1
 610 533 681 560 761 560 c 0
 847 560 911 534 952 482 c 1
 982.043268481 445.518888273 997.247908022 399.827593067 997.247908022 344.926114381 c 0
 997.247908022 323.076220084 994.839629424 299.76751529 990 275 c 2
 980 225 l 1
 571 225 l 1xd0
 570.500363901 219.218496571 570.250364034 213.635683204 570.250364034 208.252650807 c 0
 570.250364034 138.218340727 612.56664587 102 698 102 c 0
 771 102 854 124 943 168 c 1
 917 33 l 1
 828 2 743 -14 660 -14 c 0
 544 -14 462 22 427 87 c 1
 349 18 273 -14 182 -14 c 0
 70.7793778791 -14 7.10923382049 38.9190804243 7.10923382049 125.279311527 c 0
 7.10923382049 137.531632134 8.39081153181 150.457069379 11 164 c 0
 36 292 133 350 322 350 c 2
 425 350 l 1
 427 364 l 1
 428.227702902 370.138514508 428.845030049 375.903329574 428.845030049 381.301396591 c 0
 428.845030049 424.269051533 389.731939368 444 308 444 c 0
 233 444 166 428 105 399 c 1
 131 532 l 1
EndSplineSet
Ligature2: "sous-table 'dpng' Dipthongs (Obsolete) dans Latin lookup 9" a e
EndChar

StartChar: ccedilla
Encoding: 231 231 191
Width: 593
Flags: HW
HStem: -196 72<130.56 269.903> -14 14<256.242 321> 435 125<313.446 495.968>
LayerCount: 2
Fore
SplineSet
566 530 m 1
 538 387 l 1
 496 420 452 435 401 435 c 0
 304 435 235 376 215 273 c 0
 211.915644416 257.115568745 210.400974978 242.27759492 210.400974978 228.541095232 c 0
 210.400974978 153.205506339 255.95912458 111 338 111 c 0
 393 111 446 127 493 159 c 1
 466 16 l 1
 407 -4 348 -14 292 -14 c 0
 121.551182299 -14 25.9633490492 66.1012533628 25.9633490492 204.28148324 c 0
 25.9633490492 225.806117573 28.2827848707 248.740036478 33 273 c 0
 68 453 206 560 403 560 c 0
 460 560 513 550 566 530 c 1
321 0 m 1
 344.908642918 -32.9774385073 356.582782017 -61.8767090752 356.582782017 -88.3789058593 c 0
 356.582782017 -94.0225614927 356.053384224 -99.5575148432 355 -105 c 0
 343 -166 298 -196 215 -196 c 0
 184 -196 152 -191 119 -183 c 1
 133 -109 l 1
 163 -120 190 -124 211 -124 c 0
 248 -124 274 -109 280 -82 c 0
 280.375 -79.875 280.5625 -77.609375 280.5625 -75.1953125 c 0
 280.5625 -58.296875 271.375 -34.125 253 0 c 1
 321 0 l 1
EndSplineSet
EndChar

StartChar: egrave
Encoding: 232 232 192
Width: 678
Flags: HW
HStem: -14 116<243.343 460.29> 225 108<224 453.636> 444 116<290.422 430.106>
LayerCount: 2
Fore
SplineSet
620 275 m 2
 610 225 l 1
 201 225 l 1
 200.509312072 219.322039696 200.264312555 213.835716351 200.264312555 208.542063307 c 0
 200.264312555 138.318123134 243.378943058 102 328 102 c 0
 401 102 484 124 573 168 c 1
 547 33 l 1
 458 2 373 -14 290 -14 c 0
 120.308140491 -14 25.5558064926 64.6494030114 25.5558064926 202.135400547 c 0
 25.5558064926 224.26072198 28.0096799103 247.909779549 33 273 c 0
 50 362 90 432 154 483 c 0
 218 534 297 560 391 560 c 0
 477 560 541 534 582 482 c 1
 612.043268481 445.518888273 627.247908022 399.827593067 627.247908022 344.926114381 c 0
 627.247908022 323.076220084 624.839629424 299.76751529 620 275 c 2
451 333 m 1
 452.88446429 342.712239032 453.802328223 351.941177885 453.802328223 360.622850003 c 0
 453.802328223 411.831799399 421.867596134 444 368 444 c 0
 300 444 249 405 224 333 c 1
 451 333 l 1
382 800 m 1
 484 616 l 1
 388 616 l 1
 244 800 l 1
 382 800 l 1
EndSplineSet
EndChar

StartChar: eacute
Encoding: 233 233 193
Width: 678
Flags: HW
HStem: -14 116<243.343 460.29> 225 108<224 453.636> 444 116<290.422 430.106>
LayerCount: 2
Fore
SplineSet
620 275 m 2
 610 225 l 1
 201 225 l 1
 200.509312072 219.322039696 200.264312555 213.835716351 200.264312555 208.542063307 c 0
 200.264312555 138.318123134 243.378943058 102 328 102 c 0
 401 102 484 124 573 168 c 1
 547 33 l 1
 458 2 373 -14 290 -14 c 0
 120.308140491 -14 25.5558064926 64.6494030114 25.5558064926 202.135400547 c 0
 25.5558064926 224.26072198 28.0096799103 247.909779549 33 273 c 0
 50 362 90 432 154 483 c 0
 218 534 297 560 391 560 c 0
 477 560 541 534 582 482 c 1
 612.043268481 445.518888273 627.247908022 399.827593067 627.247908022 344.926114381 c 0
 627.247908022 323.076220084 624.839629424 299.76751529 620 275 c 2
451 333 m 1
 452.88446429 342.712239032 453.802328223 351.941177885 453.802328223 360.622850003 c 0
 453.802328223 411.831799399 421.867596134 444 368 444 c 0
 300 444 249 405 224 333 c 1
 451 333 l 1
514 800 m 1
 652 800 l 1
 436 616 l 1
 340 616 l 1
 514 800 l 1
EndSplineSet
EndChar

StartChar: ecircumflex
Encoding: 234 234 194
Width: 678
Flags: HW
HStem: -14 116<243.343 460.29> 225 108<224 453.636> 444 116<290.422 430.106>
LayerCount: 2
Fore
SplineSet
620 275 m 2
 610 225 l 1
 201 225 l 1
 200.509312072 219.322039696 200.264312555 213.835716351 200.264312555 208.542063307 c 0
 200.264312555 138.318123134 243.378943058 102 328 102 c 0
 401 102 484 124 573 168 c 1
 547 33 l 1
 458 2 373 -14 290 -14 c 0
 120.308140491 -14 25.5558064926 64.6494030114 25.5558064926 202.135400547 c 0
 25.5558064926 224.26072198 28.0096799103 247.909779549 33 273 c 0
 50 362 90 432 154 483 c 0
 218 534 297 560 391 560 c 0
 477 560 541 534 582 482 c 1
 612.043268481 445.518888273 627.247908022 399.827593067 627.247908022 344.926114381 c 0
 627.247908022 323.076220084 624.839629424 299.76751529 620 275 c 2
451 333 m 1
 452.88446429 342.712239032 453.802328223 351.941177885 453.802328223 360.622850003 c 0
 453.802328223 411.831799399 421.867596134 444 368 444 c 0
 300 444 249 405 224 333 c 1
 451 333 l 1
389 800 m 1
 507 800 l 1
 596 616 l 1
 509 616 l 1
 434 726 l 1
 315 616 l 1
 228 616 l 1
 389 800 l 1
EndSplineSet
EndChar

StartChar: edieresis
Encoding: 235 235 195
Width: 678
Flags: HW
HStem: -14 116<243.343 460.29> 225 108<224 453.636> 444 116<290.422 430.106> 654 120<289 381 482 574>
LayerCount: 2
Fore
SplineSet
620 275 m 2
 610 225 l 1
 201 225 l 1
 200.509312072 219.322039696 200.264312555 213.835716351 200.264312555 208.542063307 c 0
 200.264312555 138.318123134 243.378943058 102 328 102 c 0
 401 102 484 124 573 168 c 1
 547 33 l 1
 458 2 373 -14 290 -14 c 0
 120.308140491 -14 25.5558064926 64.6494030114 25.5558064926 202.135400547 c 0
 25.5558064926 224.26072198 28.0096799103 247.909779549 33 273 c 0
 50 362 90 432 154 483 c 0
 218 534 297 560 391 560 c 0
 477 560 541 534 582 482 c 1
 612.043268481 445.518888273 627.247908022 399.827593067 627.247908022 344.926114381 c 0
 627.247908022 323.076220084 624.839629424 299.76751529 620 275 c 2
451 333 m 1
 452.88446429 342.712239032 453.802328223 351.941177885 453.802328223 360.622850003 c 0
 453.802328223 411.831799399 421.867596134 444 368 444 c 0
 300 444 249 405 224 333 c 1
 451 333 l 1
289 774 m 1
 404 774 l 1
 381 654 l 1
 266 654 l 1
 289 774 l 1
482 774 m 1
 597 774 l 1
 574 654 l 1
 459 654 l 1
 482 774 l 1
EndSplineSet
EndChar

StartChar: igrave
Encoding: 236 236 196
Width: 343
Flags: W
HStem: 0 21G<21 199.876> 527 20G<123.124 302>
VStem: 21 290
LayerCount: 2
Fore
SplineSet
127 547 m 1
 302 547 l 1
 196 0 l 1
 21 0 l 1
 127 547 l 1
209 800 m 1
 311 616 l 1
 215 616 l 1
 71 800 l 1
 209 800 l 1
EndSplineSet
Validated: 1
EndChar

StartChar: iacute
Encoding: 237 237 197
Width: 343
Flags: W
HStem: 0 21G<21 199.876> 527 20G<123.124 302>
LayerCount: 2
Fore
SplineSet
127 547 m 1
 302 547 l 1
 196 0 l 1
 21 0 l 1
 127 547 l 1
341 800 m 1
 479 800 l 1
 263 616 l 1
 167 616 l 1
 341 800 l 1
EndSplineSet
Validated: 1
EndChar

StartChar: icircumflex
Encoding: 238 238 198
Width: 343
Flags: W
HStem: 0 21G<21 199.876> 527 20G<123.124 302>
LayerCount: 2
Fore
SplineSet
127 547 m 1
 302 547 l 1
 196 0 l 1
 21 0 l 1
 127 547 l 1
216 800 m 1
 334 800 l 1
 423 616 l 1
 336 616 l 1
 261 726 l 1
 142 616 l 1
 55 616 l 1
 216 800 l 1
EndSplineSet
Validated: 1
EndChar

StartChar: idieresis
Encoding: 239 239 199
Width: 343
Flags: W
HStem: 0 21G<21 199.876> 527 20G<123.124 302> 654 120<116 208 309 401>
LayerCount: 2
Fore
SplineSet
127 547 m 1
 302 547 l 1
 196 0 l 1
 21 0 l 1
 127 547 l 1
116 774 m 1
 231 774 l 1
 208 654 l 1
 93 654 l 1
 116 774 l 1
309 774 m 1
 424 774 l 1
 401 654 l 1
 286 654 l 1
 309 774 l 1
EndSplineSet
Validated: 1
EndChar

StartChar: eth
Encoding: 240 240 200
Width: 687
Flags: HW
HStem: -14 125<241.323 372.227> 389 126<277.665 429.904> 551 21G<164.095 232.552> 740 20G<246 433.088 586.357 657.587>
LayerCount: 2
Fore
SplineSet
456 363 m 1
 423 380 391 389 356 389 c 0
 280 389 228 344 213 265 c 0
 209.565428611 247.64637614 207.895397814 231.534466031 207.895397814 216.782406915 c 0
 207.895397814 149.926285139 242.19598481 111 302 111 c 0
 378 111 431 168 452 273 c 0
 455.397247359 292.704034681 457.409539964 312.869720947 457.409539964 333.497058798 c 0
 457.409539964 343.228619891 456.961651585 353.062933625 456 363 c 1
576 537 m 1
 620.199833994 471.074823873 640.828204715 409.639450274 640.828204715 342.603276165 c 0
 640.828204715 320.156438349 638.515304883 297.081626043 634 273 c 0
 599 93 466 -14 278 -14 c 0
 116.356478964 -14 25.6825221459 65.1014934514 25.6825221459 201.693211051 c 0
 25.6825221459 223.96491553 28.0932087035 247.765073332 33 273 c 0
 62 424 184 515 356 515 c 0
 385 515 409 511 431 502 c 1
 359 609 l 1
 166 551 l 1
 160 614 l 1
 319 661 l 1
 246 760 l 1
 418 760 l 1
 461 703 l 1
 656 759 l 1
 661 696 l 1
 498 649 l 1
 576 537 l 1
EndSplineSet
EndChar

StartChar: ntilde
Encoding: 241 241 201
Width: 712
Flags: HW
HStem: 0 21G<21 199.866 395 574.844> 428 132<386.154 549.5> 527 20G<123.124 302> 638 76<466.455 543.165> 702 76<341.453 413.249>
VStem: 259 68<639 688.315>
LayerCount: 2
Fore
SplineSet
635 333 m 2xc4
 571 0 l 1
 395 0 l 1
 405 54 l 1
 444 255 l 2
 453 302 459 335 460 352 c 0
 460.25 356.5 460.375 360.6875 460.375 364.578125 c 0
 460.375 376.25 459.25 385.25 457 392 c 0
 448 415 425 428 396 428 c 0xc4
 323 428 267 369 248 269 c 2
 196 0 l 1
 21 0 l 1
 127 547 l 1
 302 547 l 1xa4
 286 467 l 1
 351 531 414 560 486 560 c 0
 589.875990191 560 642.908355749 507.149390184 642.908355749 406.920022868 c 0
 642.908355749 384.607793942 640.280285704 359.947664974 635 333 c 2xc4
435 666 m 2
 411 684 l 2
 411 685 409 686 407 687 c 0
 394 697 383 702 375 702 c 0
 352 702 335 682 327 643 c 1
 327 639 l 1
 259 639 l 1
 276 728 321 778 382 778 c 0x8c
 405 778 426 770 449 750 c 1
 475 729 l 1
 488 720 499 714 508 714 c 0
 532 714 550 736 557 773 c 1
 558 777 l 1
 626 777 l 1
 608 688 564 638 503 638 c 0x94
 480 638 462 645 435 666 c 2
EndSplineSet
EndChar

StartChar: ograve
Encoding: 242 242 202
Width: 687
Flags: HW
HStem: -14 125<240.484 372.227> 435 125<294.428 426.171>
LayerCount: 2
Fore
SplineSet
365 435 m 0
 288 435 235 378 215 273 c 0
 210.709031847 251.545159235 208.589141245 232.094390055 208.589141245 214.724472884 c 0
 208.589141245 147.086007891 240.733549894 111 302 111 c 0
 378 111 431 168 452 273 c 0
 455.967874595 293.831341621 457.928385517 312.773399787 457.928385517 329.755895373 c 0
 457.928385517 398.373361085 425.922076541 435 365 435 c 0
389 560 m 0
 550.643521036 560 641.317477854 480.898506549 641.317477854 344.306788949 c 0
 641.317477854 322.03508447 638.906791296 298.234926668 634 273 c 0
 599 93 466 -14 278 -14 c 0
 116.356478964 -14 25.6825221459 65.1014934514 25.6825221459 201.693211051 c 0
 25.6825221459 223.96491553 28.0932087035 247.765073332 33 273 c 0
 68 453 201 560 389 560 c 0
381 800 m 1
 483 616 l 1
 387 616 l 1
 243 800 l 1
 381 800 l 1
EndSplineSet
EndChar

StartChar: oacute
Encoding: 243 243 203
Width: 687
Flags: HW
HStem: -14 125<240.484 372.227> 435 125<294.428 426.171>
LayerCount: 2
Fore
SplineSet
365 435 m 0
 288 435 235 378 215 273 c 0
 210.709031847 251.545159235 208.589141245 232.094390055 208.589141245 214.724472884 c 0
 208.589141245 147.086007891 240.733549894 111 302 111 c 0
 378 111 431 168 452 273 c 0
 455.967874595 293.831341621 457.928385517 312.773399787 457.928385517 329.755895373 c 0
 457.928385517 398.373361085 425.922076541 435 365 435 c 0
389 560 m 0
 550.643521036 560 641.317477854 480.898506549 641.317477854 344.306788949 c 0
 641.317477854 322.03508447 638.906791296 298.234926668 634 273 c 0
 599 93 466 -14 278 -14 c 0
 116.356478964 -14 25.6825221459 65.1014934514 25.6825221459 201.693211051 c 0
 25.6825221459 223.96491553 28.0932087035 247.765073332 33 273 c 0
 68 453 201 560 389 560 c 0
513 800 m 1
 651 800 l 1
 435 616 l 1
 339 616 l 1
 513 800 l 1
EndSplineSet
EndChar

StartChar: ocircumflex
Encoding: 244 244 204
Width: 687
Flags: HW
HStem: -14 125<240.484 372.227> 435 125<294.428 426.171>
LayerCount: 2
Fore
SplineSet
365 435 m 0
 288 435 235 378 215 273 c 0
 210.709031847 251.545159235 208.589141245 232.094390055 208.589141245 214.724472884 c 0
 208.589141245 147.086007891 240.733549894 111 302 111 c 0
 378 111 431 168 452 273 c 0
 455.967874595 293.831341621 457.928385517 312.773399787 457.928385517 329.755895373 c 0
 457.928385517 398.373361085 425.922076541 435 365 435 c 0
389 560 m 0
 550.643521036 560 641.317477854 480.898506549 641.317477854 344.306788949 c 0
 641.317477854 322.03508447 638.906791296 298.234926668 634 273 c 0
 599 93 466 -14 278 -14 c 0
 116.356478964 -14 25.6825221459 65.1014934514 25.6825221459 201.693211051 c 0
 25.6825221459 223.96491553 28.0932087035 247.765073332 33 273 c 0
 68 453 201 560 389 560 c 0
388 800 m 1
 506 800 l 1
 595 616 l 1
 508 616 l 1
 433 726 l 1
 314 616 l 1
 227 616 l 1
 388 800 l 1
EndSplineSet
EndChar

StartChar: otilde
Encoding: 245 245 205
Width: 687
Flags: HW
HStem: -14 125<240.484 372.227> 435 125<294.428 426.171> 638 76<453.455 530.165> 702 76<328.453 400.249>
VStem: 246 68<639 688.315>
LayerCount: 2
Fore
SplineSet
365 435 m 0xc8
 288 435 235 378 215 273 c 0
 210.709031847 251.545159235 208.589141245 232.094390055 208.589141245 214.724472884 c 0
 208.589141245 147.086007891 240.733549894 111 302 111 c 0
 378 111 431 168 452 273 c 0
 455.967874595 293.831341621 457.928385517 312.773399787 457.928385517 329.755895373 c 0
 457.928385517 398.373361085 425.922076541 435 365 435 c 0xc8
389 560 m 0
 550.643521036 560 641.317477854 480.898506549 641.317477854 344.306788949 c 0
 641.317477854 322.03508447 638.906791296 298.234926668 634 273 c 0
 599 93 466 -14 278 -14 c 0
 116.356478964 -14 25.6825221459 65.1014934514 25.6825221459 201.693211051 c 0
 25.6825221459 223.96491553 28.0932087035 247.765073332 33 273 c 0
 68 453 201 560 389 560 c 0
422 666 m 2
 398 684 l 2
 398 685 396 686 394 687 c 0
 381 697 370 702 362 702 c 0
 339 702 322 682 314 643 c 1
 314 639 l 1
 246 639 l 1
 263 728 308 778 369 778 c 0xd8
 392 778 413 770 436 750 c 1
 462 729 l 1
 475 720 486 714 495 714 c 0
 519 714 537 736 544 773 c 1
 545 777 l 1
 613 777 l 1
 595 688 551 638 490 638 c 0xe8
 467 638 449 645 422 666 c 2
EndSplineSet
EndChar

StartChar: odieresis
Encoding: 246 246 206
Width: 687
Flags: HW
HStem: -14 125<240.484 372.227> 435 125<294.428 426.171> 654 120<288 380 481 573>
LayerCount: 2
Fore
SplineSet
365 435 m 0
 288 435 235 378 215 273 c 0
 210.709031847 251.545159235 208.589141245 232.094390055 208.589141245 214.724472884 c 0
 208.589141245 147.086007891 240.733549894 111 302 111 c 0
 378 111 431 168 452 273 c 0
 455.967874595 293.831341621 457.928385517 312.773399787 457.928385517 329.755895373 c 0
 457.928385517 398.373361085 425.922076541 435 365 435 c 0
389 560 m 0
 550.643521036 560 641.317477854 480.898506549 641.317477854 344.306788949 c 0
 641.317477854 322.03508447 638.906791296 298.234926668 634 273 c 0
 599 93 466 -14 278 -14 c 0
 116.356478964 -14 25.6825221459 65.1014934514 25.6825221459 201.693211051 c 0
 25.6825221459 223.96491553 28.0932087035 247.765073332 33 273 c 0
 68 453 201 560 389 560 c 0
288 774 m 1
 403 774 l 1
 380 654 l 1
 265 654 l 1
 288 774 l 1
481 774 m 1
 596 774 l 1
 573 654 l 1
 458 654 l 1
 481 774 l 1
EndSplineSet
EndChar

StartChar: divide
Encoding: 247 247 207
Width: 838
Flags: W
HStem: 42 151<318 439> 256 115<115 718> 434 151<394 515>
CounterMasks: 1 e0
LayerCount: 2
Fore
SplineSet
318 193 m 1
 468 193 l 1
 439 42 l 1
 289 42 l 1
 318 193 l 1
394 585 m 1
 544 585 l 1
 515 434 l 1
 365 434 l 1
 394 585 l 1
115 371 m 1
 741 371 l 1
 718 256 l 1
 92 256 l 1
 115 371 l 1
EndSplineSet
Validated: 1
EndChar

StartChar: oslash
Encoding: 248 248 208
Width: 687
Flags: HW
HStem: -14 125<237.879 372.227> 435 125<294.428 429.504>
LayerCount: 2
Fore
SplineSet
434 408 m 1
 419 427 396 435 365 435 c 0
 288 435 235 378 215 273 c 0
 210.291502622 251.8117618 208.662164627 234.318514859 208.662164627 219.553711585 c 0
 208.662164627 215.503845861 208.784749563 211.659257429 209 208 c 1
 434 408 l 1
231 140 m 1
 247 120 271 111 302 111 c 0
 378 111 431 168 452 273 c 0
 457 301 458 322 458 341 c 1
 231 140 l 1
60 77 m 1
 36.88 111.68 25.32 152.8336 25.32 200.775232 c 0
 25.32 223.336 27.88 247.4 33 273 c 0
 68 453 201 560 389 560 c 0
 458 560 514 546 557 517 c 1
 644 594 l 1
 687 545 l 1
 604 472 l 1
 628.5 435.6 640.75 392.34 640.75 341.877 c 0
 640.75 320.25 638.5 297.3 634 273 c 0
 599 93 466 -14 278 -14 c 0
 209 -14 153 1 107 30 c 1
 21 -46 l 1
 -25 0 l 1
 60 77 l 1
EndSplineSet
EndChar

StartChar: ugrave
Encoding: 249 249 209
Width: 712
Flags: HW
HStem: -14 132<142.5 304.914> 0 21G<390 568.876> 527 20G<117.108 297 492.074 671>
LayerCount: 2
Fore
SplineSet
56 213 m 2xa0
 121 547 l 1
 297 547 l 1
 286 492 l 2
 280 463 273 425 263 380 c 1
 246 291 l 2
 234.923186768 233.661202094 230.214667206 200.097367222 230.214667206 178.966705647 c 0
 230.214667206 167.667349738 231.561040743 159.923186768 234 154 c 1
 245 131 264 118 295 118 c 0xa0
 368 118 424 177 443 277 c 2
 496 547 l 1
 671 547 l 1
 565 0 l 1
 390 0 l 1x60
 405 79 l 1
 340 15 277 -14 206 -14 c 0
 101.887332553 -14 48.1781968948 39.0917201506 48.1781968948 139.765820669 c 0
 48.1781968948 161.897244967 50.7737587083 186.328147891 56 213 c 2xa0
394 800 m 1
 496 616 l 1
 400 616 l 1
 256 800 l 1
 394 800 l 1
EndSplineSet
EndChar

StartChar: uacute
Encoding: 250 250 210
Width: 712
Flags: HW
HStem: -14 132<142.5 304.914> 0 21G<390 568.876> 527 20G<117.108 297 492.074 671>
LayerCount: 2
Fore
SplineSet
56 213 m 2xa0
 121 547 l 1
 297 547 l 1
 286 492 l 2
 280 463 273 425 263 380 c 1
 246 291 l 2
 234.923186768 233.661202094 230.214667206 200.097367222 230.214667206 178.966705647 c 0
 230.214667206 167.667349738 231.561040743 159.923186768 234 154 c 1
 245 131 264 118 295 118 c 0xa0
 368 118 424 177 443 277 c 2
 496 547 l 1
 671 547 l 1
 565 0 l 1
 390 0 l 1x60
 405 79 l 1
 340 15 277 -14 206 -14 c 0
 101.887332553 -14 48.1781968948 39.0917201506 48.1781968948 139.765820669 c 0
 48.1781968948 161.897244967 50.7737587083 186.328147891 56 213 c 2xa0
526 800 m 1
 664 800 l 1
 448 616 l 1
 352 616 l 1
 526 800 l 1
EndSplineSet
EndChar

StartChar: ucircumflex
Encoding: 251 251 211
Width: 712
Flags: HW
HStem: -14 132<142.5 304.914> 0 21G<390 568.876> 527 20G<117.108 297 492.074 671>
LayerCount: 2
Fore
SplineSet
56 213 m 2xa0
 121 547 l 1
 297 547 l 1
 286 492 l 2
 280 463 273 425 263 380 c 1
 246 291 l 2
 234.923186768 233.661202094 230.214667206 200.097367222 230.214667206 178.966705647 c 0
 230.214667206 167.667349738 231.561040743 159.923186768 234 154 c 1
 245 131 264 118 295 118 c 0xa0
 368 118 424 177 443 277 c 2
 496 547 l 1
 671 547 l 1
 565 0 l 1
 390 0 l 1x60
 405 79 l 1
 340 15 277 -14 206 -14 c 0
 101.887332553 -14 48.1781968948 39.0917201506 48.1781968948 139.765820669 c 0
 48.1781968948 161.897244967 50.7737587083 186.328147891 56 213 c 2xa0
401 800 m 1
 519 800 l 1
 608 616 l 1
 521 616 l 1
 446 726 l 1
 327 616 l 1
 240 616 l 1
 401 800 l 1
EndSplineSet
EndChar

StartChar: udieresis
Encoding: 252 252 212
Width: 712
Flags: HW
HStem: -14 132<142.5 304.914> 0 21G<390 568.876> 527 20G<117.108 297 492.074 671> 654 120<301 393 494 586>
LayerCount: 2
Fore
SplineSet
56 213 m 2xb0
 121 547 l 1
 297 547 l 1
 286 492 l 2
 280 463 273 425 263 380 c 1
 246 291 l 2
 234.923186768 233.661202094 230.214667206 200.097367222 230.214667206 178.966705647 c 0
 230.214667206 167.667349738 231.561040743 159.923186768 234 154 c 1
 245 131 264 118 295 118 c 0xb0
 368 118 424 177 443 277 c 2
 496 547 l 1
 671 547 l 1
 565 0 l 1
 390 0 l 1x70
 405 79 l 1
 340 15 277 -14 206 -14 c 0
 101.887332553 -14 48.1781968948 39.0917201506 48.1781968948 139.765820669 c 0
 48.1781968948 161.897244967 50.7737587083 186.328147891 56 213 c 2xb0
301 774 m 1
 416 774 l 1
 393 654 l 1
 278 654 l 1
 301 774 l 1
494 774 m 1
 609 774 l 1
 586 654 l 1
 471 654 l 1
 494 774 l 1
EndSplineSet
EndChar

StartChar: yacute
Encoding: 253 253 213
Width: 652
Flags: W
HStem: -216 115<17 149.677> 527 20G<55 234.043 491.38 677>
LayerCount: 2
Fore
SplineSet
55 547 m 1
 230 547 l 1
 305 176 l 1
 502 547 l 1
 677 547 l 1
 330 -52 l 1
 296 -113 260 -155 225 -179 c 0
 189 -204 147 -216 96 -216 c 2
 -5 -216 l 1
 17 -101 l 1
 72 -101 l 2
 131 -101 156 -85 181 -36 c 1
 188 -21 l 1
 55 547 l 1
484 800 m 1
 622 800 l 1
 406 616 l 1
 310 616 l 1
 484 800 l 1
EndSplineSet
Validated: 1
EndChar

StartChar: thorn
Encoding: 254 254 214
Width: 716
Flags: HW
HStem: -208 21G<-20 158.902> -14 127<278.959 404.621> 433 127<382.574 518.5> 740 20G<164.116 343>
LayerCount: 2
Fore
SplineSet
211 79 m 1
 155 -208 l 1
 -20 -208 l 1
 168 760 l 1
 343 760 l 1
 286 467 l 1
 347 531 409 560 485 560 c 0
 552 560 603 533 636 479 c 0
 657.62546118 443.18282992 668.746827498 400.058463414 668.746827498 349.93553621 c 0
 668.746827498 325.88970201 666.18726941 300.233164402 661 273 c 0
 644 188 609 119 555 66 c 0
 502 13 441 -14 374 -14 c 0
 298 -14 246 15 211 79 c 1
396 433 m 0
 321 433 269 377 249 273 c 0
 244.622801494 251.322445492 242.461369892 231.73031866 242.461369892 214.296066573 c 0
 242.461369892 148.087940254 273.632851808 113 333 113 c 0
 408 113 459 169 480 273 c 0
 484.107455909 294.358770728 486.148190548 313.692998171 486.148190548 330.933384642 c 0
 486.148190548 397.639785925 455.59704034 433 396 433 c 0
EndSplineSet
EndChar

StartChar: ydieresis
Encoding: 255 255 215
Width: 652
Flags: W
HStem: -216 115<17 149.677> 527 20G<55 234.043 491.38 677> 654 120<259 351 452 544>
LayerCount: 2
Fore
SplineSet
55 547 m 1
 230 547 l 1
 305 176 l 1
 502 547 l 1
 677 547 l 1
 330 -52 l 1
 296 -113 260 -155 225 -179 c 0
 189 -204 147 -216 96 -216 c 2
 -5 -216 l 1
 17 -101 l 1
 72 -101 l 2
 131 -101 156 -85 181 -36 c 1
 188 -21 l 1
 55 547 l 1
259 774 m 1
 374 774 l 1
 351 654 l 1
 236 654 l 1
 259 774 l 1
452 774 m 1
 567 774 l 1
 544 654 l 1
 429 654 l 1
 452 774 l 1
EndSplineSet
Validated: 1
EndChar

StartChar: fraction
Encoding: 8260 8260 216
Width: 167
Flags: W
HStem: -14 21G<-265 -140.048> 722 20G<322.048 447>
LayerCount: 2
Fore
SplineSet
-156 -14 m 1
 -265 -14 l 1
 338 742 l 1
 447 742 l 1
 -156 -14 l 1
EndSplineSet
Validated: 1
EndChar

StartChar: fi
Encoding: 64257 64257 217
Width: 741
Flags: W
HStem: 0 21G<44 223.886 418 597.876> 422 125<64 126 326 500> 617 143<565 713> 645 115<351.639 507>
LayerCount: 2
Fore
SplineSet
565 760 m 1xe0
 741 760 l 1xd0
 713 617 l 1
 537 617 l 1
 565 760 l 1xe0
529 760 m 1
 507 645 l 1
 410 645 l 2
 362 645 342 629 333 585 c 2
 326 547 l 1
 700 547 l 1
 594 0 l 1
 418 0 l 1
 500 422 l 1
 302 422 l 1
 220 0 l 1
 44 0 l 1
 126 422 l 1
 40 422 l 1
 64 547 l 1
 150 547 l 1
 157 585 l 1
 180 704 256 760 395 760 c 2
 529 760 l 1
EndSplineSet
Validated: 1
Ligature2: "sous-table 'liga' Ligatures standard dans Latin lookup 6" f i
EndChar

StartChar: fl
Encoding: 64258 64258 218
Width: 741
Flags: W
HStem: 0 21G<43 221.886 418 597.868> 422 125<62 125 324 437> 645 115<350.639 543>
LayerCount: 2
Fore
SplineSet
394 760 m 2
 741 760 l 1
 594 0 l 1
 418 0 l 1
 543 645 l 1
 409 645 l 2
 360 645 340 629 331 585 c 2
 324 547 l 1
 461 547 l 1
 437 422 l 1
 300 422 l 1
 218 0 l 1
 43 0 l 1
 125 422 l 1
 38 422 l 1
 62 547 l 1
 149 547 l 1
 156 585 l 1
 179 704 255 760 394 760 c 2
EndSplineSet
Validated: 1
Ligature2: "sous-table 'liga' Ligatures standard dans Latin lookup 7" f l
EndChar

StartChar: breve
Encoding: 728 728 219
Width: 500
Flags: HW
HStem: 639 75<259.898 397.224>
VStem: 175 70<732.495 784> 433 70<747.824 784>
LayerCount: 2
Fore
SplineSet
175 784 m 1
 245 784 l 1
 244.930993432 782.447352216 244.896510685 780.918513965 244.896510685 779.413690623 c 0
 244.896510685 737.304597711 271.897680624 714 325 714 c 0
 380 714 417 739 433 784 c 1
 503 784 l 1
 481 691 412 639 311 639 c 0
 221.333244278 639 172.651353594 679.984865037 172.651353594 754.257569465 c 0
 172.651353594 763.645114445 173.429055249 773.564438437 175 784 c 1
EndSplineSet
EndChar

StartChar: dotaccent
Encoding: 729 729 220
Width: 500
Flags: W
HStem: 654 120<270 381>
VStem: 247 157
LayerCount: 2
Fore
SplineSet
270 774 m 1
 404 774 l 1
 381 654 l 1
 247 654 l 1
 270 774 l 1
EndSplineSet
Validated: 1
EndChar

StartChar: ring
Encoding: 730 730 221
Width: 500
Flags: HW
HStem: 610 75<275.763 371.727> 813 75<292.99 387.97>
VStem: 193 278
LayerCount: 2
Fore
SplineSet
268 749 m 0
 267.178584147 744.775575615 266.784034501 740.661310251 266.784034501 736.689520466 c 0
 266.784034501 706.814229752 289.107079263 685 320 685 c 0
 356 685 389 714 396 749 c 0
 396.847445089 753.237225443 397.255198435 757.386512538 397.255198435 761.407051113 c 0
 397.255198435 790.596652527 375.762774557 813 345 813 c 0
 309 813 275 784 268 749 c 0
193 749 m 0
 201 788 220 820 252 847 c 0
 284 874 320 888 359 888 c 0
 398 888 427 874 449 847 c 0
 465.411267233 826.858899305 474.03200618 803.935467079 474.03200618 777.399492662 c 0
 474.03200618 768.362867542 473.032266461 758.907298996 471 749 c 0
 464 710 443 677 411 650 c 0
 379 623 344 610 305 610 c 0
 266 610 236 623 214 650 c 0
 197.749690849 669.943561231 190.22905269 693.160749084 190.22905269 719.65156356 c 0
 190.22905269 729.024554076 191.170552912 738.807366223 193 749 c 0
EndSplineSet
EndChar

StartChar: hungarumlaut
Encoding: 733 733 222
Width: 500
Flags: W
HStem: 616 184
LayerCount: 2
Fore
SplineSet
281 800 m 1
 387 800 l 1
 230 616 l 1
 150 616 l 1
 281 800 l 1
458 800 m 1
 571 800 l 1
 402 616 l 1
 317 616 l 1
 458 800 l 1
EndSplineSet
Validated: 1
EndChar

StartChar: ogonek
Encoding: 731 731 223
Width: 500
Flags: HW
HStem: -196 72<170.131 277.108> -20 20G<135.5 227>
VStem: 82 209
LayerCount: 2
Fore
SplineSet
158 0 m 1
 227 0 l 1
 186 -44 171 -64 168 -81 c 0
 167.421157215 -83.8942139271 167.137166323 -86.6946113425 167.137166323 -89.3841249571 c 0
 167.137166323 -109.926425596 183.704593827 -124 212 -124 c 0
 237 -124 262 -120 291 -109 c 1
 277 -185 l 1
 239 -192 208 -196 181 -196 c 0
 115.038428866 -196 80.0167963384 -172.021547581 80.0167963384 -128.146336664 c 0
 80.0167963384 -122.134306234 80.6743637663 -115.748693554 82 -109 c 0
 89 -74 113 -40 158 0 c 1
EndSplineSet
EndChar

StartChar: caron
Encoding: 711 711 224
Width: 500
Flags: W
HStem: 616 184
LayerCount: 2
Fore
SplineSet
247 616 m 1
 158 800 l 1
 245 800 l 1
 320 689 l 1
 439 800 l 1
 526 800 l 1
 365 616 l 1
 247 616 l 1
EndSplineSet
Validated: 1
EndChar

StartChar: Lslash
Encoding: 321 321 225
Width: 642
Flags: W
HStem: 0 142<249 552> 709 20G<171.131 363>
LayerCount: 2
Fore
SplineSet
175 729 m 1
 363 729 l 1
 324 526 l 1
 465 616 l 1
 517 522 l 1
 297 389 l 1
 249 142 l 1
 579 142 l 1
 552 0 l 1
 34 0 l 1
 83 256 l 1
 1 204 l 1
 -51 297 l 1
 110 393 l 1
 175 729 l 1
EndSplineSet
Validated: 1
Position2: "sous-table 'cpsp' Chasses pour composition en capitales dans Latin lookup 1" dx=5 dy=0 dh=10 dv=0
EndChar

StartChar: dotlessi
Encoding: 305 305 226
Width: 343
Flags: W
HStem: 0 21G<21 199.876> 527 20G<123.124 302>
VStem: 21 281
LayerCount: 2
Fore
SplineSet
127 547 m 1
 302 547 l 1
 196 0 l 1
 21 0 l 1
 127 547 l 1
EndSplineSet
Validated: 1
EndChar

StartChar: lslash
Encoding: 322 322 227
Width: 371
Flags: W
HStem: 0 21G<34 213.871> 538 20G<347.977 391.4> 740 20G<177.108 357>
LayerCount: 2
Fore
SplineSet
181 760 m 1
 357 760 l 1
 310 515 l 1
 381 558 l 1
 420 483 l 1
 288 403 l 1
 210 0 l 1
 34 0 l 1
 94 313 l 1
 25 271 l 1
 -14 346 l 1
 116 426 l 1
 181 760 l 1
EndSplineSet
Validated: 1
EndChar

StartChar: Zcaron
Encoding: 381 381 228
Width: 725
Flags: W
HStem: 0 142<242 617> 587 142<134 487>
LayerCount: 2
Fore
SplineSet
134 729 m 1
 747 729 l 1
 725 615 l 1
 242 142 l 1
 644 142 l 1
 617 0 l 1
 -18 0 l 1
 4 114 l 1
 487 587 l 1
 107 587 l 1
 134 729 l 1
368 798 m 1
 284 927 l 1
 371 927 l 1
 452 848 l 1
 565 927 l 1
 652 927 l 1
 518 798 l 1
 368 798 l 1
EndSplineSet
Validated: 1
Position2: "sous-table 'cpsp' Chasses pour composition en capitales dans Latin lookup 1" dx=5 dy=0 dh=10 dv=0
EndChar

StartChar: zcaron
Encoding: 382 382 229
Width: 582
Flags: W
HStem: 0 125<207 471> 422 125<100 352>
LayerCount: 2
Fore
SplineSet
100 547 m 1
 577 547 l 1
 553 425 l 1
 207 125 l 1
 495 125 l 1
 471 0 l 1
 -18 0 l 1
 5 122 l 1
 352 422 l 1
 76 422 l 1
 100 547 l 1
288 616 m 1
 199 800 l 1
 286 800 l 1
 361 689 l 1
 480 800 l 1
 567 800 l 1
 406 616 l 1
 288 616 l 1
EndSplineSet
Validated: 1
EndChar

StartChar: notequal
Encoding: 8800 8800 231
Width: 838
Flags: W
HStem: -5 21G<139.323 179.268> 144 116<93 185 430 696> 367 115<136 407 647 740>
LayerCount: 2
Fore
SplineSet
136 482 m 1
 522 482 l 1
 674 631 l 1
 735 570 l 1
 647 482 l 1
 762 482 l 1
 740 367 l 1
 536 367 l 1
 430 260 l 1
 719 260 l 1
 696 144 l 1
 310 144 l 1
 159 -5 l 1
 98 57 l 1
 185 144 l 1
 70 144 l 1
 93 260 l 1
 300 260 l 1
 407 367 l 1
 114 367 l 1
 136 482 l 1
EndSplineSet
Validated: 1
EndChar

StartChar: infinity
Encoding: 8734 8734 232
Width: 833
Flags: HW
HStem: 91 121<164.218 281.184 484.653 617.289> 383 121<207.457 337.174 539.804 657.296>
LayerCount: 2
Fore
SplineSet
457 274 m 1
 476 230 510 208 558 208 c 0
 617 208 664 244 674 296 c 0
 675.264350474 302.195317323 675.873282278 308.214790613 675.873282278 314.003848332 c 0
 675.873282278 354.001602397 646.804682677 383 604 383 c 0
 557 383 516 353 457 274 c 1
366 321 m 1
 346 365 314 386 265 386 c 0
 206 386 159 350 149 299 c 0
 147.735649526 292.551812582 147.126717722 286.343412482 147.126717722 280.41724423 c 0
 147.126717722 239.47216615 176.195317323 212 219 212 c 0
 266 212 308 244 366 321 c 1
396 216 m 1
 336 131 277 91 214 91 c 0
 169 91 134 111 109 150 c 0
 91.9399011069 176.613754273 83.7276302307 207.884260135 83.7276302307 243.811517584 c 0
 83.7276302307 260.532339249 85.506443513 278.261833388 89 297 c 0
 101 358 125 408 161 446 c 0
 198 484 238 503 283 503 c 0
 342 503 380 471 426 378 c 1
 489 463 547 504 608 504 c 0
 654 504 690 484 714 445 c 0
 730.290717008 418.527584862 738.748817991 387.447748532 738.748817991 351.76049101 c 0
 738.748817991 334.872151025 736.854641496 316.951987355 733 298 c 1
 722 237 698 187 661 148 c 0
 625 110 584 91 539 91 c 0
 480 91 443 121 396 216 c 1
EndSplineSet
EndChar

StartChar: lessequal
Encoding: 8804 8804 233
Width: 838
Flags: W
HStem: 0 116<65 669>
LayerCount: 2
Fore
SplineSet
691 116 m 1
 669 0 l 1
 43 0 l 1
 65 116 l 1
 691 116 l 1
758 463 m 1
 301 361 l 1
 719 259 l 1
 696 140 l 1
 102 304 l 1
 124 419 l 1
 782 582 l 1
 758 463 l 1
EndSplineSet
Validated: 1
EndChar

StartChar: greaterequal
Encoding: 8805 8805 234
Width: 838
Flags: W
HStem: 0 116<65 669>
LayerCount: 2
Fore
SplineSet
65 116 m 1
 691 116 l 1
 669 0 l 1
 43 0 l 1
 65 116 l 1
132 463 m 1
 156 582 l 1
 750 419 l 1
 728 304 l 1
 70 140 l 1
 93 259 l 1
 551 361 l 1
 132 463 l 1
EndSplineSet
Validated: 1
EndChar

StartChar: partialdiff
Encoding: 8706 8706 235
Width: 544
Flags: HW
HStem: -12 37<133.805 219.938> 376 44<229.468 322.278> 610 55<338.5 426.156>
LayerCount: 2
Fore
SplineSet
375 334 m 1
 403 407 423 471 430 508 c 0
 432.590865817 521.189862343 433.794833766 533.824965539 433.794833766 545.434918365 c 0
 433.794833766 583.117167486 421.111668597 610 402 610 c 0
 391 610 366 595 328 564 c 0
 291 534 259 519 232 519 c 0
 204.109973174 519 186.854663485 537.990566318 186.854663485 564.054632362 c 0
 186.854663485 567.895525485 187.22938003 571.890026826 188 576 c 0
 193 599 212 619 245 637 c 0
 280 656 318 665 359 665 c 0
 428 665 477 639 505 586 c 1
 524.000713267 553.065430337 533.374037077 512.108036126 533.374037077 463.381883015 c 0
 533.374037077 435.174892997 530.232929149 404.36450309 524 371 c 0
 502 259 457 167 390 95 c 0
 323 24 249 -12 166 -12 c 0
 107 -12 62 7 31 45 c 0
 9.28584115709 72.504601201 -1.95043559126 105.772037554 -1.95043559126 144.423111732 c 0
 -1.95043559126 159.171859934 -0.314336462837 174.704512391 3 191 c 1
 15 257 45 312 93 355 c 0
 140 398 193 420 251 420 c 0
 316 420 355 393 375 334 c 1
328 260 m 0
 331.292477157 277.167916603 332.925708524 292.676587416 332.925708524 306.356918689 c 0
 332.925708524 350.846964521 315.65221465 376 282 376 c 0
 251 376 219 354 190 309 c 1
 160 265 139 209 126 140 c 0
 122.431310222 121.918638458 120.673898201 105.931566823 120.673898201 92.0657179632 c 0
 120.673898201 47.650307921 138.706069334 25 173 25 c 0
 204 25 235 47 264 91 c 0
 294 135 315 191 328 260 c 0
EndSplineSet
EndChar

StartChar: summation
Encoding: 8721 8721 236
Width: 718
Flags: W
HStem: -192 130<165 596> 590 129<293 722>
LayerCount: 2
Fore
SplineSet
108 719 m 1
 747 719 l 1
 722 590 l 1
 293 590 l 1
 535 275 l 1
 165 -62 l 1
 621 -62 l 1
 596 -192 l 1
 -81 -192 l 1
 -64 -108 l 1
 350 269 l 1
 86 606 l 1
 108 719 l 1
EndSplineSet
Validated: 1
EndChar

StartChar: product
Encoding: 8719 8719 237
Width: 787
Flags: W
HStem: 578 141<290 593>
LayerCount: 2
Fore
SplineSet
149 719 m 1
 788 719 l 1
 611 -192 l 1
 443 -192 l 1
 593 578 l 1
 290 578 l 1
 140 -192 l 1
 -28 -192 l 1
 149 719 l 1
EndSplineSet
Validated: 1
EndChar

StartChar: pi
Encoding: 960 960 238
Width: 644
Flags: W
HStem: 0 21G<22 169.358 278 425.406> 424 109<116.711 178 318 434 575 661>
LayerCount: 2
Fore
SplineSet
701 533 m 1
 661 424 l 1
 575 424 l 1
 418 0 l 1
 278 0 l 1
 434 424 l 1
 318 424 l 1
 162 0 l 1
 22 0 l 1
 178 424 l 1
 166 424 l 2
 130 424 109 405 93 360 c 1
 -11 360 l 1
 11 425 40 470 76 495 c 0
 112 520 164 533 235 533 c 2
 701 533 l 1
EndSplineSet
Validated: 1
EndChar

StartChar: integral
Encoding: 8747 8747 239
Width: 610
Flags: HW
HStem: -182 61<6.5 115.281> 700 60<482.551 589>
LayerCount: 2
Fore
SplineSet
90 -121 m 0
 122 -121 162 -12 211 205 c 0
 219 238 224 263 228 280 c 0
 266 450 311 572 362 647 c 0
 414 722 478 760 555 760 c 0
 615.479098764 760 653.809365598 729.940870952 653.809365598 684.596966465 c 0
 653.809365598 678.958208046 653.216616376 673.083081882 652 667 c 0
 644 626 610 597 567 597 c 0
 533.144031126 597 515.652987346 614.72866885 515.652987346 647.933769175 c 0
 515.652987346 654.940458931 516.431798045 662.636256242 518 671 c 0
 519.533119315 678.35897271 520.314093083 683.931599747 520.314093083 688.121476214 c 0
 520.314093083 697.596147663 516.320513645 700 508 700 c 0
 475 700 434 592 384 375 c 0
 380 355 377 340 374 330 c 0
 350 223 330 146 314 99 c 0
 299 52 282 13 263 -20 c 0
 202 -128 128 -182 41 -182 c 0
 -20.2352421311 -182 -57.8425392159 -152.858867776 -57.8425392159 -107.158020163 c 0
 -57.8425392159 -101.363056287 -57.2378599501 -95.3018324733 -56 -89 c 0
 -47 -46 -12 -19 33 -19 c 0
 65.6989174754 -19 82.9324684226 -35.8713089399 82.9324684226 -67.2563475943 c 0
 82.9324684226 -73.3042456248 82.2925297486 -79.8910863825 81 -87 c 0
 80 -91 79 -95 77 -99 c 1
 77 -100 l 1
 76.3666923472 -103.377640815 76.0453347035 -106.265074473 76.0453347035 -108.718746781 c 0
 76.0453347035 -117.888204074 80.5332306111 -121 90 -121 c 0
EndSplineSet
EndChar

StartChar: Omega
Encoding: 8486 8486 240
Width: 769
Flags: HW
HStem: 0 125<-12 130 560 678> 606 131<343.037 523.742>
LayerCount: 2
Fore
SplineSet
560 125 m 1
 702 125 l 1
 678 0 l 1
 381 0 l 1
 408 142 l 1
 500 198 562 286 583 393 c 0
 587.258968731 414.622456632 589.344499611 434.876452395 589.344499611 453.630126837 c 0
 589.344499611 549.363213471 534.998447202 606 438 606 c 0
 322 606 237 525 211 393 c 0
 206.428929646 369.709308194 204.179490867 347.318840877 204.179490867 325.962670388 c 0
 204.179490867 249.20624459 233.236901181 185.810479055 288 142 c 1
 261 0 l 1
 -36 0 l 1
 -12 125 l 1
 130 125 l 1
 78.7542839371 184.53546425 54.2014313032 249.750261144 54.2014313032 324.068407954 c 0
 54.2014313032 348.365996689 56.8258829018 373.636641452 62 400 c 0
 82 502 128 584 201 645 c 0
 274 706 362 737 464 737 c 0
 566 737 641 706 690 645 c 0
 724.942385856 601.500295159 742.594896161 547.321549538 742.594896161 482.826397891 c 0
 742.594896161 456.879458842 739.737801692 429.262788627 734 400 c 0
 713 293 658 204 560 125 c 1
EndSplineSet
EndChar

StartChar: radical
Encoding: 8730 8730 241
Width: 667
Flags: W
HStem: 764 73<707 754>
LayerCount: 2
Fore
SplineSet
663 837 m 1
 768 837 l 1
 754 764 l 1
 707 764 l 1
 267 -20 l 1
 209 -20 l 1
 139 393 l 1
 63 366 l 1
 57 429 l 1
 245 491 l 1
 294 181 l 1
 663 837 l 1
EndSplineSet
Validated: 1
EndChar

StartChar: approxequal
Encoding: 8776 8776 242
Width: 838
Flags: W
HStem: 121 114<444.268 611.86> 188 114<180.465 348.732> 325 114<484.268 651.86> 392 113<220.103 388.754>
LayerCount: 2
Fore
SplineSet
769 517 m 1x20
 746 398 l 1
 667 346 609 325 546 325 c 0x20
 511 325 473 335 429 354 c 0
 425 355 422 357 419 358 c 0
 417 359 413 360 409 362 c 0
 363 382 325 392 294 392 c 0
 237 392 178 367 104 314 c 1
 127 433 l 1
 205 484 264 505 327 505 c 0x10
 363 505 403 495 446 476 c 0
 449 475 452 474 453 473 c 0
 456 472 459 471 464 469 c 0
 510 449 548 439 579 439 c 0
 635 439 691 462 769 517 c 1x20
729 313 m 1
 706 194 l 1
 627 142 569 121 506 121 c 0x80
 471 121 433 130 389 149 c 0
 385 151 382 153 379 154 c 0
 378 155 374 156 369 158 c 0
 323 178 285 188 254 188 c 0
 197 188 139 165 64 110 c 1
 87 229 l 1
 166 281 224 302 287 302 c 0x40
 322 302 360 292 404 273 c 0
 408 272 411 270 414 269 c 0
 417 268 419 267 424 265 c 0
 470 245 508 235 539 235 c 0x80
 595 235 651 257 729 313 c 1
EndSplineSet
Validated: 1
EndChar

StartChar: increment
Encoding: 57355 57355 243
Width: 697
Flags: W
HStem: 0 125<150 469>
LayerCount: 2
Fore
SplineSet
390 542 m 1
 150 125 l 1
 469 125 l 1
 390 542 l 1
351 719 m 1
 498 719 l 1
 634 0 l 1
 -63 0 l 1
 351 719 l 1
EndSplineSet
Validated: 1
EndChar

StartChar: lozenge
Encoding: 9674 9674 245
Width: 494
Flags: W
LayerCount: 2
Fore
SplineSet
317 688 m 1
 52 289 l 1
 161 -114 l 1
 428 289 l 1
 317 688 l 1
340 807 m 1
 484 289 l 1
 138 -233 l 1
 -4 289 l 1
 340 807 l 1
EndSplineSet
Validated: 1
EndChar

StartChar: middot
Encoding: 57356 57356 246
Width: 380
Flags: W
HStem: 253 189<124 264>
VStem: 88 212
LayerCount: 2
Fore
SplineSet
124 442 m 1
 300 442 l 1
 264 253 l 1
 88 253 l 1
 124 442 l 1
EndSplineSet
Validated: 1
EndChar

StartChar: overscore
Encoding: 57358 57358 247
Width: 500
Flags: W
HStem: 668 92<180 470>
VStem: 162 326
LayerCount: 2
Fore
SplineSet
180 760 m 1
 488 760 l 1
 470 668 l 1
 162 668 l 1
 180 760 l 1
EndSplineSet
Validated: 1
EndChar

StartChar: Gbreve
Encoding: 286 286 248
Width: 821
Flags: HW
HStem: -14 136<325.643 529.569> 279 126<469 560> 606 136<415.93 664.256> 798 70<438.327 578.705>
VStem: 352 70<887.174 927>
LayerCount: 2
Fore
SplineSet
694 54 m 1
 592 9 486 -14 379 -14 c 0
 258 -14 167 20 109 87 c 1
 68.0192049199 135.889369569 47.7146248647 197.184468154 47.7146248647 271.256930722 c 0
 47.7146248647 300.211516755 50.8171489783 331.118474112 57 364 c 0
 80 481 134 574 219 641 c 0
 305 708 411 742 536 742 c 0
 633 742 718 724 790 688 c 1
 761 537 l 1
 689 584 613 606 532 606 c 0
 383 606 281 519 251 364 c 0
 246.154484706 338.964837647 243.761222452 315.703645579 243.761222452 294.296482717 c 0
 243.761222452 183.165649746 308.258473411 122 429 122 c 0
 469 122 503 126 532 137 c 1
 560 279 l 1
 445 279 l 1
 469 405 l 1
 762 405 l 1
 694 54 l 1
352 927 m 1
 422 927 l 1
 427 887 455 868 504 868 c 0
 553 868 589 887 610 927 c 1
 680 927 l 1
 652 843 587 798 491 798 c 0
 400.257302446 798 351.50778485 838.20623613 351.50778485 913.55145516 c 0
 351.50778485 917.916683602 351.671418597 922.39986036 352 927 c 1
EndSplineSet
EndChar

StartChar: gbreve
Encoding: 287 287 249
Width: 716
Flags: HW
HStem: -216 116<98.1988 313.123> 0 127<179.5 315.017> 433 126<292.643 415.283> 527 20G<495.049 675> 639 75<367.898 505.224>
VStem: 283 70<732.495 784> 541 70<747.824 784>
LayerCount: 2
Fore
SplineSet
411 93 m 1xde
 350 29 289 0 213 0 c 0
 146 0 96 26 62 79 c 0
 39.6284631693 114.930044001 28.2869133395 157.294247086 28.2869133395 206.092609254 c 0
 28.2869133395 229.276157124 30.8468057361 253.911954039 36 280 c 0
 52 361 87 428 140 480 c 0
 194 533 254 559 321 559 c 0xee
 397 559 448 530 483 466 c 1
 499 547 l 1
 675 547 l 1
 579 55 l 2
 545 -121 413 -216 202 -216 c 0
 134 -216 73 -205 13 -184 c 1
 39 -48 l 1
 93 -83 148 -100 207 -100 c 0
 322 -100 382 -52 403 55 c 1
 411 93 l 1xde
362 433 m 0
 290 433 236 377 217 280 c 0
 212.959179423 259.795897113 210.959387713 241.510361362 210.959387713 225.192877334 c 0
 210.959387713 160.747141539 242.153077165 127 302 127 c 0
 375 127 428 183 447 280 c 0
 450.666606324 298.71899018 452.471162518 315.911099254 452.471162518 331.468526094 c 0
 452.471162518 396.528183238 420.912512545 433 362 433 c 0
283 784 m 1
 353 784 l 1
 352.930993432 782.447352216 352.896510685 780.918513965 352.896510685 779.413690623 c 0
 352.896510685 737.304597711 379.897680624 714 433 714 c 0
 488 714 525 739 541 784 c 1
 611 784 l 1
 589 691 520 639 419 639 c 0
 329.333244278 639 280.651353594 679.984865037 280.651353594 754.257569465 c 0
 280.651353594 763.645114445 281.429055249 773.564438437 283 784 c 1
EndSplineSet
EndChar

StartChar: Idot
Encoding: 57345 57345 250
Width: 372
Flags: W
HStem: 0 21G<29 220.868> 709 20G<166.132 358> 807 120<224 334>
VStem: 29 329
LayerCount: 2
Fore
SplineSet
170 729 m 1
 358 729 l 1
 217 0 l 1
 29 0 l 1
 170 729 l 1
224 927 m 1
 358 927 l 1
 334 807 l 1
 200 807 l 1
 224 927 l 1
EndSplineSet
Validated: 1
EndChar

StartChar: Scedilla
Encoding: 350 350 251
Width: 720
Flags: HW
HStem: -196 72<148.56 287.903> -14 14<273.763 339> 552 21G<606.5 646.896> 606 136<323.403 561.331>
LayerCount: 2
Fore
SplineSet
673 706 m 1
 643 552 l 1
 570 588 496 606 428 606 c 0
 339 606 292 582 282 530 c 0
 280.951088283 524.755441414 280.400711846 519.889082005 280.400711846 515.355842508 c 0
 280.400711846 485.314279016 304.57131942 469.902176565 368 456 c 2
 445 440 l 2
 575.923065159 412.970722032 632.646409401 365.251137269 632.646409401 276.954334324 c 0
 632.646409401 260.716428738 630.728041524 243.106212809 627 224 c 0
 596 64 487 -14 291 -14 c 0
 199 -14 108 3 22 38 c 1
 53 197 l 1
 136 148 218 122 299 122 c 0
 380 122 432 150 442 201 c 0
 443.082172076 207.087217926 443.670287857 212.735274702 443.670287857 218.001101069 c 0
 443.670287857 251.663105017 419.637193204 269.705430189 347 287 c 2
 277 303 l 2
 159.697769875 330.20051713 103.810374939 381.244440864 103.810374939 467.186651707 c 0
 103.810374939 482.351001956 105.550371687 498.601874598 109 516 c 0
 137 661 249 742 425 742 c 0
 505 742 586 730 673 706 c 1
339 0 m 1
 362.908642918 -32.9774385073 374.582782017 -61.8767090752 374.582782017 -88.3789058593 c 0
 374.582782017 -94.0225614927 374.053384224 -99.5575148432 373 -105 c 0
 361 -166 316 -196 233 -196 c 0
 202 -196 170 -191 137 -183 c 1
 151 -109 l 1
 181 -120 208 -124 229 -124 c 0
 266 -124 292 -109 298 -82 c 0
 298.375 -79.875 298.5625 -77.609375 298.5625 -75.1953125 c 0
 298.5625 -58.296875 289.375 -34.125 271 0 c 1
 339 0 l 1
EndSplineSet
EndChar

StartChar: scedilla
Encoding: 351 351 252
Width: 595
Flags: HW
HStem: -196 72<88.5601 227.903> -14 14<211.454 279> 444 116<236.052 458.476>
LayerCount: 2
Fore
SplineSet
551 530 m 1
 525 397 l 1
 456 428 390 444 327 444 c 0
 260 444 226 428 219 393 c 0
 218.30719852 389.766926429 217.947712242 386.733841978 217.947712242 383.885351898 c 0
 217.947712242 362.064523296 239.043481709 351.076264694 293 344 c 2
 324 340 l 2
 410 329 467 310 493 284 c 0
 511.415460281 265.584539719 520.800853709 239.644023728 520.800853709 206.178452027 c 0
 520.800853709 192.395415712 519.208843727 177.335931703 516 161 c 0
 493 45 396 -14 225 -14 c 0
 153 -14 77 -3 0 20 c 1
 26 153 l 1
 88 118 159 102 235 102 c 0
 303 102 342 121 349 158 c 0
 349.777899876 162.14879934 350.202808292 165.978225454 350.202808292 169.518788566 c 0
 350.202808292 193.286853878 331.054151423 204.037199835 271 211 c 2
 240 215 l 2
 111.696729371 231.144120145 59.2007291105 268.225486393 59.2007291105 344.647733039 c 0
 59.2007291105 358.166757469 60.8435012134 372.916887135 64 389 c 0
 87 505 175 560 339 560 c 0
 403 560 471 550 551 530 c 1
279 0 m 1
 302.908642918 -32.9774385073 314.582782017 -61.8767090752 314.582782017 -88.3789058593 c 0
 314.582782017 -94.0225614927 314.053384224 -99.5575148432 313 -105 c 0
 301 -166 256 -196 173 -196 c 0
 142 -196 110 -191 77 -183 c 1
 91 -109 l 1
 121 -120 148 -124 169 -124 c 0
 206 -124 232 -109 238 -82 c 0
 238.375 -79.875 238.5625 -77.609375 238.5625 -75.1953125 c 0
 238.5625 -58.296875 229.375 -34.125 211 0 c 1
 279 0 l 1
EndSplineSet
EndChar

StartChar: Cacute
Encoding: 262 262 253
Width: 734
Flags: HW
HStem: -14 136<324.057 529.052> 606 136<408.465 630.112>
LayerCount: 2
Fore
SplineSet
614 40 m 1
 538 4 460 -14 379 -14 c 0
 258 -14 167 20 109 87 c 1
 68.0192049199 135.889369569 47.7146248647 197.184468154 47.7146248647 271.256930722 c 0
 47.7146248647 300.211516755 50.8171489783 331.118474112 57 364 c 0
 80 481 133 573 217 640 c 0
 301 708 405 742 526 742 c 0
 607 742 678 724 740 688 c 1
 711 537 l 1
 651 585 589 606 514 606 c 0
 379 606 281 515 251 364 c 0
 246.348242706 339.778780989 244.063636215 317.101355979 244.063636215 296.095668651 c 0
 244.063636215 186.147633749 306.654732229 122 420 122 c 0
 495 122 565 143 644 191 c 1
 614 40 l 1
567 927 m 1
 705 927 l 1
 541 798 l 1
 445 798 l 1
 567 927 l 1
EndSplineSet
EndChar

StartChar: cacute
Encoding: 263 263 254
Width: 593
Flags: HW
HStem: -14 125<256.45 439.272> 435 125<313.446 495.968>
LayerCount: 2
Fore
SplineSet
566 530 m 1
 538 387 l 1
 496 420 452 435 401 435 c 0
 304 435 235 376 215 273 c 0
 211.915644416 257.115568745 210.400974978 242.27759492 210.400974978 228.541095232 c 0
 210.400974978 153.205506339 255.95912458 111 338 111 c 0
 393 111 446 127 493 159 c 1
 466 16 l 1
 407 -4 348 -14 292 -14 c 0
 121.551182299 -14 25.9633490492 66.1012533628 25.9633490492 204.28148324 c 0
 25.9633490492 225.806117573 28.2827848707 248.740036478 33 273 c 0
 68 453 206 560 403 560 c 0
 460 560 513 550 566 530 c 1
511 800 m 1
 649 800 l 1
 433 616 l 1
 337 616 l 1
 511 800 l 1
EndSplineSet
EndChar

StartChar: Ccaron
Encoding: 268 268 255
Width: 734
Flags: HW
HStem: -14 136<324.057 529.052> 606 136<408.465 630.112>
LayerCount: 2
Fore
SplineSet
614 40 m 1
 538 4 460 -14 379 -14 c 0
 258 -14 167 20 109 87 c 1
 68.0192049199 135.889369569 47.7146248647 197.184468154 47.7146248647 271.256930722 c 0
 47.7146248647 300.211516755 50.8171489783 331.118474112 57 364 c 0
 80 481 133 573 217 640 c 0
 301 708 405 742 526 742 c 0
 607 742 678 724 740 688 c 1
 711 537 l 1
 651 585 589 606 514 606 c 0
 379 606 281 515 251 364 c 0
 246.348242706 339.778780989 244.063636215 317.101355979 244.063636215 296.095668651 c 0
 244.063636215 186.147633749 306.654732229 122 420 122 c 0
 495 122 565 143 644 191 c 1
 614 40 l 1
442 798 m 1
 358 927 l 1
 445 927 l 1
 526 848 l 1
 639 927 l 1
 726 927 l 1
 592 798 l 1
 442 798 l 1
EndSplineSet
EndChar

StartChar: ccaron
Encoding: 269 269 256
Width: 593
Flags: HW
HStem: -14 125<256.45 439.272> 435 125<313.446 495.968>
LayerCount: 2
Fore
SplineSet
566 530 m 1
 538 387 l 1
 496 420 452 435 401 435 c 0
 304 435 235 376 215 273 c 0
 211.915644416 257.115568745 210.400974978 242.27759492 210.400974978 228.541095232 c 0
 210.400974978 153.205506339 255.95912458 111 338 111 c 0
 393 111 446 127 493 159 c 1
 466 16 l 1
 407 -4 348 -14 292 -14 c 0
 121.551182299 -14 25.9633490492 66.1012533628 25.9633490492 204.28148324 c 0
 25.9633490492 225.806117573 28.2827848707 248.740036478 33 273 c 0
 68 453 206 560 403 560 c 0
 460 560 513 550 566 530 c 1
350 616 m 1
 261 800 l 1
 348 800 l 1
 423 689 l 1
 542 800 l 1
 629 800 l 1
 468 616 l 1
 350 616 l 1
EndSplineSet
EndChar

StartChar: dslash
Encoding: 57354 57354 257
Width: 716
Flags: HW
HStem: -14 127<176.5 312.182> 0 21G<393 572.874> 433 127<290.403 414.581> 604 100<370 510 705 761> 740 20G<536.071 716>
LayerCount: 2
Fore
SplineSet
483 467 m 1xb8
 510 604 l 1
 351 604 l 1
 370 704 l 1
 529 704 l 1
 540 760 l 1
 716 760 l 1
 705 704 l 1
 780 704 l 1
 761 604 l 1
 686 604 l 1
 569 0 l 1
 393 0 l 1x78
 408 79 l 1
 347 15 286 -14 210 -14 c 0
 143 -14 92 13 59 66 c 0
 37.6666666667 101.333333333 26.5555555556 143.777777778 26.5555555556 193.333333333 c 0
 26.5555555556 218.111111111 29.3333333333 244.666666667 35 273 c 0
 51 357 86 426 140 479 c 1
 193 533 254 560 321 560 c 0
 397 560 448 531 483 467 c 1xb8
299 113 m 0xb8
 374 113 425 169 446 273 c 0
 450.107455909 294.358770728 452.148190548 313.692998171 452.148190548 330.933384642 c 0
 452.148190548 397.639785925 421.59704034 433 362 433 c 0
 287 433 236 377 216 273 c 0
 211.552320276 250.973395654 209.347481247 231.099918375 209.347481247 213.455571493 c 0
 209.347481247 147.791023051 239.884570442 113 299 113 c 0xb8
EndSplineSet
EndChar

StartChar: sfthyphen
Encoding: 57359 57359 258
Width: 415
Flags: W
HStem: 217 142<60 340>
LayerCount: 2
Fore
SplineSet
60 359 m 1
 367 359 l 1
 340 217 l 1
 33 217 l 1
 60 359 l 1
EndSplineSet
Validated: 1
EndChar

StartChar: c6459
Encoding: 57346 57346 259
Width: 500
Flags: W
HStem: 625 120<177 269 370 462>
VStem: 154 331
LayerCount: 2
Fore
SplineSet
177 745 m 1
 292 745 l 1
 269 625 l 1
 154 625 l 1
 177 745 l 1
370 745 m 1
 485 745 l 1
 462 625 l 1
 347 625 l 1
 370 745 l 1
EndSplineSet
Validated: 1
EndChar

StartChar: c6460
Encoding: 57347 57347 260
Width: 500
Flags: W
HStem: 616 129
VStem: 234 260
LayerCount: 2
Fore
SplineSet
356 745 m 1
 494 745 l 1
 330 616 l 1
 234 616 l 1
 356 745 l 1
EndSplineSet
Validated: 1
EndChar

StartChar: c6461
Encoding: 57348 57348 261
Width: 500
Flags: W
HStem: 616 73<340.842 420.57> 673 73<217.236 296.079>
VStem: 140 65<619 661.571> 434 64<700.429 746>
LayerCount: 2
Fore
SplineSet
312 640 m 2xb0
 288 657 l 2
 287 658 286 659 284 660 c 0
 271 669 259 673 250 673 c 0x70
 229 673 211 652 205 619 c 1
 204 616 l 1
 136 616 l 1xb0
 137 620 139 627 140 631 c 0
 154 700 201 746 258 746 c 0x70
 282 746 304 738 326 722 c 2
 351 703 l 2
 362 694 374 689 385 689 c 0xb0
 409 689 426 709 434 746 c 1
 502 746 l 1x70
 501 742 498 734 498 731 c 0
 484 662 437 616 380 616 c 0
 356 616 336 623 312 640 c 2xb0
EndSplineSet
Validated: 1
EndChar

StartChar: c6462
Encoding: 57349 57349 262
Width: 500
Flags: W
HStem: 616 129<282 306>
VStem: 168 210
LayerCount: 2
Fore
SplineSet
306 745 m 1
 378 616 l 1
 282 616 l 1
 168 745 l 1
 306 745 l 1
EndSplineSet
Validated: 1
EndChar

StartChar: c6463
Encoding: 57350 57350 263
Width: 500
Flags: W
HStem: 616 129<253 256>
LayerCount: 2
Fore
SplineSet
256 745 m 1
 406 745 l 1
 490 616 l 1
 403 616 l 1
 322 695 l 1
 209 616 l 1
 122 616 l 1
 256 745 l 1
EndSplineSet
Validated: 1
EndChar

StartChar: c6466
Encoding: 57351 57351 264
Width: 500
Flags: W
HStem: 616 129<231 234>
LayerCount: 2
Fore
SplineSet
231 616 m 1
 147 745 l 1
 234 745 l 1
 316 666 l 1
 428 745 l 1
 515 745 l 1
 381 616 l 1
 231 616 l 1
EndSplineSet
Validated: 1
EndChar

StartChar: c6467
Encoding: 57352 57352 265
Width: 500
Flags: HW
HStem: 616 70<255.569 394.208> 725 20G<164.5 240 415 495>
VStem: 167 70<705.174 745>
LayerCount: 2
Fore
SplineSet
167 745 m 1
 237 745 l 1
 243 705 271 686 320 686 c 0
 369 686 405 705 425 745 c 1
 495 745 l 1
 468 661 402 616 306 616 c 0
 214.538422405 616 166.645699894 656.845801642 166.645699894 733.348764014 c 0
 166.645699894 737.144923752 166.763623833 741.028880396 167 745 c 1
EndSplineSet
EndChar

StartChar: c6468
Encoding: 57353 57353 266
Width: 500
Flags: W
HStem: 625 120<264 375>
VStem: 241 157
LayerCount: 2
Fore
SplineSet
264 745 m 1
 398 745 l 1
 375 625 l 1
 241 625 l 1
 264 745 l 1
EndSplineSet
Validated: 1
EndChar

StartChar: uni00AD
Encoding: 173 173 268
Width: 415
Flags: W
HStem: 217 142<60 340>
LayerCount: 2
Fore
SplineSet
60 359 m 1
 367 359 l 1
 340 217 l 1
 33 217 l 1
 60 359 l 1
EndSplineSet
Validated: 1
EndChar
